<mxfile host="app.diagrams.net" modified="2024-04-17T15:19:28.761Z" agent="Mozilla/5.0 (Macintosh; Intel Mac OS X 10_15_7) AppleWebKit/605.1.15 (KHTML, like Gecko) Version/17.3.1 Safari/605.1.15" etag="86lTCpqRmGej1mpO73_E" version="24.2.5" type="github">
  <diagram name="Page-1" id="7aqCi2-gou_1MsXE5nKl">
    <mxGraphModel dx="1509" dy="1910" grid="0" gridSize="10" guides="1" tooltips="1" connect="1" arrows="1" fold="1" page="1" pageScale="1" pageWidth="827" pageHeight="1169" math="0" shadow="0">
      <root>
        <mxCell id="0" />
        <mxCell id="1" parent="0" />
        <mxCell id="ctKLtYblNAu11bIY_psp-9" value="" style="rounded=1;whiteSpace=wrap;html=1;fontFamily=Helvetica;fontSize=11;labelBackgroundColor=default;fillColor=#f8cecc;strokeColor=#b85450;" parent="1" vertex="1">
          <mxGeometry x="579" y="714" width="418" height="231" as="geometry" />
        </mxCell>
        <mxCell id="uFCmPriLI4l2OT3lbVlF-91" style="edgeStyle=orthogonalEdgeStyle;rounded=0;orthogonalLoop=1;jettySize=auto;html=1;" parent="1" source="uFCmPriLI4l2OT3lbVlF-14" target="uFCmPriLI4l2OT3lbVlF-90" edge="1">
          <mxGeometry relative="1" as="geometry" />
        </mxCell>
        <mxCell id="uFCmPriLI4l2OT3lbVlF-14" value="usuário autorizado" style="whiteSpace=wrap;html=1;rounded=1;fillColor=#fff2cc;strokeColor=#d6b656;" parent="1" vertex="1">
          <mxGeometry x="1009" y="480" width="120" height="60" as="geometry" />
        </mxCell>
        <mxCell id="uFCmPriLI4l2OT3lbVlF-38" value="" style="edgeStyle=orthogonalEdgeStyle;rounded=0;orthogonalLoop=1;jettySize=auto;html=1;" parent="1" source="uFCmPriLI4l2OT3lbVlF-40" target="uFCmPriLI4l2OT3lbVlF-42" edge="1">
          <mxGeometry relative="1" as="geometry" />
        </mxCell>
        <mxCell id="uFCmPriLI4l2OT3lbVlF-39" value="não" style="edgeStyle=orthogonalEdgeStyle;rounded=0;orthogonalLoop=1;jettySize=auto;html=1;fillColor=#1ba1e2;strokeColor=#000000;strokeWidth=1;" parent="1" source="uFCmPriLI4l2OT3lbVlF-40" target="uFCmPriLI4l2OT3lbVlF-42" edge="1">
          <mxGeometry relative="1" as="geometry" />
        </mxCell>
        <mxCell id="uFCmPriLI4l2OT3lbVlF-40" value="sucesso?" style="rhombus;whiteSpace=wrap;html=1;rounded=1;fillColor=#dae8fc;strokeColor=#6c8ebf;" parent="1" vertex="1">
          <mxGeometry x="670" y="330" width="80" height="80" as="geometry" />
        </mxCell>
        <mxCell id="uFCmPriLI4l2OT3lbVlF-41" value="" style="edgeStyle=orthogonalEdgeStyle;rounded=0;orthogonalLoop=1;jettySize=auto;html=1;fillColor=#1ba1e2;strokeColor=#000000;strokeWidth=1;" parent="1" source="uFCmPriLI4l2OT3lbVlF-42" target="uFCmPriLI4l2OT3lbVlF-45" edge="1">
          <mxGeometry relative="1" as="geometry" />
        </mxCell>
        <mxCell id="uFCmPriLI4l2OT3lbVlF-42" value="&lt;b&gt;LIB local_auth&lt;/b&gt;&lt;div&gt;tenta resolver o fluxo&lt;/div&gt;" style="whiteSpace=wrap;html=1;rounded=1;fillColor=#dae8fc;strokeColor=#6c8ebf;" parent="1" vertex="1">
          <mxGeometry x="490" y="340" width="120" height="60" as="geometry" />
        </mxCell>
        <mxCell id="uFCmPriLI4l2OT3lbVlF-44" value="não" style="edgeStyle=orthogonalEdgeStyle;rounded=0;orthogonalLoop=1;jettySize=auto;html=1;" parent="1" source="uFCmPriLI4l2OT3lbVlF-45" target="uFCmPriLI4l2OT3lbVlF-49" edge="1">
          <mxGeometry relative="1" as="geometry" />
        </mxCell>
        <mxCell id="ctKLtYblNAu11bIY_psp-5" value="sim" style="edgeStyle=orthogonalEdgeStyle;rounded=0;orthogonalLoop=1;jettySize=auto;html=1;entryX=0;entryY=0.5;entryDx=0;entryDy=0;fillColor=#1ba1e2;strokeColor=#000000;strokeWidth=1;" parent="1" source="uFCmPriLI4l2OT3lbVlF-45" target="uFCmPriLI4l2OT3lbVlF-50" edge="1">
          <mxGeometry x="-0.2974" relative="1" as="geometry">
            <Array as="points">
              <mxPoint x="439" y="510" />
              <mxPoint x="439" y="254" />
            </Array>
            <mxPoint as="offset" />
          </mxGeometry>
        </mxCell>
        <mxCell id="uFCmPriLI4l2OT3lbVlF-45" value="resolvido?" style="rhombus;whiteSpace=wrap;html=1;rounded=1;fillColor=#dae8fc;strokeColor=#6c8ebf;" parent="1" vertex="1">
          <mxGeometry x="510" y="470" width="80" height="80" as="geometry" />
        </mxCell>
        <mxCell id="uFCmPriLI4l2OT3lbVlF-46" value="sim" style="edgeStyle=orthogonalEdgeStyle;rounded=0;orthogonalLoop=1;jettySize=auto;html=1;fillColor=#1ba1e2;strokeColor=#000000;strokeWidth=1;" parent="1" source="uFCmPriLI4l2OT3lbVlF-40" target="uFCmPriLI4l2OT3lbVlF-64" edge="1">
          <mxGeometry relative="1" as="geometry">
            <mxPoint x="710" y="480" as="targetPoint" />
          </mxGeometry>
        </mxCell>
        <mxCell id="uFCmPriLI4l2OT3lbVlF-47" value="" style="edgeStyle=orthogonalEdgeStyle;rounded=0;orthogonalLoop=1;jettySize=auto;html=1;" parent="1" source="uFCmPriLI4l2OT3lbVlF-49" target="uFCmPriLI4l2OT3lbVlF-55" edge="1">
          <mxGeometry relative="1" as="geometry">
            <Array as="points">
              <mxPoint x="562" y="700" />
              <mxPoint x="656" y="700" />
            </Array>
          </mxGeometry>
        </mxCell>
        <mxCell id="uFCmPriLI4l2OT3lbVlF-48" value="" style="edgeStyle=orthogonalEdgeStyle;rounded=0;orthogonalLoop=1;jettySize=auto;html=1;" parent="1" source="uFCmPriLI4l2OT3lbVlF-49" target="uFCmPriLI4l2OT3lbVlF-52" edge="1">
          <mxGeometry relative="1" as="geometry">
            <Array as="points">
              <mxPoint x="542" y="700" />
              <mxPoint x="452" y="700" />
            </Array>
          </mxGeometry>
        </mxCell>
        <mxCell id="uFCmPriLI4l2OT3lbVlF-49" value="exceções&lt;div&gt;&lt;b&gt;catch&lt;/b&gt;&lt;/div&gt;" style="whiteSpace=wrap;html=1;rounded=1;fillColor=#fff2cc;strokeColor=#d6b656;" parent="1" vertex="1">
          <mxGeometry x="489" y="600" width="120" height="60" as="geometry" />
        </mxCell>
        <mxCell id="uFCmPriLI4l2OT3lbVlF-50" value="&lt;b&gt;LIB local_auth&lt;/b&gt;&lt;div&gt;authenticate&lt;/div&gt;" style="rounded=1;whiteSpace=wrap;html=1;fillColor=#dae8fc;strokeColor=#6c8ebf;" parent="1" vertex="1">
          <mxGeometry x="650" y="224" width="120" height="60" as="geometry" />
        </mxCell>
        <mxCell id="uFCmPriLI4l2OT3lbVlF-51" value="envia erro ao&amp;nbsp;&lt;b&gt;insights&lt;/b&gt;&lt;div&gt;&lt;b&gt;biometric_failed&lt;/b&gt; com &lt;b&gt;stackTrace&lt;/b&gt;&lt;/div&gt;" style="whiteSpace=wrap;html=1;rounded=1;fillColor=#fff2cc;strokeColor=#d6b656;" parent="1" vertex="1">
          <mxGeometry x="216" y="761" width="120" height="60" as="geometry" />
        </mxCell>
        <mxCell id="uFCmPriLI4l2OT3lbVlF-52" value="generica" style="whiteSpace=wrap;html=1;rounded=1;fillColor=#fff2cc;strokeColor=#d6b656;" parent="1" vertex="1">
          <mxGeometry x="389" y="761" width="120" height="60" as="geometry" />
        </mxCell>
        <mxCell id="uFCmPriLI4l2OT3lbVlF-95" style="edgeStyle=orthogonalEdgeStyle;rounded=0;orthogonalLoop=1;jettySize=auto;html=1;entryX=0.5;entryY=1;entryDx=0;entryDy=0;" parent="1" source="uFCmPriLI4l2OT3lbVlF-53" target="uFCmPriLI4l2OT3lbVlF-90" edge="1">
          <mxGeometry relative="1" as="geometry">
            <Array as="points">
              <mxPoint x="449" y="954" />
              <mxPoint x="1209" y="954" />
            </Array>
          </mxGeometry>
        </mxCell>
        <mxCell id="uFCmPriLI4l2OT3lbVlF-53" value="&lt;span style=&quot;caret-color: rgb(0, 0, 0); color: rgb(0, 0, 0); font-family: Helvetica; font-size: 12px; font-style: normal; font-variant-caps: normal; font-weight: 400; letter-spacing: normal; text-align: center; text-indent: 0px; text-transform: none; white-space: normal; word-spacing: 0px; -webkit-text-stroke-width: 0px; text-decoration: none; float: none; display: inline !important;&quot;&gt;UI - message de erro genérica&lt;br&gt;&lt;/span&gt;" style="whiteSpace=wrap;html=1;rounded=1;fillColor=#fff2cc;strokeColor=#d6b656;" parent="1" vertex="1">
          <mxGeometry x="389" y="861" width="120" height="60" as="geometry" />
        </mxCell>
        <mxCell id="uFCmPriLI4l2OT3lbVlF-83" value="" style="edgeStyle=orthogonalEdgeStyle;rounded=0;orthogonalLoop=1;jettySize=auto;html=1;" parent="1" source="uFCmPriLI4l2OT3lbVlF-54" target="uFCmPriLI4l2OT3lbVlF-82" edge="1">
          <mxGeometry relative="1" as="geometry" />
        </mxCell>
        <mxCell id="uFCmPriLI4l2OT3lbVlF-54" value="Dialog de navegação para ativar biometria" style="whiteSpace=wrap;html=1;rounded=1;fillColor=#fff2cc;strokeColor=#d6b656;" parent="1" vertex="1">
          <mxGeometry x="593" y="861" width="120" height="60" as="geometry" />
        </mxCell>
        <mxCell id="uFCmPriLI4l2OT3lbVlF-55" value="se &lt;b&gt;android&lt;/b&gt; e status &lt;b&gt;notAvaliable&lt;/b&gt;" style="whiteSpace=wrap;html=1;rounded=1;fillColor=#fff2cc;strokeColor=#d6b656;" parent="1" vertex="1">
          <mxGeometry x="593" y="761" width="120" height="60" as="geometry" />
        </mxCell>
        <mxCell id="uFCmPriLI4l2OT3lbVlF-56" value="" style="edgeStyle=orthogonalEdgeStyle;rounded=0;orthogonalLoop=1;jettySize=auto;html=1;" parent="1" source="uFCmPriLI4l2OT3lbVlF-52" target="uFCmPriLI4l2OT3lbVlF-51" edge="1">
          <mxGeometry relative="1" as="geometry" />
        </mxCell>
        <mxCell id="uFCmPriLI4l2OT3lbVlF-58" value="" style="edgeStyle=orthogonalEdgeStyle;rounded=0;orthogonalLoop=1;jettySize=auto;html=1;" parent="1" source="uFCmPriLI4l2OT3lbVlF-52" target="uFCmPriLI4l2OT3lbVlF-53" edge="1">
          <mxGeometry relative="1" as="geometry" />
        </mxCell>
        <mxCell id="uFCmPriLI4l2OT3lbVlF-59" value="" style="edgeStyle=orthogonalEdgeStyle;rounded=0;orthogonalLoop=1;jettySize=auto;html=1;" parent="1" source="uFCmPriLI4l2OT3lbVlF-55" target="uFCmPriLI4l2OT3lbVlF-54" edge="1">
          <mxGeometry relative="1" as="geometry" />
        </mxCell>
        <mxCell id="uFCmPriLI4l2OT3lbVlF-63" style="edgeStyle=orthogonalEdgeStyle;rounded=0;orthogonalLoop=1;jettySize=auto;html=1;fillColor=#1ba1e2;strokeColor=#000000;strokeWidth=1;" parent="1" source="uFCmPriLI4l2OT3lbVlF-50" target="uFCmPriLI4l2OT3lbVlF-40" edge="1">
          <mxGeometry relative="1" as="geometry" />
        </mxCell>
        <mxCell id="uFCmPriLI4l2OT3lbVlF-77" value="" style="edgeStyle=orthogonalEdgeStyle;rounded=0;orthogonalLoop=1;jettySize=auto;html=1;" parent="1" source="uFCmPriLI4l2OT3lbVlF-64" target="uFCmPriLI4l2OT3lbVlF-76" edge="1">
          <mxGeometry relative="1" as="geometry" />
        </mxCell>
        <mxCell id="uFCmPriLI4l2OT3lbVlF-64" value="Persiste localmente&lt;div&gt;valores&amp;nbsp;&lt;b&gt;chave/valor&lt;/b&gt; no&lt;/div&gt;&lt;div&gt;secure_storage(keychain)&lt;/div&gt;" style="rounded=1;whiteSpace=wrap;html=1;fillColor=#fff2cc;strokeColor=#d6b656;" parent="1" vertex="1">
          <mxGeometry x="635" y="480" width="150" height="60" as="geometry" />
        </mxCell>
        <mxCell id="uFCmPriLI4l2OT3lbVlF-66" style="edgeStyle=orthogonalEdgeStyle;rounded=0;orthogonalLoop=1;jettySize=auto;html=1;entryX=0.5;entryY=0;entryDx=0;entryDy=0;" parent="1" source="uFCmPriLI4l2OT3lbVlF-65" target="uFCmPriLI4l2OT3lbVlF-50" edge="1">
          <mxGeometry relative="1" as="geometry" />
        </mxCell>
        <mxCell id="uFCmPriLI4l2OT3lbVlF-74" style="edgeStyle=orthogonalEdgeStyle;rounded=0;orthogonalLoop=1;jettySize=auto;html=1;dashed=1;dashPattern=8 8;endArrow=none;endFill=0;fillColor=#dae8fc;strokeColor=#6c8ebf;" parent="1" source="uFCmPriLI4l2OT3lbVlF-65" target="uFCmPriLI4l2OT3lbVlF-67" edge="1">
          <mxGeometry relative="1" as="geometry" />
        </mxCell>
        <mxCell id="uFCmPriLI4l2OT3lbVlF-65" value="&lt;b&gt;inicio&lt;/b&gt;" style="ellipse;whiteSpace=wrap;html=1;aspect=fixed;fillColor=#1ba1e2;strokeColor=#006EAF;fontColor=#ffffff;" parent="1" vertex="1">
          <mxGeometry x="686" y="119" width="48" height="48" as="geometry" />
        </mxCell>
        <mxCell id="uFCmPriLI4l2OT3lbVlF-73" value="" style="group" parent="1" vertex="1" connectable="0">
          <mxGeometry x="1007" y="-153" width="385.28" height="407" as="geometry" />
        </mxCell>
        <mxCell id="uFCmPriLI4l2OT3lbVlF-67" value="&lt;h1 style=&quot;margin-top: 0px;&quot;&gt;Args da chamada&lt;/h1&gt;&lt;p&gt;Na chamada da função vai existir a possibilidade de passar valores opcionais de &lt;b&gt;key/value &lt;/b&gt;caso exista a necessidade de salvar alguma informação sensível após sucesso biométrico&lt;/p&gt;Exemplo:&lt;div&gt;&lt;br&gt;&lt;/div&gt;&lt;div&gt;&lt;br&gt;&lt;/div&gt;&lt;div&gt;&lt;br&gt;&lt;/div&gt;&lt;div&gt;&lt;br&gt;&lt;/div&gt;&lt;div&gt;&lt;br&gt;&lt;/div&gt;&lt;div&gt;&lt;br&gt;&lt;/div&gt;&lt;div&gt;&lt;br&gt;&lt;/div&gt;&lt;div&gt;&lt;br&gt;&lt;/div&gt;&lt;div&gt;&lt;br&gt;&lt;/div&gt;&lt;div&gt;&lt;br&gt;&lt;/div&gt;&lt;div&gt;ou um objeto&lt;/div&gt;" style="text;html=1;whiteSpace=wrap;overflow=hidden;rounded=0;fillColor=#f5f5f5;fontColor=#333333;strokeColor=#666666;" parent="uFCmPriLI4l2OT3lbVlF-73" vertex="1">
          <mxGeometry width="326" height="407" as="geometry" />
        </mxCell>
        <mxCell id="uFCmPriLI4l2OT3lbVlF-71" value="" style="shape=image;verticalLabelPosition=bottom;labelBackgroundColor=default;verticalAlign=top;aspect=fixed;imageAspect=0;image=data:image/png,iVBORw0KGgoAAAANSUhEUgAAApIAAAD8CAYAAADE6URlAAABU2lDQ1BJQ0MgUHJvZmlsZQAAKJFtkDFLQgEUhT9LEULLoLYCpwizCFNIWjKLCBrEEioaej5NJbXX07CW1pZoao0a+gm1NAUt7YHUaku7IEHJ6z6t1OrC5XwcDpfLgS6romlZK5DLF/Xo4px7bX3DbX/FigMXgzgVtaCFIpFlifCtnVMrYzH1cdy8NVs+so3op8cV71lpPpB9+ZvvmJ5EsqCKfsh6VE0vgmVUOFIqaiYfCA/o8pTwicmpJl+aHG/ydSOzGg0LPwi71LSSEH4S9sbb/FQb57L76tcP5veOZD62ItorO0QMH9MsECDIpHTzf9bfyIbZReMQnQwp0hRxExJHI0tSeIk8KhN4hX1yzYff7Ph3dy1vpwLBGeiqtrytGNxsgnOs5XkuoD8D932aois/jVpq1sL2lK/JDh1sb4ZRHQb7LdR1w3g/N4z6FXQ/w93eJ1YqYFCo4mV2AAAAimVYSWZNTQAqAAAACAAEARoABQAAAAEAAAA+ARsABQAAAAEAAABGASgAAwAAAAEAAgAAh2kABAAAAAEAAABOAAAAAAAAAJAAAAABAAAAkAAAAAEAA5KGAAcAAAASAAAAeKACAAQAAAABAAACkqADAAQAAAABAAAA/AAAAABBU0NJSQAAAFNjcmVlbnNob3Q4JHHpAAAACXBIWXMAABYlAAAWJQFJUiTwAAAB1mlUWHRYTUw6Y29tLmFkb2JlLnhtcAAAAAAAPHg6eG1wbWV0YSB4bWxuczp4PSJhZG9iZTpuczptZXRhLyIgeDp4bXB0az0iWE1QIENvcmUgNi4wLjAiPgogICA8cmRmOlJERiB4bWxuczpyZGY9Imh0dHA6Ly93d3cudzMub3JnLzE5OTkvMDIvMjItcmRmLXN5bnRheC1ucyMiPgogICAgICA8cmRmOkRlc2NyaXB0aW9uIHJkZjphYm91dD0iIgogICAgICAgICAgICB4bWxuczpleGlmPSJodHRwOi8vbnMuYWRvYmUuY29tL2V4aWYvMS4wLyI+CiAgICAgICAgIDxleGlmOlBpeGVsWURpbWVuc2lvbj4yNTI8L2V4aWY6UGl4ZWxZRGltZW5zaW9uPgogICAgICAgICA8ZXhpZjpQaXhlbFhEaW1lbnNpb24+NjU4PC9leGlmOlBpeGVsWERpbWVuc2lvbj4KICAgICAgICAgPGV4aWY6VXNlckNvbW1lbnQ+U2NyZWVuc2hvdDwvZXhpZjpVc2VyQ29tbWVudD4KICAgICAgPC9yZGY6RGVzY3JpcHRpb24+CiAgIDwvcmRmOlJERj4KPC94OnhtcG1ldGE+CoRwXQEAAAAcaURPVAAAAAIAAAAAAAAAfgAAACgAAAB+AAAAfgAASwx6JR38AABAAElEQVR4AexdB3wUxRd+kAIEUiih9yIdpAsivVfBiooNu6D+bYiKIgo2VBQURUVFFLv0Ir33DkrvvaZACiTkP99cZjO3t1dzySXwnj9vd2en7TcX7tvXJk+VavXTiIURYAQYAUaAEWAEGAFGgBHwEoE8TCS9RIyrMwKMACPACDACjAAjwAhIBJhI8heBEWAEGAFGgBFgBBgBRsAnBJhI+gQbN2IEGAFGgBFgBBgBRoARYCLJ3wFGgBFgBBgBRoARYAQYAZ8QYCLpE2zciBFgBBgBRoARYAQYAUaAiSR/BxgBRoARYAQYAUaAEWAEfEKAiaRPsHEjRoARYAQYAUaAEWAEGAEmkvwdYAQYAUaAEWAEGAFGgBHwCQEmkj7Bxo0YAUaAEWAEGAFGgBFgBJhI8neAEWAEGAFGgBFgBBgBRsAnBJhI+gQbN2IEGAFGgBFgBBgBRoARYCLJ3wFGgBFgBBgBRoARYAQYAZ8QYCLpE2zciBFgBBgBRoARYAQYAUaAiSR/BxgBRoARYAQYAUaAEWAEfEKAiaRPsHEjRoARYAQYAUaAEWAEGAEmkvwdYAQYAUaAEWAEGAFGgBHwCQEmkj7Bxo0YAUaAEWAEGAFGgBFgBJhI8neAEWAEGAFGgBFgBBgBRsAnBJhI+gQbN2IEGAFGgBFgBBgBRoARYCLJ3wFGgBFgBBgBRoARYAQYAZ8QYCLpE2zciBFgBBgBzxFo1ao5DRo4QDb4dsLPNGfOQs8bc01GgBFgBHIwAkwkTYtTMn8khQWFUloa0YGEM6a7vl3WjihD+fKGUGLqZfov/rhvnXCrnIVAHqKQahFEeYnSLqVSypFLOWt+1/tsctj6rFg2nSIjxfdFSI+e99HBQ0eu9xXi52cEGIFrBAEmkqaF3NXhAwrKI9iBkKrzXjTd9f6yeL4IWtnqDdnwZFIstVz2tvedcAufECjQviQFFc9v2fbq+ct0eVcspRwSBFC8NHgr+RoWoeI/3iybpRxLoBOdFnjbBdfPQgRy0vo89eSD9NSTD8mn3bBxKz3w4KAsfHLumhFgBBiB7EWAiaQJbyaSJkBy8WXZtV0pT8Fg109wNY0S5p+kmJHbKfVMkuu62t2cRFS0aQXkNH+zYlSofyU5dsKc45Qw41hA5qEPmlPWJzQ0hNasmk0hISHCypFGXbr1o2PHTuhT5XNGgBFgBHI1AkwkTcvHRNIESC6+9IhIqudLTaMT3Rd5bKLOKURFTT+Qx4gBVSny+ZpyCokLT9LZQesCOR05dk5ZH10buWvXXrrtDpufZMAB4gkwAowAI+AnBJhImoAcUKG19GeMTUmgn46sNN31/pJN295j5q8WOpFMXnuWEhectHUdmpeCSxagfEKTFlI13Bgu9WwyHW/9j3Ht6iSoRH4Kf7iqrHJ56wVKmBl4LZyr+WblvZxIJHPK+ixdPIWKFCks4X996Hs0ZersrFwK7psRYAQYgWxHgIlkFkPORDKLAXbRvU4kY0b9S/Hf7XOoHX5/ZYoaXNsoP9l7MV3ZG29c84l7BHIikXQ/66yv0bBBXZr4w1g5UEpKCjVs3JGuXr2a9QPzCIwAI8AIZCMC2UYkI0MKUHCeIPlosVcSKSUt1eVjFgktRCLwklLTrlLMlQSndQsF56da4WWodnhpSr6aQjvij9FOERmNc08EgTUquMZc/7KHfaAdnq1ORFlqEFmeYlMSacW5PXQqOZYCQiTTI1bzNSpCweUL0pVdcZS88TylHHYdWQx/wryFbD6FV+NTKC0hRfoYFmhZnEJvLEyXd8RQ8sqzlHo+2QyVy+vg0gUoVASnhNaOopSjCZS84Zyck6sgl7yRIZQnv+37gsCYtCviBzgoD8FkmV/M56qYA57p8vYYp8EynhBJTLzc1h6yb5xfeGcbXZx8EKcOkiefCMLKg2+lSYRZXM7PVOz00of1yRsu8Aiz4QHNKXAo0KoEXf43hhIXnaK0pFTKE5xXYBNN+ZoWk2uVuFiUX3L/d+Dt+uhzwTMWurcSgUxCktefo3Mvb5Tn+of6PullxrnAwwiKSkmj1HO271dQkXyUv20JCqlciNISU+nKnniC6dwZ1n5bn/SJ5QkLFt/ZSAqtG0VB0fllYNbl/2Lp8pYLxtRdnXz04TDq3LmtrLJ12790z71PuqrO9xgBRoARyJUIZBuRnNDwEWpVtIYE6dN9c2nM/nlOAStboAgtbvmqvA8iWWvBK5JQ6g1AID+tex+1LmbrU7+H8x+PrKB3dk11aGeut7fjKHORce1p1PadZZrRyFp3GO3Uyb5Lp2ng1ok0u7kt+js7orYL3lqOigyvbxAjNRccQQzPPLlW/tjr5eq8yIgbCe0h8RP3U97IUCrYu6y6bRwvb75ApweskuTFKLQ4KdCmBBX9qJFBCPUqIAPnnltPIDtWUvLv1hRygy1dytln1lG+xkUp/L5KIt2OYB2aXNkdR6fvX0lX469opbZTT4lk2c3dKU+ILVI/dsxOivtyj0NfCCiJntDcoRwF3kRt+7o+JX5qKck8xru8LUaSG5xDQCJP9FhEJf9oRXmjQm2F4vNqzGXp94mjlfi6PtFfNqP8txS36tJpWfz3+yjmw38t74OklV7cUd7DsxxtNIsKv1aHCt1d0WG9nX1v/LU+mERQqQIU/UVT4/snJ6Z9XI27QnFf76H4CY4abq0aLZz/JxUvXkwWIXfkJ6O/0m/zOSPACDAC1wQC2UYku5aoT2Pq9ZegHU+KoVbL3nEK4LNVOtOgyrYfliVnd9KATd/Y1a0UFk2/Nx1EUSFhduXmiz0XT9Ld6z8naECdSWaJ5OBqPejRim2cdU/xKUkULkgvJKuJZJF3G1DBXo7Ezzy5mI+EmdfiR1AnkvjBVuTK3B7XqaeT6GSvxZYEDvc9nQt+kGNH70QTO9GJZPLm85TvxiJ29/ULkMmTfZboRfLcEyJZqF9FKvx6XaPt6QdXUvK6c8a1OgFxAoGyEk+JpKeYWK2PTiSt5uCs7NIfh+n8m1scbns6F6v18YlIiu8bnstKzEQy5v0dVPjNelZVZVncV+I785n9d8Yf64POC91RgQq/Ib4PphcW82Sg6T3a1Lm/Y968eWnLpoVCgW178bm3/1O0ZcsOczd8zQgwAoxArkcg24hkaN5g2tZupGFG7rzyQ9p3yVobtfyWoYTE4JAnt3xP805vtwN6YqPHqUWRakbZJ/vm0EphSg4RY3QrUY/uK2fL74cKEw4toZG7pxt1zSdti9WkAiIBuZLP0skurt1pJG8oVJJmpWsbUX9DzEEad2ABnU6Ok/N75QZhMtUkK4mkHqWKIVNPJlLsF7spZf9FCq0TRZHPVBemUZvZmkTKm+Ot5zmYqHUiqaYNU2X8D/uliTRMaCcL9rZpLHH/4u+H6MKwraqqcTSTM+RqjB23W5qzQyoVoognqtlpe0ACQQZ10YmkKsd4ScKMCxNv5KAaFFyhoLoliaS5D51IXpp2lBJm2wJi8uQLouByYYQ8kzpBvbJTENLbHAkpBoHJP6xrGWHatg0Jc2fBvuXlhSdEMrProxNJkPhzL22k8IeqELSKSqApO/PEGgqtFWmQ49RTSXS83TxVRR4zuz6hNSOly4TqtECnUhTWpbS8BIZx4x01uklrzkoNqWqjH3UiKcvF9xNEDprUxCWn6Mp/cZS3aCjlbxEt3SOsiGRm1wfjwg2k1Ox2GVMT84ifdICSxdyBY4jAFXgXaFdS/j24IpK1alWn334ZL/tC2p+69dtk9MtnjAAjwAhcQwhkG5EEZqOFKbpHyRslfOMPLqIP9sx0gFInZzBr114wxM6fEv6Q0276n9HuwY3jafm53cY1Th4Wkdev3tBTlqGPZkuGufSz1Bt7k/5nXP0HqWPxOrL5ltjDdOe6sXam9JuKVKVJjZ4wus9KIqkTLxAbaAthJlSCH+tSs9oaZBJRxmZfNjORTFp6WpjC16gu5DFyYHWKePIGW5nwDcSPqT4O/BrLrOxC0l9N1EqYJcYRpMcsxYTpsEBrGwm6cuAinRSmWV3050E5zNtG1DUKBKHDOHkjQnAlTfHQZOmiE0m93OocJDXmne2UluJZMIRODD0hkvrz+LI+OpHU/TjLbhRmefhuCon9+D+K+3avPC+zKh0bQYaO1J0hy/Dhr/UxOhQnmQ22cSCSok/kozw/eJPDegD3NPG9c+en6O364HlKCNcAkGQIXCVO3bXMlrBelmR8hNYvTPg7OPPo6oxC01nHDq3pk4+Hy1IE2tzYsL2pBl8yAowAI3BtIJCtRBJaRGgTIecuX5QEzwzjEEEAkYIHMuXEBnpx+2S7Ku/VvotuL91Elm2PO0q3rhltdx8XCJ7Z1PZtsdVhPnlvhPCV/O7wMod6VgWeEkn0vbXdCKOLe9ePozUXHH2mpjR7TgbhoGJWEUnzD/HZp9da+h6aSeCRehkEA/MzE0losqCJsRMR8FJ2QzfD7K2TGtSLfKYGRTxeTTaBRulYq38QMWXXBS4Q2FNWkB0E0EAkIdUCQ+yIl9Bonui2UNbTPxBtjahrSKJIKn72Wfv8hR4TSUG2JHF5dbPTQA59XJx7Q1T8sT46kTx1x1IRZBMrp1RqVjtDM3v6AWGWFxpkiE6K5Dqnr4G/1kcOkv7hbyIJjevxtvZaVH08T869WR/0h0CwEr/dYnR99lnhvzvf98ThDz5wF734wlOyv4SERGp6k/iuszACjAAjcA0ikK1EMq/wF9rc9h2D4PVe8wntiDtmB+v6NsMN38d+67+gdRf2292Hb2SDyAqy7PX//qBfjlprBd6s0Yf6p5u4fz66it7470+7fpxdeEokdc1pQmoy1Vv4mmWX95RtTsNr3ibvZRWRzN88mqK/uUmOkZZ8lY42dNT04iaibcuszvhBO3bTHDsfR51IIsL7RFdH8oZ+oseJYItWtmALs3kb88B8IEijEztmlzyXH+lm4Tzp/mdRr9ahoGI2sg+TbNKy00ZdnUg6C9SQ/mzDbL50iCg/daf9y4JOJHE/acUZ2zSQR7JMGIVUj7Az0cIdAIQVGLoTb4iKP9ZHJ5InOi+Q0e+YY8k/RVBSDVtQku4iUHzizYSofcjxW/4x3Bj8tT6y4/QPfxNJaMozm5fTm/XBYyDyvLD4PkKQlQCYZUYGDRxAjz92v+wiNjaObr7FZiHJTJ/clhFgBBiBnIhAthJJADBMEDzlw4jI6rd2/m3gUl+kzvmz6TPyGkEqDRcNFRli7LVZ2LcaKXUg9234klaft5nyZIH2cX+5lvRGjVtlCUzfMIF7Ip4SyXbRtWj8jQ/LLhGd3XnlB5bd61rYrCKSus9bynFBhjrOt5wLCvVUN6f6LSck01aiE8mkVWfozCPWJD3qFaEJ7G/TBCatFPU0E1+peR0I6WS8ldjPd1Gc8OlUohNJ+GGCsJqlQNuSVGysTTttFXCjE0lneSR1kof+rfzvzOPi2hui4o/10YmkTgz1cuz3DbM5JPprQeiFTyHkRPeFlHLwkjz31/rIztI//E0k9efTx/Hm3Jv1Qb9F3qpPBW8vL4dw9d33dA739OtLrw551tZfUhI1btrZ06ZcjxFgBBiBXIVAthNJ3cfRTBahuYMGD/LD4eX09q4pDmDqRA/kDSTOSrqIoJux9WwagUMJZ6n9ivesqjmU6f27CrbRieq6Cweon4gOt5JqIiAnq9P/RA2pY0uNIyZgpZnT52X4zonC88KUe2nqEeO2TiQvTT0q7m8y7ukn4Q9XoagXasmiFOHfiNQzSvRUOqrMk2PsWEEkRUCOEp1IOvhHpleyI5IWfpaeEEl0pZMId9G4an7eEBV/rI9OGHVNcvEfWsjUSJjX8TbCFSF9v3Bda3yy5yK6IoKuIP5aH9lZ+odfiaTJp1Mfx5tzb9YH/Rb/SWhw0zMDXPxNBJG95RhE5s34bVq3oLFj3pVNUlNTqX6Ddt4057qMACPACOQaBLKdSAIZXasIAgYilkf8t6Vdhtm7+6qPaNdFRx8lnei5ivzW0w0dSDhDHVe879Gi6P27IpL3lmtBb9XoK/t0RSR1E3hWaSR1DeHlHbHCxLvU6bPqRPLcK5soYfpRo64dkRRRzueHOCGSIvl0VPreyojI1v0X9eAPBL946meWAl9MzZcyO4kkNHfQ4CnRfQpVmfnoDVHxx/r4jUhqwTmZWR8dD38SSZVHUu/fl3Nv1gf9664AzlImeTOPKlUq0tS/fzCaINgGQTcsjAAjwAhcawgEhEg+J/JEDkzPE/n7sbU05N/fSI9wdpVnUk8N1F+Ytlc5MW0/WP4Wer16b7leWWHaRiL0bxs8Ivt3RVRbFr2Bvm/4mKyXVURSN53Cz+94ew9N23cvk8mt1ZdaJ5KuzHu6hs1cr9Q/7aX/Ifq0yoeoxnJ3zE4iGVw2jErNzYiqPdFFmIKP2EzBzubpDVHxx/r4i0j6a310XK4FIom8lYXutPleY1/20w+t0h/Rp3PkkQwKCpJtBw4aQouXrPSpH27ECDACjEBORiAgRFLfuQZbGdZb+Cp9UPtu6l2qocRqtNj5ZqyTnW9+bTKQGkVVlPWGCf/KScLP0kreFmbyfulmctRBXU/EU41klYIlaG6Ll2SXeIY6Ik2R2Z8TN3UTeFYRSX1XDyQSP9pgpuW2gXmLhFKZZRm+WseazaarFzO0JDqRdJXSRve/cwi20XzzMqPZyU4iGVqvMJWY3NL4eniy37Y3RNIf6+MvIqmvXWbWxwBLnOhE0ipllF7X6lyPag+URhK76BQeWldOT2YbuHmu1VS9KpsxfRJVrGDLu/r7H9PpreGjvGrPlRkBRoARyA0IBIRIAhj4DcJ/EPLY5gli15v7KZ9IKA65Rex6c0LsfmMl79a6k+4o01Tews41XVc5/uOM9D9bRfJz1d/wnVNo4pHlVt05lHlKJAsEhYgE6zYfKHRilc8S5TObv0DVC5XCadal/ymaj0ov7STHwMe55zdQwtzjxrU6iRTmaPzoSxFmZHfpf/ToYNUH9nMuu7GbkbbHIf3P0yLP5FM3yOogtfDn0/NMqn7cHbOTSOqmZ8zLnIrIaq7eEMkgP6yPv4hkpJ/WR8cEuylhpxyIq6Tuehv9PCcQSWzHie+cErP/sCr35vjG0Bfozjt6ySb79x+iXrfafLa96YPrMgKMACOQ0xEIGJHUTc9In6NyPv4Xf5x6rv7YKW66zyEqDdr6I80+tcWuvm46R0LyJovfpLiURLs6zi48JZJoP6pOP7q1VCPZFeZ9+9rPCNpJJR2ia9OXNz6kLrOMSGKAEr+JZMq1I+VYcvtCEWChaxthvi05TSQkT09efWnKETr/2mZjbjjRNZK4Rk5CbBmoB87ruRvh0+iQkFz0LxOSi8TkEGioECwDUmkWzKXQXRVlHsQLb2+zu50tRFLksAwXaV/wTEqskqOre/rRGyKJdpldH38RSWDuj/XRsbDLwSiCZax2TdLrm89zApHEnPSAG7z8nO6/wsjXqc8Z+75HPFqVzjxun6xfr4PzMmVK0dzZv8hi7G7TrHlXQk5JFkaAEWAEriUEAkYkC4cUpHVt3nLA0pW5WlWGbyJ8FJVgG0T4SgbnDSIE2fQqadOO4P5XYgedDy120AkRdXuUyKin+vqwzt3qlF7abvsRUAWX01Ikab0qfhQg5QsUpYUth6jbBDL5tRgvDqmLoirQU5U6GPdwklWmbfSNLftK/JKRUPnq+csU991e4euXQKFC2xIuNJGKRGKLxGMiTx5MeLqYiSTuQcMUP0lskZiQSmE9ysjt4VSbiz8doAsj7bevxD1so1hk5I2qGmHrPtRFIFBaciqFiN1D8t1Y2LazjSBzVuTN30QSeIBgSwnJQ3kLh1JQZKihWVWTBTlIWm6fCQBb5+lbEaIutmeEORSCXVD01EUoSzmaQIkLT+JUSmbXx19EEpPxx/rYnsr2Kcnpmq5Gknq8NGAXImBA6S8QiSJHqLPdaDJLJP2xPniSoFIFqLTw8TX22RZ/J5emHyP4TMotEmtGyBypCM7yNLpfN29/Me47+mLc9zbQ+JMRYAQYgWsEgYARSeA3ufHT1KRwJTsoGy0eSrFXXL+1w8fyF9FW7cdt14F2gZ1v7t0wji6lJGulttOokDBC8nNvpZUwuyMYSMnjFdvSS9W6q0uHI/bdVnkvs5JIYuDCr9WhQvfY4+kwIVFgNkerOjqRRFJug3iqCtoRJOGU2Jda13pqt8lsLtbvmc+zg0iaxzRfg/xAK3rpz8PmWzIIA8EY3oiVr19m1sefRBLPkdn1MWOBHYZ0za75vrOk8qiXWSKJIBl/rA/mEtatjHwJyhOSF5dOxVMi2btXFxrxju1l8+TJ09Sh0x1O++QbjAAjwAjkRgQCSiR7C7PwR8I8rGTl+T10/4av1KXLI3wU36t1F3VP37vbXPnLAwvp430imCRde2i+7y8iiX6hBYWZW/lkqrE2xBykV3b8SvNuHiyLvMlnqfrw9ligQykq+kFDSxIIDeSZx9bIXJNW/epEMn7ifsojdoCRkazpO9GoNtDYnX1amKvd7EsNk2exzxpTUEnrBOUgb8lrzlL8D/sJic11gXYVWjyIlZYQ5e7ySGIXH+zmYynCLA9NYuq5ZLmLSvyEfZbmd7Q1a/As+zMVWhFJVPF1fYp/L/JFNikqRznaaJbhd6oHzxwTASJKy1xsdGMq0LGUrG/l64obmVkf2bHpA0FFUS/XpuByYZSngHBt0L43yBGKXKFWYkckxTaZcJfwRvy5PhgXQWnFPmtC+RoUsZwGNNvQQFslybdqsHL5DIqICJe3Hn7kOVq71jqtllVbLmMEGAFGIKcjEFAi6Q9wgvMEiaCdElQ7vIz0T/w3/hghHY8zAumPMa36QB7MygWjCbvzxAmN6mqx7/ZFYeIOlASVyC+2yCsqtgAMoyu74il503mDZDibk5lIIs8ggmtAYELrRUl/seR15wwS46wfczk0m6E1oyi4SiHKK/bYhpkQWsgre+Ls/C/N7a7la1/WJ6vw4PVxgqxwuwipEi5faPBSBfeIy7tijV2CnLRyKO7cqQ19NMrmxnPo8FHq3uNehzpcwAgwAoxAbkUg1xPJ3Ap8Tpy3FZHMifPkOTECuQ0B3Vfy0ceep1WrN+S2R+D5MgKMACNgiQATSUtYrs9CJpLX57rzU2c9Atjppt/dfeRACxctp5Ur12X9oDwCI8AIMALZgAATyWwAObcMwUQyt6wUz5MRYAQYAUaAEcgZCDCRzBnrkCNmwUQyRywDT4IRYAQYAUaAEcg1CDCRzDVLlfUTRcRt+AOV5UCIpI75YEfWD8ojMAKMACPACDACjECuRYCJZK5dOp44I8AIMAKMACPACDACgUWAiWRg8efRGQFGgBFgBBgBRoARyLUIMJHMtUvHE2cEGAFGgBFgBBgBRiCwCDCRDCz+PDojwAgwAowAI8AIMAK5FgEmkrl26XjijAAjwAgwAowAI8AIBBYBJpKBxZ9HZwQYAUaAEWAEGAFGINcikC1EsnjxaAlQfHw8JSYGbv/pXLtKPHFGgBFgBBgBRoARYARyIAJMJHPgovCUGAFGgBFgBBgBRoARyA0IMJHMDavEc2QEGAFGgBFgBBgBRiAHIsBEMgcuCk+JEWAEGAFGgBFgBBiB3IAAE8ncsEo8R0aAEWAEGAFGgBFgBHIgAkwkc+Ci8JQYAUaAEWAEGAFGgBHIDQgwkcwNq8RzZAQYAUaAEWAEGAFGIAciwEQyBy4KT4kRYAQYAUaAEWAEGIHcgAATySxYpbASJQn/Q2L37aErly5lwSjcpa8I8Pr4ipz7dhGVqlBoeDilpaXRuW1b3DfgGk4RqFYijEpEhMr7u08m0On4y07renOjYL4galA+XDaJTUyhbUcvetOc62YxArw+WQdwmcL5qFKxAnKAw+eT6PA5zmvtD7SvSyKZNySUqve7j/IEBVtiePHYUfEjuJkunThued9dYbffZxhEct3IYXRozgx3Tfh+NiIQiPUp1bwlFa5Ry6un3PfXb5QcG+NVm0BXvn3JOqI8eeQ0/mjVONDT8Wn8RlEVqVFUJaoUFk0VworS2csXae/FU7Tg7A7aEXfMpz59abTgpQZUoWh+2fSFX/fS1E1nfOnGoc0dTYrTu7dVkeW7BEHtPpoJvwNIASwI1Pr0bhBN4fmDPH7ylNQ0+mXtKY/r54SKX95fnTrUKiKn8u2y4/TuzEM5YVq5fg7XJZEsWLoMdf1lqtvFu5qSQofmzqTNn35IqUmev7nYEZURb4g+Zrkd61qtUOexpyn6xkby8bZ+PprO7dga8EcNxPp0/ukvCi9X3qtnXzzwETq7dbNXbbyt7O/18ZVIFoguTje99Z6cfvzhg7T+veHePkqm6/cu1ZCeqdxJkMdiTvv65/R2enH7ZEpITXZax183do28iYLy2kh5y3c30MlY/2gkP7ijKvVtZNtt7Pf1p2nIH/v8NeVc2c9LXctT1egwOfc3p+73G86+ghGI9QkJykP/jbjJqyknXrlKdYeu8aqNL5X9uT7LhjSiUpE2Lf/jE3fSgn8veDwl/C2OufcGChIvyvFJKfTib3s9bnutV2Qi6cEKX46LpRl9utLVK579Qx4IouLBYwSkSqcffiWYOyHbvhpDu376ISDz0AcNxPrkVCLp7/XxlUhGVROagm9/ksuUkphAUzq30pcsW873dhzl0ThzTm+lgVsmelTX10rlhSZyodBIQq4IzU/N11b72pVDuznP30hVi9vMe4N/30t/bvCPptNhoFxSoBP2FiM2+M2FwNfHD8T6NK4YTr88UcerKW8/doluHZP1igF/rs/ud5tT+rsZNXxrHcUJ1w5PpW7ZQvT3wLqy+qXkVKr/5lpPm17z9ZhIiiWGxjDh1Am52CEFC1FYyVJUvEFjCg6zvaXixplN62nJs0/IOu4+avR/mCKrVCVKI9ry2ShKunDeXZNr9r6/iYo/gArE+uhEMuncWTq+fInbR/l3wldZ/t3x9/o0HvImBeXLR5djY2nTJ++7fUZVIScRyZXn99DPR1fRpphD4k84jbqVqE8Plr+FyhawmcQw5z5rPqVtcUfU9P1+1M2b+84kUueP/KeZ7lq3KMH/EjJp1Uk6f+mK3+efWzrMSsLuKwaBWJ+n2pWh5zvZLCZ4cRm3yL0Lx4aDcbRib6yvj+lRO3+uDzxuHmpZigrlC6bEy6n09VLvXNceaVWaXulWQc570+F4uuOL7R49w/VQiYmkWOV/HriL4g44mnc6fPszRVW7QX4P0lJT6c+2za6H74Rfn9HfRMWvk8vGznQi6c1LSVZPMaesT04gkj80epzG7v+H1l044AB7VEgYrWj1BuXLa/Orfmvn3/TjkRUO9fxV8L4wP9+Wbn6esvEMm9H8Baypn9sbF6f3brdZTPaeTqQuH/uPsJuGytGX3z5Uk1pXj5JzRPBVn7HbcsR8c9L6fNG/OnWqbXuZ/G75CRox42COwCgnTIKJpFgFZ0SyeOOm1OrjL4x1mn1XL8sAnLzBwYQAHitJTU6itKtXrW5ZluUvXIRKNGtBxeo3oNTkZKkJPb1+jcvI74IlSxP09VevXKErFy9ShS49qEjNWnRs2WI6sWKpHD9fVGGq2L0XhZevSKfWraajC+e5nVdQ/vxUvFFT8X8TCgkrSGe3bKKTq1e41JLB1y1vSIjxbLeMGkOFytredPeK4JE9v/1k3FMniadPEfxRrSS4QBjlK1xY3kpJSKDkGJtPS5FadahUi1ZUqExZgobvrAiOOrZkoVUX5M/1UQPgOYFN0Tr1ZP9xB/bT6Y1rKWbPblXF7ugPIglteWhkpOz3Snw8XY6Pk+fAonyHLpQ3NJTObFxPJ1YtJ5iHrcTf64PvPfC1EmdzQF19XXEdWbkqtRj5EU6lC8nc/nfIc/0jNTHR7ruHsQtE23z96GoaXTrpWsOg108RmRS8DWSa0uw5qhNRVk7pu0NLacTuafr0/Hqumzdf+2s//SqCGsoWyUftaxah0lGhtPXIRVq9P47OXXStTSwQkpciClivT0xCCiWneP5vEx4wv+ivfc3CVEWYxsPzBxOCdbYfu0g7T1h/39CmaKEQChb/PiUILVCS8Ku75YYoalY5gpbtjhUarRgR4U8UFhpE7US/NUqF0e/rTtMhD6JpEd18U5UIuqlypNAwXaXNR+Jp3YE44b+WimEtRc1F3XytR0XqVq+ovFy6O8bBXxRzcxUtj+AUzB2CeqgPaV4lkuqWLUjFRdT9kfPJtGZ/rCVG/l4f2+hEJYUf4E1iDrVLF6QzYl7Qam84GE9YcytZ9Vpjig63/bv948qT9Na0A1bVXJbBh7CYWGvIRWH6hfkXgu9t1zpFKTIsmJB9YO72806/d/5cH3zvga+VnIpz76amMiao9n8Js7Yqe3v6QZqz7Zy6JY/4W9Lxxd9KZPrfHr77rr6X6ED/LiGbAv5WcoswkRQr5YxIFq1bn9p+/q2xlgufeJDO/+uozu7+12wqUCz9B82obTvxNGobBLLNF98KYlTO1IPt8symDbTsxUGWfpq3LVojItCD5L2rV1LsTPKIPF834k1qM2a8EU2LHpGWaP6Aey3JZEjBgtTqk3FOo4xj9uyiJc88Zklu+/yznEBAvZHlLz8rCapVm1oPPUb4H4I5L3z8Aer4/S8GOdXbgGjOe7gfXTp+TC8mf6yP6rBMq3bU5PW3KDi/zcdMlasjSO2Wzz+hI/PnqiJ59AeRhNm4Yteesr+Tq1fS0SXzqdGLr8m11wdLvXyZlj3/lGWgjr/X5/al6/Wh7c5dRW3r62rXyMVFwskTNOtO2/OjWkTFytRp4m9Gi3/uv5PiDu43rs0njQYPpUrde8tikMjpPTuYqzi9DskbRJvbjjA0ks9tm0QzTmad9gqBDwiAgDz6/U768M6qFCV+iHUR3JlGCq3I9ytsbjn6PXWuB26oMnX0NtDmnb6V6c4mJQwfM9UPjntOJdDjE3dZplNRfmn4oQXh059j46F4+mz+UZrwcE27fl3NDT/mqF+9ZIbrkZpLqgAFmqKJggxZiY6r1X2rMkS1gzBbyczn6hvzeP6XPYTx3+lbxTL6GQTq6Um77Lrx5/rAdPtGz0p0d7MSxnfHbjBxAaI9bOoBu+cBAYQfopJBP+2m2SaSpO65OvaoX4xG96smqwCvV0QQ1/cDahpkSrVFkM6A7/6jteJFyCz+XB89sMY8jrtAm5qCgE9/pp65mctrsy+z7p7y3/FL1POzrU7bg3RueLMJ5Qu2EV/8Tb8jyGpuESaSYqWcEcl2X/0gNHu1bWspXjVh2rbSLvaY+g+BCFrJOg+itkFYW4/+0k6TZ9UXNFDzHrybEs+ctrutiKRdoQcXVnMr3rAJ3fzBpxQktFuuJCUpUc7FTNp8IiovPUMn16y0HE4nHCCSiJ4vUruuZV0Uwo8VpmNdMrs+qi9oV0s0ba4unR5jdu+k+Y/cZ3ff30QSpErmKk1PtWM3mLiAK8aUrq0dsg34e30CSSTxzD3+nkP5ixaTj39s6SJa9fpL8tzq49Y5S42XrP1T/6SNH71rVc2ybGz9+6lL8YwflmZLhtE5kRYoK6R4eCitfK2R0TV+oBSpNAq1kyd/3EXzdlj7YeuaTa2JPAWhgI+kOwHRgOmzZTWbNtxZfRDFxiKAAURBSaVi+Wnei7agIVXmyRGErLaICEaKGV16NyhGIF+Ykyv5Uvj4jZp72K5K6ah8tPSVhnZlnlxUf3W1JIhWdXe808z48Z+59Rx1T9duWtW1Mp37Y30wFvIjTnq0FpUr4v4lfujf+2nymlPGFPUgEhTe9M56OutG02001k7eurUy3XtTCVlyQmQYAOF3tkzQ0DUS3xV8t5X4c33wz+KukRmBNWoMdXQXVPXgzaXo9Z4VVXWPjkdEXsq2H2wy6iJ1F1J4QdxFuA/rXYnua15S1sXfUZPh66UGXxbkgg8mkmKRtn/9hQi2sf2DGhoRIc2/5dp1pNCIjH84D86a5jQlCbRUERUrGctd84EBghTaiJgVWTMqpp90+226DPBR5UcXzRNm2kXSVFmxWy+RPifjH79Twsy97PmnVVV51IkkNKZ7/phM9Qc+T/mL2Ew2qARNzYYPR1CdR56kaBFIBIGJe9kLA+U5PvLkzUu95yzJ0LYJ8nx43mw6uniBNJuXvqUNVe7Zx9Bsxu7fK8mk0YE4KdeuE4WIhNRKQATVPI4LMztM47qkCZP2wdnTLQk66ulEUtqN0olTgjCHnxephOIPHxLrVUGYmZuJ9YqwJJKZXR/Mo+b9A6i2wE4JCO3+GX9LUzLM8nBFKN++s1xHd0QS5HvvX7+qriyPeFk4umi+3T1dI6lugFwfmDmVroiXjEo9+1KxejeqW7T3j19oswj20sXf61Pt9n4GOcM4OkauNJJIwVWiSYYWBAFuNe59UE4VLhrmeePGhZ3/0oVd/8k66kNfF2RV+Kt9C3XL7ogXpFajxxll03t1NNwkjEInJ69V700PiWAbJe/tnkHfHFqsLv1+7HVjMfr4bptmR3V+WpjiJq0+SQv/u0D1y4XT8FsrGWQK5u1m4sffSmBi1TWAn95zg/Hj7krTpvoKFlrRP56qS3XKFFRFNP/f8zRjyzmRJidZpBEqLrSUxY17Zk3i3U1LCA1dZXkfGtQ3p+ynEzGX6asHqhvzx833Zx2if4XW5ssHahjmyP5f/0ur9sUafeNZfhRkScmZ+Cv06bwjtEX49CGlywudyxvaQYzV7sONdFSYlZUUEqZwmNWVwPwL0zYExPW5yXvkuf4BwrNkV4xeZJzDDLvmddu/pUahOEGbxTtjaKuYF8ZsXjWSGlUIJytf18yuD8aF6XiBIOs6uV6+R7gN7ImR7g8gdHAB6C+ICup0HLWJDpxNMqasB5GAxNR+fY1xz5uTaUKDV0to8nSZvuUszd12XpraQZQqihcLJXeO207QSCvx5/rgZ6KLMKcrwbj4fkDMmkNVRz+CBOrPgheELiJIDQLC+MFs+5cUlB+9kOyQ3F+POMffqJUrCl4cl7/ayPi7hCbSlZUBY+U0YSLpZkWggdzx7Ze088cJbmpm3PYmvQwSVd/8/mij8aaP36N9U/4wrnHS+JU3CIRSiiB3MO8p4osynUjOvlP4cZ48ToWr16T2X/9oayM+YcaGSRo+ct3/nCXLQVZm3tbNqNPwxVepcq++8hrPveDR/rKNUUGcyH7HTzTI5KqhLzv1TUS7zAZz2BHJ9In898M3ck3SL41D9X7306F/ZkmfSaPQ4sSb9UFz+Cb2nD7f8AW8ePSwxMZqxyIZES78/da89ardyLpG0u6GkwtE+s/o3cnurplIwhdyxeDn7Oq0+/J7gs8kBGR71u3d7e6bLzK7Pub+sjv9DzTntwp3CrwEQda+8wYdFt8Bs7T+9EvjBQqBdbBCeCIvVO1KT1Zqb1RFNPcb//1pXGfFydt9KlM/YZ5UAu0Ofvx1nyk9CAH16r2x1q0Go0jBEFo71EZ8QLSqv7rK8OlTY5mPj7UuTS93rWAUD/lzn/RhNArEybsiWOUOEbQCgW8XNE1KRgmT/K0NbW4/8CkbKMymEJgNYT6EwDfx4Qm2F4SfHqst/SdRfvsX22mziI6FgNCCtCmfM2j/npu822H+c1+4kapEF5Bt3AVEQLv50V02wn5QEKsOAmNvBNHVyCuoyywxr5dFSiV9rXAfhPGyIGkbNOKkt8O5L+uDdlMG1TOIPtb1CZEfES8cZgHxBXGGCV4XPUk32h+7kEEy9Xrq/LAg5w9886+6NI7b3m5mvASgn/5f7xC+oXHGffgAbhrW1Lh+Xfj+ukpontn1MQYSJ3eJF5oR6S80Vpphva7V+WfiBUz50nrjQ6pvKuDMZQBuGq3SX3Dwwthi5AarKeToMiaSbpZHap6m/UVbxn7spmbGbW+Iim4+TxbkYbqJPKBXBDP0mbfC8IWDBmrD+28bAyoiCfL3Z5uMP1TD7CjI5x+tm2TUX7xW/vBejoujaT3aOZSjAFpaZ+T5prfepbJtO8p27iKQM0tUzETy9Pq1tFT4/2VGvFkfjNPo5depUo9bbUMKLGcKcmZ2L3A3H38TSaw1fPxUwI0av3TL1kbQiif5GDO7PmpcdcxuIolxdZIIDe28h/qp6cij+e/HEysBGrYpVpO+aTDA6GuyIJFDs5hEYjBdswMN0c3ih0V34kcdaJZ0v7bbPt9GW0QAjivpXKcIfX5fdVkF5PQWkeTclUCrs1n88COoBTJ2wVEaLTSAZkEqodn/qy+LQSBuGLLKqKITO50YzhcaNKWd0jWPOinCc6ugCGg1od2EuPI308ndaqHNvE9oNZ2J3ue0zWcdCJazdqp8aM+K9IAwgSqZs10Q5Uk2oqzKvDl6uz7oW2+D67uEls8VWUUdsywZ3FCaxs3lzq4RWNXj0y12t6H1Xv9Gxm8M0gd9ZHItQINFLzcwzO8gtMDdmWR2ffR+4WPcJ/2F5i+RNxVk3xvR5+2MEFr1B59R+I5C4EYCdxJdzG4F9463J9963Zx8zkRSrA4CFxLPnZHrFCJyR4aVKEURlatkmHjFndMb19HS5zJMm64W1Ruiovt4WZki1TitP/1KaFQayUvsdoJdT5QoIgmT4F/tM3z4bksnjObURX0XrpbkFCT5704tZTfYdQVkR8mmTz4QkdS2iNA86eZkeU+cQyupiJWV5kz1gWNmiYqZSEKD6i2J0+eDc2/WB/Wh2cUzQ9wRZ1nJ4kMnknhhgIuCK4k/dJD+m5gR6IW6ukbSHHii+tI1zuYXC1VHP2Z2ffS+cB4IIglzfpux39imIoj+tB7t7Qg2zO/1n3lB3ndl/rZ1YPssEBRK69sMN4Jr5okdbZ7c8r1eJcvOdc0OfNng02YlutkMGj1o9lwJtFHIoweBefoJERzjSvRgAZh+6wifRd2nTbVFoMB2oY1S0vTt9UZuShU8AYKpa0CVbyHKkWwd/UO2vGUjrriGbyIEGkYQUiXIqYkoZCvRSS1MjW3e32hVTZbpWlGz36DTRtqNP5+uK9wMCskSaGLhW2iFj9bE5am364POFF44hwkeQSzeCP5pd+VLaNUXouqhmdalo0iLM06kx4Fg7WoJ87haU70eNJJqG8ZeIvgE7gzOJLPro/er+6JaadX1ulbn+t+aMxO1VTv4jMJ3FGL1AqS/aCEQqt9XO6y6yfFlTCTFElkF28BUBlOvIkxYSWjCoBFzJ94QlT7zVxqBLevfH04HZ06z7F43OyMSG6mIlCgiqRND3FPl5h9PNSZ8+/5qZ/NTQ2qgxoPfUF16fDSTVHPDzBIVnUian888lqfX3qwP+uwpgqnypQdT7Zz0HW0f/7mnQxn1dCLpKxnVieT5Hdto4ZMPGf3rJ8400XoddZ7Z9VH9qGMgiCTG7jVjgeHTvPvXSYTtOJV0mfy3kQ0B/ser3xyibjk9Yr/tX5sMlPdjriTQzUuHU/LVFKf1/XXDrNlp84G9n58ax7ylXav3NtLxmGR12/KoEx/4JLpLyKz/yLnS4uhBBRhYBafAB3G52JIOsl8Qv07pSdV1E64eoKATUl1j+kavSnR/i5KyH3zofpNGYfoJ+lbR3O7M1Tphd0VOzWOo663Dmxqpf+CrOUZobDMj3q4PNLrQ7CrpLHJg7hO5ML0RnXijHYg3CLi3opNgZ5pgfX3Rv/qeOBsrs+uj96teaFDW/sNNHqWXUu11nL31IUWarLliJymIOeBG157jPQrYu/sbVnPKaUcmkmJFrIikWig94tcqiELV04/eEBX9h3fxwEdFyhZrPx343tV51GbSRZqbKV1aGUMqwmg2ZfZdsIqQ0xHpYP7ukBGEoCJ3dSLZ4H+DqUqfO4w+PT3JTiLpic+fJ/P2Zn3Qn9Lg4nzN8NccUvug3J34m0hCi7785Wcsh70eiWTdJ58h+MhC9NQ+iOiG1l/JnH596OIxR/Osuq+O95drSW/UuFVeZseWiGpcXbMDsy7Mu1aiEwD8COnmZKv6KNO1V56YwpXWEG3NgREoU4JE1ojqhiBXXoNhtpft3g2ihQ9iVVmuB+Ho5tipm87QC7/azIx6MA18/B77Yads6yqNi6zg5AP+eTAVWolOZj3FT+8HgSGbhfZUibsoYFXP1dHb9dH9ZI8J8tfahfbV2bgIgEHEMETXAjur76xcJ8HIsfiDSF9jFn19sZsSNNfOJLPro/eLYKMVIpgF4ssz6v6VSGuEIDVvRKW/QhulrYdrCvyVlc8v0lUN9yF3pzfzyMq6TCQFuq6IZPO3P6AyrW1+hPoPlKtF8Yao6EQSuRnPbLY2xdS8/2EREWsjkgjymCpSuyjxB5G88dmXqOptd8kuQVQXPGb7UVZjODteuXTRZXBLZjVeukbSKkrc2bxclXuzPuhHJ5LOgjlcjYd7TCRdI5TZnW2Q+7T3rMVGEBjyjZ7/b4e0KqgAMmfuAFYze7ZKZxpU2eYHjB1ssJNNdognmh3MQycR5gAXq3kiaTY0aErcaYOQyBkaISWNh69z8NNU92Aux7wh+g+t7uOm7+mNtCpIrwLRAy6e7ViOBrUvK8s/mH2Ixi85Ls91syKCETw1H/8kotxVH7Ij7QMRvWPvswXKuDOBa82M0zbVC9M3D9WQ14gebz7COSkyGrk48XZ90NXI26oYEfOI0n7wW+f+oM6GRhS/SlnkToPrrA+U6yQY/pNWCeqf6VCOnulgW19srWgVsKPGyOz6qH5w1LMgINE9NJLeiB4w9psw679qMuu762ux8EEtK9IzQZR/5dPtytL/OpWTZdBUIm0WtJ25VZhIipVzRSTrPj6Iqt/7gFxfsw+is0X3hqgo7SD6QgANAmmsRA/4cGbazoxGskLnbtTkteFyaE+f02qe5jK/EkmLQArzeJ5ce7M+6K/HlLlGCqNdP/1A274a48kwdnWYSNrB4XCRWSKJDvWIdeQlXS7yk/aetYhCCoXL8WDuhtnbEwkUkfz9qTrUoLxtvtjNBrvaWImuAUJwBYIsXEnLalEyOTTqeEJ8bhRz+EPMBeJOY4dAG2hIIXqKG93HTTeZ6nPXU9H88EgtulmkyoEojak5qMgdAZaNPfjQA2X0aHIPmsoqL3YpT0+0KSPPF++6QI98Z9OeetreXM/b9UF7PSjLXYS6eTx1rUcVzxCpeqxSIKm6zo66dhbfFd0XVm/z/YBaRi5SuAHAHcCZZHZ99H71/JaI9n/2Z+8ConQXjxd/2yu/43r/7s7Hish+lToIATej5hyWycfx3Yb44rPpbszsvs9EUiDuikjqqXfcmXHV4nlDVPRdV5D2B+l/rAQ77CBxOQRaS2gvlfhDI4m8fl1/ySCxCMKBT2JmRSeSO74Z5xBA4q5/O41kgIikTlDObdtCi54e4G7aDvdzA5H0ZX3MD6pr2F3lkTS304mkr76wJcXWoi0//Ex2DbcN7O7T+rPx8hp/u393vNnpVpzm+VQvVIrqRdo0BltiD9PuiyfNVbLkWtfsfLvsOL0785DDONj6baPYBUOJHvWsyszH5zuVp6fa2YjPcpFf8MFvXQdl6OZnV35h5oTjOjFUPm5mc6J6RjNBhakPJk2IIoxmIllXBPzoCc/Nz+nptU5mfcnbN/nx2tSkUoQcDtHJiFLOjHi7PhhLJ+rOvivu5qRrez1NUG/uU3dtcOWOgfRNSEEEcfedzez66HPUMwHAfOxs1yO9jX6u+1d64oust8W5ntwcwUXYJlKlxNJ9hM3trK5btWpOHdrdYtxKozT6bMw3dO7cBaMsECdMJAXqrogkci4iEhaCVCvTumeky5GFFh/eEMl2474zdmpx1j+Sm/eZl5Erb79IR7Rx1EhjZH8QSXSm+sH5oTkzCNs7Zlb0aHMEEiGgyBvJCUTS7D/qqZ+d/pw5lUhmdn30Z8S5r0QSuTp7z14su/Mk2lxWtPjoPXuJyPtpy08IFxB17o+0URbD+bUIaXZAspToZmJVhqOeZ9LVD7feBrueYO9liCeBIXqQANooYodzXfR+N4mcj3eI3I8QPWhIN5nq2iv9RxR5IneKbSEh5gTrelCLJ9HpshM3H0hVoxK1u/L/dNYNtrNT/m2+pNwx96vj6Mn6oL2eWsZZgIt5HP3aHCTlSYJ6vb0617Wzum+ruo+j+YUAGQDMuTb1+pldH70v9UKDMm+fUX9pM7/46GO4Osf+8TOetSmBzPX6jN3mkMTcXEe/HvXBm9Sliz0HGfnup/Tz5L/0atl+zkRSQG5FJLHlYZOhb1OJxhl+QkcW/OOQaNpqxbwhksUbN6VWH39hdLPjmy+E1m6CcY2TFiNGEXaVkSLSm8zo29XOL1ERwMyYttG37ieJH/MVr/zPYSca2yRI7qACs//WLz8jaOmcib6/8eW4WMKOIujbU8kJRBJ7h/eeKXYaEoFLEKQfWiC2QETqI7PUHvAEFSxVWibG1u/lVCKZ2fXRnxHnvhJJtFXpqnCOFyW8MHkrDZ5/harcertDs4VPPEjY9clTQSLyhyvY/JCnnNhAr/37u6dNfa6HpMRITqwEP1y1X19t5xOoO/6jHkzfMIG7E13bd48IQLHa51jvw/zDbxXlrefmQ1tljsa5rtHUczTqvoVI3v1MupkRO7/8+qTNlG7WmOqpW2CWb/XeBjtMMB4Ec0bOvnY1C7s1X+qBRCNnHqQJyxyDQ2y9On5iP2S0V1JDpC8yb+Wo7nl69HZ90O/jrcvQS13LG0M4I0m1xa5E7wl/ykdF8NJJkT9UiZ7eyZVJWtV3dtS1s7pvq14faZKgZYToAVl6Hf08M+uj92Mmgs7M7nob/dycegpJ6/Fi5I04S7Hki0sEE0mBfHx8PCUmercI3iyYp3XNZtzEs2fkFoBoD7IQUqgQBefLbzjuoxx+g3Pu6WO3owzKq91xj0gNUxinhlTte5exbRyia2P27jLu4QT7/Oo70+jpSXAfOQZPrlwu51KuQxeKqmZzCsc9q91M/EUkkfKolyBMSouD8c5t3yrJJAJdgBvyKRYX5FrtLb7qdbGzzdKFqGop2Jsae1QrgZYIxDPx7GmDUCLxuY6HqotjZomkP9YH86h25z1y20mcQ/B9OLJwHp3dvIGuCrNp0Tr1CLsUQXttFd2vE0lsx5EU494UsX38WLt0UHr6H39Fbfu6PiDX2J7QLDXuy0hJhFRJulwV2QOQG9PZiwRcK/AdUwIc4w4doJTERFkUJ76De//6Td22POaLjKKe0+bZ/e3iBQa5Jb2Rd2vdSXeUsWkH55zaSgO3TvSmuU91X+ws/O7aZjw/OoHWDj5V0J51EgEiyocQ96y0PzANY0cQs6hgGJR/KLZ3u5ya8TKHH/Y/1p82N6HfBLFrKAieEpgEMWat0mEigCGaoGlRYk7GrQcNYVvEn1bbyC6IDwgQRI/ufVI8t9rCzqyR09OkoB22IIQpedvRS3JbuZqlClLdcgWpfc0ick9yT3YH0ZNwI3hntth157iIfL4CRiVk8c4LThO8N60cQT+LHXgg7qKPZSXtw5/rA+3uGuEOAGILwdS/X36CVuyNEbjkISS7xv7oag3NhBd7lvdtFG3MDt81d4K8puYAJl07qyed1/vSd0jyxKfXl/XBlobNxNroUlWk38HLFwT4vCteGnTZcyqR8OLiTMxptrDe/4h97c9fTKFU8e84BDvdoNyVmDMPYC4tRICWt3uaM5EUKOdUIunqC4B7iGJe/vKzlql59GAZd/2o++Y8dyBnbcZ8TfhxdiVIZA3tabKJhPiLSGJsbK93y0ef25FJV3NyRyTRtsM3kyjqhhpOuwG25j24VeXMEkl/rI+aS7NhI+Ve4ura2dEtkXTW0FRu3sEoK4gkhvRlffTE56Zpu7ycP+Aese2mtbN70dr1qO24CU7bexp13fG7yRRZpZrRj6tE/0Yl00kgiKS+PSD8ABE57Ux0bZ5eR0+AmXiQeQAACsxJREFUrJe7OsePmlX6oPJiv2HkKUyPCXDaBfZLRiJlPQG17uOm5zfUtVd6dC8ioKGthFhpTPV2TieSfsMTTc+jrUrT4G4VnHblKngFkeWIMIcgpyX8/TwVf64PxtS1iq7mYEV4dU2vq7b6PbMvpqe5IceLPdShKYYgfyk03K7El/XRv0Ou+tbvOXMf0eu4++7hu49k4q5E34YS9TzBwKq/8V+OohYtMvyjUef1oe/RlKmzrapnW9l1adoOK1FS7m7iDGU45sNMnHThAu39/WeHva/1drfOWWpoH/VyV+dmIom68BFrM/Zrux9AvY8TK5fRyldfsNTmKCJ55WI8Te3W1mimEo+bTd5qzuZE5aohNJPN3hxJZdsILQ708haCVEgnViylrV98StD4uBNEhdd6+Amxa1BJY19k1cZV/kydSF7Y+a/HaYlU3+pZ1bUnR6v1Ue2iGzQmpIQKjbB/81X3kaNwy9hPJDaqDMfOk/6g8PIV9SK352Yi2fCFIVS5922y3bGli2jV6y9Z9uFNHknVgbfrkxVEEnOJqFiZmrw6jMIrVKQgYRVQe2jjHvY4n3NPX5y6lBvu7k/1nnrWVkdoDeBOge+rN/JOzdvp7rI2n72pJzbSC9t/9qa5T3VXilx3xUXOOwjyH2KPa7VziuoQZG2C0Do5+yF+V5gwQS68Ed1X0dwOWscJIkekmpd+/1JyKn06/4ilWViZas0kddVrjSk6PERqh3Qzo74FHXa6Maf4wT9Dj4so6f8JAgcTtpUgDRK0ReMXH6MDHpgfsZ85NGUlI/NJTabeJ3b9we4/VoJtJmG6hzjbNtKqHcr8vT7oE1q40f1ukLji2ixIeQOtNrSuuui+p3q5q3Pk9oRWWom+xZ/Zt1XVwVHfEvPR73fSIqHxdSfero+eZsdd3+q+q8wIqg40vkjXc3vjaCoWHurwYmX1fVVt1VGPQsffTSORTssXd4jlS6dTVFTGb0+SCIhtelNXuuqFu5iakz+P1yWR9CeA/u4rKDSUohs2kdshInr19IZ1wry8xZJA+ntsq/6wdSLmU6BYtDTnxh08QOd2bLXz0bRqd62XBRcIo2L1G1CU0HwFi+COeGGCRTS9MxP9tY5HTno+aDWh3YRY7b2dk+bqbi4whcI8iWhX+GbBDGcmWe76yOx9kLjKYptCkNrw/MHStIw8gduOXsxs1163R1AOzJU1hDkbwS4pwkR/6Fyy3Dknt+4K4jUIThogV2F1QfxLipeRUEF+DpxJov9OXDL2K3fSjIuzGAGYx2H+R65QiLs9xp1Np1ChgrR65Sy722PGfktfjc96txu7QS0umEhagMJFjAAjkDsRMPtIrhn2qvBl/Sd3PgzPmhFgBHI9AnqWBewRj+04fZG77uxNQ19/3miakJAotJFdjOtAnjCRDCT6PDYjwAj4DQGYwdsinVZNWyBESlIiTemUkXPNbwNxR4wAI8AIeICAOctC10+20J5TCR60dKzy9fiPqflNtq0ecfeDDz+niT+6Dj507CVrSphIZg2u3CsjwAhkAwKh4RGEIKiQsIJUuEYtyhNkMx9haKTRQjotFkaAEWAEsgMBpBt6s1dFKpQvmFoIlxQ9YA77jyNTga+yasVMCg8vJJvHx1+k5jd397Urv7djIul3SLlDRoARyC4EkLOz66/THIY7vXEdLX3uSYdyLmAEGAFGIKsQ6Fi7CI3rX92h+9/FHt3YCjEzMmP6JCok/PHTRADh6E/H09RpczLTnV/bMpH0K5zcGSPACGQnAnZEEvk5z4t8gCKbgL7zU3bOh8diBBiB6xcBPV8mthZFnsqfVp8kEMlrWZhIXsury8/GCDACjAAjwAgwAoxAFiLARDILweWuGQFGgBFgBBgBRoARuJYRYCJ5La8uPxsjwAgwAowAI8AIMAJZiAATySwEl7tmBBgBRoARYAQYAUbgWkaAieS1vLr8bIwAI8AIMAKMACPACGQhAkwksxBc7poRYAQYAUaAEWAEGIFrGYFsIZLXMoD8bIwAI8AIMAKMACPACFyvCDCRvF5Xnp+bEWAEGAFGgBFgBBiBTCLARDKTAHJzRoARYAQYAUaAEWAErlcEmEheryvPz80IMAKMACPACDACjEAmEWAimUkAuTkjwAgwAowAI8AIMALXKwJMJK/XlefnZgQYAUaAEWAEGAFGIJMIMJHMJIDcnBFgBBgBRoARYAQYgesVgYAQyZo1qtHw4YMl5tOmzaUfJ/2eY/DPmzcvPfxQP+rTpxtFRkRQWFgBCg4Oot9+n0bvjPgkx8yTJ8IIMAKMACPACDACjECgEQgIkcyXL5TWrJotCFowpaam0s239KSLFy8FGgs5/qIFf1F0dFGHuUyf/g8NeW2EQzkXMAKMACPACDACjAAjcL0iEBAiCbCHvPIs3XtPX4n7kiUr6elBQwK+BvfeexsNGfyMMY/Y2DjatWsfnT9/gWbMnEeLxTxZGAFGgBFgBBgBRoARYARsCASMSIaGhkitZEhIiJxJz9796cCBwwFdl8/HvEutW7eQczh2/CR17nJXQOfDgzMCjAAjwAgwAowAI5CTEQgYkQQo7783lLp36yDxWbp0FT018JWAYjVj+iSqWKGcnMPPk/+ike9+GtD58OCMACPACDACjAAjwAjkZAQCSiQrVSpP06f+KPGBr2SjJp0oJSUlYHj9M+c3Kl26hBz/k9Ff0bcTfg7YXHhgRoARYAQYAUaAEWAEcjoCASWSAGfxwr+pWLEiEqdPP/uavv5mUsAw04nke++PoUk//RGwufDAjAAjwAgwAowAI8AI5HQEAk4k3xr2Et3Wt4fEad++g9S7zwMBw4yJZMCg54EZAUaAEWAEGAFGIBciEHAi2UYEt4wVQS4QmLVvbNg+YDAykQwY9DwwI8AIMAKMACPACORCBAJOJBG9vXH9fAO62+8cQDt37jWus/Nk+dLpFBUVIYdk03Z2Is9jMQKMACPACDACjEBuRCDgRBKgITl5wYJhEr9RH31B3//wa7ZjieToG9fPI+xsA3nq6cG0dNnqbJ8HD8gIMAKMACPACDACjEBuQSBHEEl9NxkEuEAbmN0yfNjL1Ldvd2PYxk07U1JSknHNJ4wAI8AIMAKMACPACDAC9gjkCCI5Y9qPVLFieTmzuXMX0QsvDbOfZRZc9b/vDipRvBiVLlOS6tSuaaT9wVAzZ82nwa+8nQWjcpeMACPACDACjAAjwAhcOwjkCCL5+2/fUM0a1SSqK1aupcefeCnLEd62ZTHlyZPHbpyt2/6liT/+TnPmLLQr5wtGgBFgBBgBRoARYAQYAUcEcgSRnDXjZypfvoycHfa0fmXIO44z9XOJFZFMS0uj1as30MuDh9OFmFg/j8jdMQKMACPACDACjAAjcG0hkCOI5JJFU6ho0cIS2e++n0wfffxltqFco0ZVuufuvnb+kYHOZ5ltD88DMQKMACPACDACjAAjkAkEcgSRXL92LuXPn18+xoiRo2nyL39n4pF8azpo4AB6/LH7jcbtOtxGp0+fNa75hBFgBBgBRoARYAQYAUbAHoGAE8mIiHBauXyGMauOne+kEydOGdfZdYK0P5s2zKegoCA55MBBQ2jxkpXZNTyPwwgwAowAI8AIMAKMQK5DIOBEsk+fbvT2W4MlcEi3g7Q7gRLdxM4JyQO1CjwuI8AIMAKMACPACOQWBP4PAAD//5+FcSsAABmZSURBVO3deXgV13nH8VfsEgIkhBAgEDsYzGLMYrCxseM42E6TOIntOou3uE0fu+3TtP80ado06VPXS9I2CW6fxna9guPY4CXgtcY2YBuvLGLf90WAWCTQBoie98CMR6O5V7r4SjOj+z3PE+vemblzz/2cm4ffPXPOmayhw8efkRDLb/7zX+Xqqy+3NShdtVa++727Q6vNm68/J/36Fdn3v/+BWTJ7ztzQ6sIbI4AAAggggAACURfICjtIfvLRG5Kd3cU6/fgf7pUFC94MzYwgGRo9b4wAAggggAACMRQINUhOmzpRHnn4PyxbTU2NTJoyM1TCN157VoqL+9o6/HbWo/LwI0+HWh/eHAEEEEAAAQQQiLJAqEHysUd/LVOmTLA+L7zwivzs5w+GavX7Z/5Hxo4ZZesw74UF8s8//2Wo9eHNEUAAAQQQQACBKAuEFiQLCvLl3bdflKysLDl9+rTMuOoGOXq0IlSrf//VL2TmV660dTh2rEKumXmzVFVVh1on3hwBBBBAAAEEEIiqQGhB8r9m3SczZlxqXebMmSf3PfDb0I2uuGKa/PdD97v1qK+vl0Plh+V45QmZ88w8+cNzL7v7eIAAAggggAACCGS6QChBsrCwQN5+a57tjayurpFLpl0nGtqiUJ58YpZMvHhco6rMn/+m/OSn9zbazgYEEEAAAQQQQCBTBUIJkvn5efKX99xpzRcuXCxLP/wsUv6XXTpFbr7p61LYu0AKCnpKTk62zJ49V3738FORqieVQQABBBBAAAEEwhQIJUiG+YF5bwQQQAABBBBAAIH0CBAk0+PIWRBAAAEEEEAAgYwTIEhmXJPzgRFAAAEEEEAAgfQIECTT48hZEEAAAQQQQACBjBMgSGZck/OBEUAAAQQQQACB9AgQJNPjyFkQQAABBBBAAIGMEyBIZlyT84ERQAABBBBAAIH0CBAk0+PIWRBAAAEEEEAAgYwTIEhmXJPzgRFAAAEEEEAAgfQIECTT48hZEEAAAQQQQACBjBNolSDZu3ehha2srBS9tzYFAQQQQAABBBBAIP4CBMn4tyGfAAEEEEAAAQQQCEWAIBkKO2+KAAIIIIAAAgjEX4AgGf825BMggAACCCCAAAKhCBAkQ2HnTRFAAAEEEEAAgfgLECTj34Z8AgQQQAABBBBAIBQBgmQo7LwpAggggAACCCAQfwGCZPzbkE8QokD7Dp0lr/cQtwaH92+UM/Wn3ec8QAABBBBAoC0LECTbcuvy2VpcYNiEr0m3/GL7PkcPbJVtq9887/fMatdOcrr1tq8/WXtC6moqm3WuDh27SHvzPy0nzWvqCbLNcuMgBBBAAIEvLkCQbMIwv2ioOSLLHnX04Lbz6m3KNUGjY6dse44Tx/abgHC8iXdldxwEigZeJP2GTrVVrao8KBs/fVHOnKk/76r37DNCBo7+kn19+b71snPdu80613ATZvU7pmXTsj/K8aN7m/U6DkIAAQQQQOCLChAkkwjmFQ6WwWNn2iNO1VXLqvefEpMUkryi8a4OJkCOnX67u2PNB3Oa3dPkvogHkRPI6d5bRk76lq3XyboqWffhH+T0qdovVM+efUfKwFFX2XOcf5B82QTJfV+oHrwYAQQQQACB5goQJJNIjZp6i3TJybNH7NqwRA7tWZPk6OBdxcMvld4Dxtmdxw5tl62lrwcfyNbYCOi4yNHTviN6SVkvI6/78Nm0/DggSMbmK0BFEUAAAQTOCRAkE3wVcvP7yfAJX7d760+flNIlj5vL2qldtmzXvqOMu+JOycpqZ8+z/uPnpfp4eYJ3ZHNcBIZd9FXp1nOAre6GT1+QqooDaan6+QZJneyjP3i0r/zQ7tWmZ7QuLfXhJAgggAACCDQlQJBMIDRi4jela48iu3ff1k9k//bPEhyZeHOfQROl75DJ9gAdG7nxs5cSH8ye2AjkdCuU9h06iV7SrjlxJG31Pt8gmbYKcCIEEEAAAQRSFCBIBoBl5xbIBVNusnt08kTp4sdFeyVTKVnt2su4y+8Q7ZXUsmm5mQRxhEkQqRi2xLFZWVnSObuHZHcrkE7m76laEwarjtpexeZMlNGZ1dlde5rXnw2T1ZWHpOr4ITl9svnjIzWE5nQvMjO0e5kgetiOadRexOYGSf0Mcq6X22+U6tJDHTt3ldy8vqJ/Txwr+9zBvIfTk25dmhgb3Dmnh/k8hdKpSzcbrquNCZPK/K3DcwQQQKDtCRAkA9p0yLjrpEevgXbPgV2lsmfTBwFHJd9U2H+M9B8x3R6kQUXH0VHCE9AAqDOsnfGq/proWMdDu1fJ3q0fJxzCoL3L2sscVDSE6fjXUyerg3bbbRoAB1wwQwr6XtDomCP7N0nlkT1SMupKuy/ZZJsRE28wveV9Gp1DNzR31naHjtmiSxdl5/ZsdJ4d696xvfG9+o22+7av+T85Ural0XG6oUevQTJozDXSzvxw8hedoLZl5StSZcI2BQEEEECgbQoQJH3t2im7m1w47Xvu1lXvPSn6D2JKxQSGsZfdJjpjW8u2VW+ILh1ECUegi+lB1HGN2uvWVAlqbw1Jwy7+hnQ1M7WTFe213rTs5cDgpD3Uw5s4h4ZZJ5AlC5I6W1xnjQcVff+mZm3rd3zkpG/byUJB59Bt+lmc3vTtq02QPNA4SBYPmya9S8YnOoW7XZcx0s9DQQABBBBoewIESV+bao+Q02OkdynZsfZt3xFNP80vGiaDLvyyPVDH0a1+zywbRAlHwIR6/WHQqUuu+/46+76ifKe9pN2pS3cbEIsGXWxDXFCQ9K4XqSfR3kMNRqdN2MrN62N7Op3LwHqpet1Hz7nv5TzQnlCdwe+UQ3vWin6/TPUk36wf6fT+OfuTBUkNkZ3NJWSnaM+386OlOUFy6PjrpXtBifNy2Wd6YSvKd5lFzTtLkQmGzkQi54CgIJltLstfMPlG5xA7iWz/tk+ltrrS9nJqyHTqpJfG1TWVy//uiXmAAAIIIBBpAYKkp3n8az6uXfqM+YexwnNE8x7q0jA6Dk/LzvWLpHzvuua9kKPSLuANcBpoNq9YEDhWVZfy6T/yctm1YXGDwKM9hGM9Y10P7FwpezYvbVBP75qSumPzilek8vAu9xgNmXoOHRuppWz7MnsJ3T3APOg39BIpGjjB3ZQsSLoHnXvQcEHy5D2SOpZx9NTvuKfQS88aIt1iku2wi/7EvVuPbg+6tO29o49djN1MJPOOz1TPUZf8qRsmD+w0Q0Q2pz5ExK0XDxBAAAEEIilAkPQ0S/Ews+Zjydk1H7XHasvKVz17m/dQe3P0MqoWu2yQmajTnEkczTs7R6UqMP7KP3cvFx/YucKEmQ9TOoW3d1nbMdHEq6HjrzO9fGfH1Wow04DmFN2u+7WcPcdj5rtxytlt/7Zr38EsFfUDd4JLSwVJ7b3U8btadCkqXZLKX3TSzMjJ33Y3+4Okjq8ce/nt7v5E4zK944T1sv3Kdx9xX8MDBBBAAIG2IUCQPNeO/jUfN3wyN3CsW1PN7h2/tnfLR1K2Y3lTL2F/Cwn4e5g1BKZ69xnvEk46zlXHuwYVnZylk7S01JnLu2uWznEP8/aKVpTvMCHzNXef98EQcxelHuZuSlpaKkh618DcvfE9OWjWnQwq2oOqvYpa/EGyq5lxPmLSN+0+nW1euvgx+9j/H/3/1PgZd7mbVy7635RXP3BfzAMEEEAAgUgKECTPNYuOkes3ZIp9dsIsML3RLDSdavFe4kzWe5XqeTn+/AR0WRud4KLF3uLSjNNLtegtC3VZHi36o0B/HASVLl3z7aVc3efvffP2AiZbBaB4mJlVXnKRPX1LBUnvsAvtcdee96Ci4x91HKQWf5D09tLq8kfrzY+uRMXbI7z+4+dML+jhRIeyHQEEEEAghgIESdNoujTMuMvvdGep6ji6ysO7U25Ob29P0Fi6lE/IC76QgE5gGXDBFfYc5/vjQIOoBlItyXrw9LaJehcjp6xc9Kh7+do7uUUntuw3YySDirfnsqWCZMNgl/hOS94xkP4g2cf86Op77kdXsh5W/YwXXvp9d6KTLo+ktwmlIIAAAgi0HQGCpGnLXsUmcIw8Gzhqq4/J2qW/T7mF/ZMYVi0xywYlWVMw5TfgBSkLFPQbJSVm3UYtehtDvZ1hqiUdQXLIuGvteov63rpOpU62CSqtESR1HKYz6SfZ7R2TBUlv731TY4kbBsnXTJDcEfTR2YYAAgggEFMBgqSZpepd89Hf+9Lcdh104dWSXzTcHp5Kb1Jzz5/SceYzZflecKaJO5P4DrdP7R1UPDvO6OMUz+M/x9lT2DN5ztwyD3XRbl28W8upkzWyaskT9nEq//EuB1W2Y4W5tB08WSfZpW1d9kdDohYdk6g9m0HFuy5jKt+hVGZt6x2b9M5NWpKtbzpq6i32/t16nP//Ew0ubSeYsKOv0+LtAdVlkXR5JAoCCCCAQNsRyPggmd97qL0zhzapHUf3vlnzMcWwpAtdj7nsVvdbseaDOeb2cJXu89Z+cNFVP3Rn/zrvvX3tQrv+ofO8qb92CZie/Rscluq6mt5bTXpPFLRWo3d/uh7rZBGdNOIUDZIaKFMp3sk22pu2tTR4okyemSQz2EyW0eLv1fbOXvbP6PbWxTvzu6WCpNZR66ol0ZhPHeoxfsafud8hf5D0jgXWlQl0Ek1QaXy5n8k2QU5sQwABBOIskPFBUtfU08vSWnZtWCK6WHWqxTuZQseA6ViwMEs6gqT3kq7zWVINkv5lZJzztFaQ1PfTWcPOHVqS9QY6dfP/zTM/NAabWwA6RWco60xlf/EGb//l3m75xfZ2hM5rgmYv+2c4t1SQ1DvRaM+nFjvjesnjjX44eXsc9Th/kPQHdP+6mfoaLd738k9AOnsE/0UAAQQQiLtARgdJ7z/wds1H84/qmfr6lNpUe110TT3nzia6Lp+uzxdmIUh+ru+dcKNbt5rle44F3K5SlwoaYBYk37luUYMlgrR3buz0zxcT18XldZF5b8k1QVEvLztl0/L5ZtHzPc5T+3fM9NukY6cc+zgo0Hp/jOhBLRUkNbDaBdbP3Rvb/3m0d10vfztL/2hd/EFSt3knEOnl6g2fvthgaR89jy5I7ozHTNT7qeeiIIAAAgjEVyCjg+QIc89i5/7J+7Z+YmbTfpZyS/YdPFn6DJ5oX3fi2H7ZaO7wEXYhSDZsAW+vs+45UrZFjpVvl9qqY/ZWgzndC6XQjGHUHwNBvaWFA8ZK/+GXuSfVmcrle9fbZX669igSvfztlETL4Xgn/uixR8o22//pGNI8c0tNHWLhLYmCpK5XqT9evEW/f86dlHQcp38covaQei/p64xrnXntFD3e3iLRnDe/aKjbg+vsDwqSev/yUZfc7BxiL+eXbV8udbXH7dhKfQ8nROpSWDr5LNU1PN2T8wABBBBAILICGRskc8waeSPP3Sv4fNd8tLfPM7Ng9a+WRHf4aO3WJ0g2FO+c3d30oH3VHcLQcG/DZ0FBUnslh4673tyDuuGY0YavPHupeNOylwLXStSQqrO3vfe49r9ew57TE5goSOpYXO3tS6XsXP+uDb7OazS8luj6mOYe30HlZO0J26vu1DUoSOrrvONHg87jbNu+5i0bmp3n/EUAAQQQaDsCGRskvZfmki0SnaypvZMotFdHZ6VGoaQjSHqXf3E+U6pjJLNze5nLpDc6L3f/BoU1d2cLPdDwpMvWaPhxhiF430pDnH4PDpgePf1hEVR0zJ/eEzvo9dqjp4GpqV437204ve+h761DInQBdC1Bl791u3dBcX3enOIPks5r9PtbYNbazM7taTfpZLPKI7vtouu6HJYTJDebS/WVvkv1zjl0eIhO4HF6H53t+lfv8LOl9FXTQ3rEu5nHCCCAAAJtSCAjg6ReBtR/kJ1yPsFGg8mY6be7PUjJllJx3oe/0RDQsYpdzBI42vtXX3/KXuL2Xw5OVlPt4dSJRO06dJTqynKpNj8izph7STe3aBDVu8Zor7iGrBMVZSmPzW3uezXnOK2PBkHv5W+9bK2Xr7Ws+WC2WYXgeNJT6RhTNenUJVdqqo5al6ZCddITshMBBBBAIBYCGRkkB402az72ObvmY6q9bE6r6mXBgaO/ZJ+erKuS1e+ZZYMoCLQBAf8EsuXv/K7RzO428DH5CAgggAACaRDIyCCpi0x3OjfOTJf8qa2uSJlSJ2D0KCixrzu4Z23gTOCUT8oLEGgFAe097N5zgBw9sMVOGPK/pc5e71V8od2sl7T10jYFAQQQQACBIIGMDJJBEGxDIFMEnIXidSzoUTODXS+t6wL6HTvn2gk4OhPdKWs/fNZc+j/qPOUvAggggAACDQQIkg04eIJA2xdwgmRTn3T3pvfl4K5VTR3GfgQQQACBDBYgSGZw4/PRM1OgQ8dsc3ebqdKtYIC7SLojoXegqao4YO7ytJjZ1g4KfxFAAAEEEgoQJBPSsAOBti+ga2RqsNQZ7Dozm5nWbb/N+YQIIIBAOgUIkunU5FwIIIAAAggggEAGCRAkM6ix+agIIIAAAggggEA6BQiS6dTkXAgggAACCCCAQAYJECQzqLH5qAgggAACCCCAQDoFCJLp1ORcCCCAAAIIIIBABgm0SpDMIE8+KgIIIIAAAgggkDECBMmMaWo+KAIIIIAAAgggkF4BgmR6PTkbAggggAACCCCQMQIEyYxpaj4oAggggAACCCCQXgGCZHo9ORsCCCCAAAIIIJAxAgTJjGlqPigCCCCAAAIIIJBeAYJkej05GwIIIIAAAgggkDECrRok8/Pz5J2F8+TMmTNSXV0jlZXHZeOmrfJv9/1G9u0ryxh0PigCCCCAAAIIINAWBFo1SJaUFMurC55p5KbB8oZv3SFbtmxvtI8NCCCAAAIIIIAAAtEUaNUgmZvbVf7pH/9OunfvJgP695VBg0pclfXrN8uNN9/lPucBAggggAACCCCAQLQFWjVI+inuuftOuefuO+zmmpoamTRlpv8QniOAAAIIIIAAAghEVCDUIJmX113eWzzf0ujl7bHjr4woE9VCAAEEEEAAAQQQ8AuEGiS1MqtLF7l1mjj5GqmtrXOf8wABBBBAAAEEEEAgugKhB8lVK9+VrKwsK6SXtvUSNwUBBBBAAAEEEEAg+gIEyei3ETVEAAEEEEAAAQQiKUCQjGSzUCkEEEAAAQQQQCD6AqEHydIV70i7du2s1Ne+cats27Yz+mrUEAEEEEAAAQQQQEBCD5KffPSGZGd3sU3xi3/5lTw/9+wsbtoGAQQQQAABBBBAINoCoQfJBX982l2YvLz8iHzl2puZuR3t7wy1QwABBBBAAAEErEDoQXLChLHy1BOz3JnbOmt72bJVsm37Lqmrq5WXXn6dWyfyZUUAAQQQQAABBCIoEHqQVJOiokL58d//tUy/7BL3Mrdj9cCDD8nTs593nvIXAQQQQAABBBBAICICkQiSP/qbH8qt379JOnfu1Ijl/gdmyew5cxttZwMCCCCAAAIIIIBAuAKhB8m7fvBd+dsf/YWroLO2NTx++tkKxkq6KjxAAAEEEEAAAQSiJxB6kHxn4QtSWFhgZfbuLbOTbaLHRI0QQAABBBBAAAEE/AKhB8kVyxZKhw4dbL1+8tN7Zf78N/115DkCCCCAAAIIIIBABAVCD5Lee21ffc2NUlZ2MIJMVAkBBBBAAAEEEEDALxCpIDlpykzR5X8oCCCAAAIIIIAAAtEXIEhGv42oIQIIIIAAAgggEEmB0IPk6tJFLszEydcwU9vV4AECCCCAAAIIIBBtgVCDZO/eveTtt+a5QmPGzXAf8wABBBBAAAEEEEAg2gKhBslfPvgzue7aq61QVVW1TJl6bbS1qB0CCCCAAAIIIICAK9CqQTI3t6s8/eRDktM1R3rm5zW4HeKy5avkttv/yq0YDxBAAAEEEEAAAQSiLdCqQbKkpFheXfBMI5Ha2jq59vpb5ODB8kb72IAAAggggAACCCAQTYFWDZI6JnLe3Mfk1MlTUlFRKeXlR2TxkqXy1NPPS319fTSFqBUCCCCAAAIIIIBAoECrBsnAGrARAQQQQAABBBBAIJYCBMlYNhuVRgABBBBAAAEEwhcgSIbfBtQAAQQQQAABBBCIpQBBMpbNRqURQAABBBBAAIHwBQiS4bcBNUAAAQQQQAABBGIpQJCMZbNRaQQQQAABBBBAIHwBgmT4bUANEEAAAQQQQACBWAoQJGPZbFQaAQQQQAABBBAIX4AgGX4bUAMEEEAAAQQQQCCWAgTJWDYblUYAAQQQQAABBMIXIEiG3wbUAAEEEEAAAQQQiKUAQTKWzUalEUAAAQQQQACB8AUIkuG3ATVAAAEEEEAAAQRiKUCQjGWzUWkEEEAAAQQQQCB8AYJk+G1ADRBAAAEEEEAAgVgKECRj2WxUGgEEEEAAAQQQCF+AIBl+G1ADBBBAAAEEEEAglgIEyVg2G5VGAAEEEEAAAQTCFyBIht8G1AABBBBAAAEEEIilAEEyls1GpRFAAAEEEEAAgfAFCJLhtwE1QAABBBBAAAEEYilAkIxls1FpBBBAAAEEEEAgfAGCZPhtQA0QQAABBBBAAIFYChAkY9lsVBoBBBBAAAEEEAhfgCAZfhtQAwQQQAABBBBAIJYCBMlYNhuVRgABBBBAAAEEwhcgSIbfBtQAAQQQQAABBBCIpQBBMpbNRqURQAABBBBAAIHwBQiS4bcBNUAAAQQQQAABBGIpQJCMZbNRaQQQQAABBBBAIHwBgmT4bUANEEAAAQQQQACBWAr8P6T1qeaQxCNaAAAAAElFTkSuQmCC;" parent="uFCmPriLI4l2OT3lbVlF-73" vertex="1">
          <mxGeometry x="35" y="293" width="255.89" height="98" as="geometry" />
        </mxCell>
        <mxCell id="2GjJaxAQOo0FLlAYTIdS-4" value="" style="shape=image;verticalLabelPosition=bottom;labelBackgroundColor=default;verticalAlign=top;aspect=fixed;imageAspect=0;image=data:image/png,iVBORw0KGgoAAAANSUhEUgAAAzAAAAEGCAYAAAC6tHCCAAABVmlDQ1BJQ0MgUHJvZmlsZQAAKJFtkD0sQwEUhb/WoyH+moiJpKOfauSpRGOqRpAYmlJBDF6fqkZbz+sTjHaLySQMNisDk8RilwhGk0FiaNJIaJ77FPV3k5vz5eTk5uaAW9EMI6MA2ZxlxkaGfNMzsz7PAwpeaqnBrel5IxyNjkuET/05xWtcjl71OLcep6yd69bAVuR09Omuc/fob/7H1C0k87roq2yXbpgWuDqEo+uW4fCGcIspTwlvO5wq84HDiTIfv2cmYxHhS+FmfUlbEL4R9ie++alvnM2s6R8/ON/XJ3PxCdFG2TbiqAwwTD8heqWb/7PB92yEFQw2MUmTYgkLH2FxDDIkhcfIoRPAL6zKNZWg0/Hv7ire8j2EBsFdqHjzcTiZg4buite1D940XDQZmql9NeoqKvnFPrXM9SZUP9t2oR08Z1Aybftlz7ZLh1B1C+erbyBbYWdKeJnAAAAAimVYSWZNTQAqAAAACAAEARoABQAAAAEAAAA+ARsABQAAAAEAAABGASgAAwAAAAEAAgAAh2kABAAAAAEAAABOAAAAAAAAAJAAAAABAAAAkAAAAAEAA5KGAAcAAAASAAAAeKACAAQAAAABAAADMKADAAQAAAABAAABBgAAAABBU0NJSQAAAFNjcmVlbnNob3QFb3jMAAAACXBIWXMAABYlAAAWJQFJUiTwAAAB1mlUWHRYTUw6Y29tLmFkb2JlLnhtcAAAAAAAPHg6eG1wbWV0YSB4bWxuczp4PSJhZG9iZTpuczptZXRhLyIgeDp4bXB0az0iWE1QIENvcmUgNi4wLjAiPgogICA8cmRmOlJERiB4bWxuczpyZGY9Imh0dHA6Ly93d3cudzMub3JnLzE5OTkvMDIvMjItcmRmLXN5bnRheC1ucyMiPgogICAgICA8cmRmOkRlc2NyaXB0aW9uIHJkZjphYm91dD0iIgogICAgICAgICAgICB4bWxuczpleGlmPSJodHRwOi8vbnMuYWRvYmUuY29tL2V4aWYvMS4wLyI+CiAgICAgICAgIDxleGlmOlBpeGVsWURpbWVuc2lvbj4yNjI8L2V4aWY6UGl4ZWxZRGltZW5zaW9uPgogICAgICAgICA8ZXhpZjpQaXhlbFhEaW1lbnNpb24+ODE2PC9leGlmOlBpeGVsWERpbWVuc2lvbj4KICAgICAgICAgPGV4aWY6VXNlckNvbW1lbnQ+U2NyZWVuc2hvdDwvZXhpZjpVc2VyQ29tbWVudD4KICAgICAgPC9yZGY6RGVzY3JpcHRpb24+CiAgIDwvcmRmOlJERj4KPC94OnhtcG1ldGE+CvgihZkAAAAcaURPVAAAAAIAAAAAAAAAgwAAACgAAACDAAAAgwAAZ4pcVEbvAABAAElEQVR4AexdBXwUR/t+oyQhCgR3Kw6leHErTmmpf6X61e1fb2lL3e2ru7fUKMWLO0WLtFhxDxCiRAnJf565zGZub/dyl1zCQd6XH9nd2dmZ2Wd29+aZVyagSbP2BVQo1avHy7309HTKyspWybxlBBgBRoARYAQYAUaAEWAEGAFGwC8QCGAC4xf9wI1gBBgBRoARYAQYAUaAEWAEGAEPEGAC4wFInIURYAQYAUaAEWAEGAFGgBFgBPwDASYw/tEP3ApGgBFgBBgBRoARYAQYAUaAEfAAASYwHoDEWRgBRoARYAQYAUaAEWAEGAFGwD8QYALjH/3ArWAEGAFGgBFgBBgBRoARYAQYAQ8QYALjAUichRFgBBgBRoARYAQYAUaAEWAE/AMBJjD+0Q/cCkaAEWAEGAFGgBFgBBgBRoAR8AABJjAegMRZGAFGgBFgBBgBRoARYAQYAUbAPxBgAuMf/cCtYAQYAUaAEWAEGAFGgBFgBBgBDxBgAuMBSJyFEWAEGAFGgBFgBBgBRoARYAT8AwEmMP7RD9wKRoARYAQYAUaAEWAEGAFGgBHwAAEmMB6AxFkYAUaAEWAEGAFGgBFgBBgBRsA/EGAC4x/9wK1gBBgBRoARYAQYAUaAEWAEGAEPEGAC4wFInIURYAQYAUaAEWAEGAFGgBFgBPwDASYw/tEP3ApGgBFgBBgBRoARYAQYAUaAEfAAASYwHoDEWRgBRoARYAQYAUaAEWAEGAFGwD8QYALjH/3ArWAEGAFGgBFgBBgBRoARYAQYAQ8QYALjAUichRFgBBgBRoARYAQYAUaAEWAE/AMBJjD+0Q/cCkaAEWAEGAFGgBFgBBgBRoAR8AABJjAegMRZGAFGgBFgBBgBRoARYAQYAUbAPxBgAuMf/cCtYAQYAUaAEWAEGAFGgBFgBBgBDxBgAuMBSJyFEWAEGAFGgBFgBBgBRoARYAT8AwEmMP7RD9wKRoARYAQYAUaAEWAEGAFGgBHwAAEmMB6AxFkYAUaAEWAEGAFGgBFgBBgBRsA/EGAC4x/9wK1gBBgBRoARYAQYAUaAEWAEGAEPEGAC4wFInIURYAQYAUaAEWAEGAFGgBFgBPwDASYw/tEP3ApGgBFgBBgBRoARYAQYAUaAEfAAASYwHoDEWRgBRoARYAQYAUaAEWAEGAFGwD8QYALjH/3ArWAEGAFGgBFgBBgBRoARYAQYAQ8QYALjAUichRFgBBgBRoARYAQYAUaAEWAE/AMBJjD+0Q/cCkaAEWAEGAFGgBFgBBgBRoAR8AABJjAegMRZGAFGgBFgBBgBRoARYAQYAUbAPxBgAuMf/cCtYAQYAUaAEWAEGAFGgBFgBBgBDxBgAuMBSJyFEWAEGAFGgBFgBBgBRoARYAT8AwEmMP7RD9wKRoARYAQYAUaAEWAEGAFGgBHwAAEmMB6AxFkYAUaAEWAEGAFGgBFgBBgBRsA/EGAC4x/9wK1gBBgBRoARYAQYAUaAEWAEGAEPEGAC4wFInIURYAQYAUaAEWAEGAFGwDMErr5ylGcZ3eT64cepbs7yqYqOABOYiv4E8P0zAowAI8AIMAKMACPgQwSYwPgQTC7KEgEmMJawcCIjwAgwAowAI8AIMAKMQEkQUATmm0mTvb583KVj5DWsgfEaugp1AROYCtXdfLOMACPACDACjAAjwAiULQJMYMoWXy6diAkMPwWMACPACDACjAAjwAgwAj5DgAmMz6DkgmwQYAJjAwwnMwKMACPACDACjAAjwAh4jwATGO8x4yu8Q4AJjHd4cW5GgBFgBBgBRoARYAQYATcIMIFxAw6f8gkCTGB8AiMXwggwAowAI8AIMAKMwLmNQERQJXqm5RgKFP9WJu+kXw6ttrzh4ghM3Qv7Uetxt1B4teoUEh5BgcEhlLp/N/1x8+XETvyWkHKiCQEmMCZA+PDcRCCqfkOKbdpc3lzqnl2UJv6z+A8C3D/+0xfcEv9EIKxrNaKgAKICouw/j/u0kcH1KlNA5SCifKJT/6b5tGwurPQIBFWtRIHxlWRBeXszqCD7dOkLLWEJjzUfSTc16COvvnPj1zT72N+WJbkjMBdOeI3q9R7ocl3G0SM07ephTGBckOEEKwT8nsAEC2be7LKrKCBIfFw9lKStmylh5XIPc3M2f0GgycVjqVJcFcvmnM7OpuQd2yhxw1+Un5dnmcddYr/3P6eqbdvLLPtmz6Q1LzzlLjufK2cEzkT/NBgygirXqm15p+kH9lHSln8o4/Ahy/OcyAiUNwL1/h5BFCgIjJADraf5tPqyLNunDa2ghdWc0pdCmkbJu0+8czVlLTp6RpCoFRZLS3s9Ievel5lIA5a/bNsOOwIDjcvon2Yb1+XnnaKk7Vso60Si2G6mrT9+yQTGQId33CHg9wSmaut21O/DL9zdg8u5E39vpIV33uSS7suEHi+9SZViYuVgeun9d5RoUO3L9pwLZY1dvEbExXP8QNveT0EBHd+wjv588hHKTUu1zWY+MWr6fAqNjpHJa196hvbO8u0AwFyfPx+DyLW7/V7ZxBObN9Gm998+4809E/1zyfwVFBgS6vbeQZy3T/yGtnz5idt8fJIRKGsEypJklGXZZY2Lr8uv8kx7Cqwqvgt5BZT4wDqi00LldYbFicDcIQjM4jNDYD5ofz0Nrt5GonHLhi9owfEttsjYEZhGF42irg8/I68rOH2aJo3uTXlZmU7lsAmZExx8YIMAExgbYIpLvmTBSmGzGSyzTRs1iHJSkou7hM+7QSDuvJY04NNv3eRwPpWZcIRmXj7SOdHNkU6OKnp/XfDIk9Ro+GiJVvK2LTT/lnFukCufU+XdP5h8GDltnsc3d3DhPFo54VGP83NGRsDXCJQlySjLsn2NQ1mXV/ev4RRQKVBWc6jbH5Sffqqsqyy2fH8gMNUrRdOK3g7LhZRTmdRpkXsrBjsC0+m+8dR05Fh5z2n799LMGxyLVuogMIHR0eB9OwTOOgKDmfP83Fy7+5Hpxzf+RQfmFako3WYu4UkmMCUEzuayluNupNY33+E4K7QsW78t0rqFVI6kqPoNKP78TgZpRMb1b71Kuyb/bFNiUXJAYCC1+e+dFBIZKWd6Nn3wv6KTFXBv0JcTKaZJM3nnO3/7mTa8/eoZReFM9E+Di4ZR5/HPGve97fuvCLOBQgVI4fHxFNe8hYGRyrT0gbvo6JqV6pC3jEC5IlCWJCPm/pZi0B5E+Sm5lPbhv+V6X/5WmT8SmMpj61NIs2jh/1Qg+yc/tfxJ1QNNh9LtjQbI7vpozwJ6fedMt11nR2C6Pfo8NRw0XF6b+M8GmnfvDS7lMIFxgYQTLBA46wjMtJEDKSc1xeJWyjeJCYxv8e71xntUo3M3WWhOchJNGz3YpYIaXbpTr9ffNdIPLV4gTMkeNo55xzMELp69hOBbBlnx+AN0eNlizy48h3J1fvxpgg8MJP9ULv02oIfL3dXp3Z+6P19E7vbMmELrXnnOJR8nMALlgUBZEpjyaP/ZUoc/EpgzjV2gMO1e1/c5igoOk03pv+wl2p91wm2zPCEwxzasoQUP3OJSDhMYF0g4wQKBCkFggsLCZJg+3H+esGk321sqXDDTHxQaKiY5CpxMwjBDHFGzlsomtxd9N8nQBiy47Xqn/DKDKCPjyGGna3Cg6sB+bnqare9Mpdg44Q4SIM8jn5Xo7cLscebRBJktPL46NRg8jKIaNqbTOdmUuvNf2jtzKp0uRnOFSFA1BUmIa9lKOi9jtvnEP5uoID/fqvoSpYWJvrjyitH0zbe/UL5W7vDfZolwivGyzOPr19Hie2+1LP/iP8TgO8Ix+E7ctIEW3XWzSz5gp/KYT5bEKbtauw4E8lS5dh3KTUmRzt3Axo5I43kLq1JVVg1Tt6gGjajhMIe5265JP1NGguO5gH9XfaEJQJt2/jrR9lnQ7wFtwMC6auu2spzEjespYdWfchCu51P7eluQFhRaiQZ/87M6TXNvuMrlfchNTaVTGSeNPPqO/szlZWQYGETUqEn1Bl4kNGUNpSYjZYd45maJZ068b2bxdf+gfLy31QUBxvOLe04XpglJWzbT8fVrzdXL48Ff/0TRjZrI/ZOHDtAfV7maMeDkyClzjMASCA6y4Nbr5DV2f7ztH6ty0K6qbdpRjNhWqlKFshMTxTNykA4Kwp4tHF3tJKxqNQqqJCIV5YtvT+EzVrlmbao3YDBFN25Cydu20uHliz0OTIC+rtt3oPwe4Jty8uABStr8Nx1du9r2eUPbYFobXr2GbOap9HT5ncNBtPge4T2AL1qK+Cbtmf675fMhLzT9AeGO79iJYps0lc9Y/qk88X09RMn/bvMqYIun/RMREU7Dhw2kSb/NcPpOmZpVrodWBCakcSSFD6hFAaGBMjJZzkZhyuyBz0ZAsDCRCrb2N/Q2wlVgTAhVOr8KhbaPo4Kc05S7PpnQDttyRCS1oGqOiFoFGXmi7UEUPrQ2BcWGUubsw3RqZ7rENbhuBEVcVFv8aAZQ9uJjlLu1eJ9HmH6Fto2T7QmIDKbcDaItf50gW42FgCCoumNQrjqz1qwBhglZwuhFriZk4ufw9HHX75q6PjAqhAIiguQh6lU4IIpcaLs46V+TdyCTclYlGveqrjW2AqOAEIcZm5FWuAOMEYnOWwmuX1nUH0uhLWMo/2SerDtnncAmyb1FC+ppH1OfJnW5R1aZkJ1KPZcWP5HDBMbbHuL83iJQIQhMp8cmUMOhjgFkwsoVtOxhx4toBsuwwxfk49c+nY3TGAQM/XmqcezRjqkMdQ3KQXkQzOZiVtcs+sxv1vFjNOPSYeYs8lhvV/6pU2IWuTt1e+ZlMegY4OIMD4KzVtS374/pLmVhJvqCh8ZTYEiIyzl317lkdpNwQcd2dM89/6XzO7ShQDEw6thpIOXmFqnBL120mjBggmz95gva/NkHlqVdPGcpBYeFy3O7p/5Gf73+oks+3SHcfNIbB344u1/48lsUGiVU92YR/bvjl4m08b03zWdIn93PPHaUIgoHcyrjkvtup/MfeIyi6tVXSXLQP2fcZZR+YL+Rpu/U7tmHujz1vHHv+rm87Cxa9cx4OrJ8iZ4s9zuKehqPvtQl3V1C+v59NPs/1tfU7NqDer72jrz81Ml0miXIaO+3PqBYYXJlFkSLw7t2TAx4dfFV/6BMkMvuz71qkAy9HuwDm31/zKD1b77sdEp/jtz5twz7ZTqBnEHcfTtK2j96o+r06U/t737A5XnR82QlHqdZwvfLKhLfmDnLJHlDfmgmOz74uAw0ol+PfU/MBptfea0wu7zD8psAUrr25WfpwII55qLlcdNLLqcO9zk0oyDwa0TQjAtfecvl2cU3C35F7jSAePfOf+BRSaTU98FcKbDY9s3ntOWrT82njGNv+6fnhV3oow9fozxR9pKlK+l/73xKu3btNco7Ezs6gTkybAHV/KW3CH3s8MM02iPIa9L4DZQx9aCRZLVTb7O9/6CnEc5AXOI/7U6hrWOsqqDMOUco6aG/qCDPeQIM0bTg0wHJ25dBwfXEhFRhdDWkpX26g/ITcyj2MYezONIgqW9upbTPdzoOTH8DwoKo2v86UVjP6qYzjkOEnU68a41BJlSmoPgwqr1okDr0bCswPtDW9XdUXRz/UVcK6+VoR8rrIrrWwgSq8W1PCqwSqrIY25wNSXTsmuXGsdqpNb0fBTeKVIdOW2+jkEWNa0yxD7ZyhOB2KslxkLPmBCU9tZHy9mdYnHUk3dFoIN3fdIg8mJ6wge77+zvbvOoEExiFBG/LCgEmMBqyY5cUztaayIdOFLTs7ndNZajMnhAYkC2QLog3BGbr158JP5LbVVUuW8x4rnv1ead0mGRBu1Cc7J0xVRCgZ4vL5nQ+MrIy3XrLtTTm4uEUG+tMAnQCg1n7i7771bgWWhVoV8zScPgo6vTIU0byEhH9zTw4xiDn0oWrXAicumjWFaMsNWPqvNrWurA39XjhdYNUqXTz1gpTfXbfnN/dMcjlmhefdsqC++k64QWq26/4H9nlj93vQmIGfv49xTY7z6nM4g4woIRpmZW0v+cBajb2KnkKz2ZIVJTLwFS/zmyi5qv+QR2yLZdeadvXqh0YcE8e3FMdSvM5mNEpcedLdcn8P41BvBWxLm3/qDa0ueVOavEfV1twdd7Y2nxXoNkdPWuRkQ2DehVkxEjUduAH9u+P32opRbvt7ryPml/xn6IEm72lD95NR1f/6XIWhBJkDIJIgXICwCa6IMz3pgzta6kdRqCFoT9NtdWm6hVbvTs4X9L+UQRGryMh4Rh998Mk+k58q0Bsylt0AoNZfQza7STtg38p9f3tdqeptAQmpHk01ZjY020bUPnpY9mUcOlip1l+ncDYNtDmxMGOM4SWx5kQhbaOpepfdnclc6Yy8tNOUcLFi+j00SLtSVkTmNR3t1HUNY0tyYtsntCWHWjnSoZqzR5A0EBZSaKHUchAMKt/1YPQV8VJykv/UPp3e2yzTex0J3WOayTPT9j2G31/YIVtXnXCjsD0efl9qtW5h8zGJmQKLd6WBIGzjsBs++5LYXaQZXuvmMHGjKouHmtgbAgMzFMaFGpwVLnn/98jxuD27w/foVOZzrMXmCm1mhEvKwIj2yUGNwhDDBO5xI0bpHlFuDArqda+A0XWrS9NNnQC0+qGWwj/lcA8ZfsP31DSts3CVKMZNb96nKEtQh6EpkaI6uLkwh5d6M47b6C2bYRjqMXA5fDhozRk2JWGaUazy6+m9nfd7yhW3MOkfl2dzNYwCGl1461ygId9SMqO7TTvpmsc12h/cb7RyDFGSrQw32o6VgxyhUCbhLKLE+ng/fgzxsA4LzNTzjYfXrpImBLWpra33lU0qBLtnTF2uCSaqlx9dh8z0GtffY7a3HQ7VRFmX0qyhZ/PmhcmyDWOoNWA4JmZcclQlUVuoXWpP9Ax84WEtH17aNeknyhl1w6pfWh13X+NWXe0c8qwvk7YoWzd/BH9rczbjos1dQ7Mn+1UHw6O/7XGVhPU/8Mvne5DXYz3Llk8NzBjhOlTjS7dxMA/VBIH3YzMF/2DOnu/+QFV79RFVU+492PrVtPhFUso69gxiQ3M8zD5gEVL51x3hZFX13AicdblgtQWmlwZmcQONBiNR13iSBL9DK2UWUNW2v5B4QiogMAKSqC1A7mAeSDwgrlgnT4DKL5DR2mqauUfVq//YOr6tLM2Ehqyg4vmy+9hlZat5buu1tMykzpVt649RBrMG/fPnUWJ4r2vfkFnSWzUOwgTSvgkmmXoj1OkuaWejomGg4vmCdOymiIC3iiCuZuSZQ/dI8wgXQdEOvmGGeuhxfPFN2wKZYq+gnkstG8Nh42SBAnrOmF9J7OUtH8aNqhH3377PsXFumoXTovvyJ8r19H//vcJbd22w1xlmR3rBEZWIga/qe9up2xhihTSLIpi72vpNFA+3HeuralTxIg6FBgRbLQ1bkI7Y98TDUzNyX2cBsYnv98j1yaBKVvli+tR+KBaRnmZMw7RiYf/Mo7NBCb17W10OimH4h5tLUyvitoEbUvmzENU7Z3OFFzHMZg/cf86aWZmFCZMreosu4gCo0McSUI7kv6taIvQetCpAqGRiafoW5sZGp6ctSfo2HVFzxrMtML7OzSsqsyqr3U0tBVJT2yggkznRSNPn8ghlGMnugYG5pxKu4R+yhWmdfnJuRTSIpoihtShAGHGZ0VgYG4W3KCyUUXsQ60MbDwlMPEfCk1Qb4cmCAVhgdKTP++j3E0pFBgXSpWEyV/kfxpJ7IojMOv7PW/4v1y6+h3amLrfaJvdjh2BGfn9dPFdriMv2zt3Bq18+QmXItgHxgUSTrBA4KwjMBb34JQEvxPMsutSWgKjl6X2S+rEX6YERjQONv9LH7zHxUa9VveelC9+eNWMaUjlyiKM7HxjlhaDvyX/d4e6PWOrD1jdaYOio6PozjtupFEjB1NUlKvqOysrm+bPX0Lvvv8FHTp0xCgfO1hTp7bQeCjRfYcws4zoYWrQhDwYeK947P+En4YzaVTX69sW194oTWGQhoHhTEE23AnqGTN3uTHrjhlkmEnpPiEYfI0QPjtqzZp/Pn6PEMUKAlt9fXZ/5mUj5KAeAQoQqEDJ7P+MlX4a8HeAxgaCQTQG00riWrSiAZ98ow4JRBlrkugCf5IRk/8wFnq10sLo+UfPWiz8sBw/jDDfMZN9Pa/V/qjpC4QPQ7RxCjPoa1542sWcCDi0vP5m2WYjs8WOt/2DIsxYnjy4n+Zef6XlLD5MoQryT9OOn38waj///kcJi6ZCrEgtJiwQarr+oCIyCfK6YvyDRhnY8VX/XCief2j8ILiXP64uJE0ypegP+hpE5Mify4oSC/f00NhIAnnBs6e/I2YNJkxT8U4rQdn9P/5aHYpviasvmrmM6SLYBsi4LrrWClGTVjzxEAE/JeYQ1jAXhXZLF6lRmrnQeMfstD24BtqeY2tXOd0r0n3RP61anUd33XEDde/eiUIsTGyPHz9BP/70O3351UQnk1jU72txIjBiYHz0iqWUuyXVqAa+F7XmDDAG85nTDtKJR9cb593t6GUXR2AqdaxC1b+90CjOhVSIMzH/15Kib27qyCPaKsmUGPhDdAKDEMUIVQyJ/m8zirmvhdyHlgXaFkjkZQ0o7ul2ch9aAgy2lcTcfR5F39bccSgI3ZFRCwkr1esSIkyxak7taxCJ4zf+KUmfnkffL60TvxOBEQVDW3b8ZuEzud75PYEGrfKl9QnkrzjxNoxypQ6ij74v6qP0r3dTyqubXaqBL1Ts+DaUszqRMmcddjmvEnYOel3tUt9lL9LBLOd7MU5qO1YEBpoXaGCUrHp1Au2ZPVUdGlsmMAYUvOMGASYwGjh2JmRaFmPXHwkMnP2nDu9vtNHdzgUPP0GNRlwss0Bjg+us7Oph/oH1MhSBQD49qED/fj3pttuuo5YtmrloW+Ck//c/2+hjMQhfssTV1ES1Tyd1Ks1yKwZD0CBZ+Q1Z5heJ8NdQGg53Pgzq+tY33UYtr7tZHsJGHxoRK2f9wSIIAbQ7EPgCrHr6cbmvz+7rhESfIdc1LQgN3ed/H8lrk7dvpfn/vVbu48+I32cb2hKED4f/jpX0evN9qtHJoVna/v3X9PfH71plk2QVz62SKUP7uAz61DmrLZ4BJ/M80R9zb7yaUoU2qKTibf+gHt2HBs76c8Zd7qR1Kq4tAz/7rshnR9zDcaHpgIC4wPk8LK6KQQiRjoANK4R5njkIhq/6Z8gPv0kNKeqy8+vCOXeih8aGtuKPKy+21CrpvmZ/PvEwHVqywCgW6zBhPSaIu8AG+rfPXIYk94JQK7GL3DZCBEcAzpAN77wuglj8qC6R22rtzqe+730q90Ey4d/nbTARX/UPGgG/vYsvHkrXXXs5NWnSULZL/4Nv3Zq1G4RW5lPa9PcW/ZTP9nWSAZ8ODIrNopMAOPNbze6br8GxXnZxBEYfoOcdyqQjg+e7Fik0I3XXDTMc0dM+2UGp/9sm8+kEJndzKh29fIlMD+sRL3xqusn9U7vSKWHUIrkPE7EaP/eS+2ZSVm/TiCJtyYSNlPHrfpnP/Cfu8TYUeY3je535x2E6gQUqbcTXBObEg0Jr5IYc2DTDKdlbAlPj596Gb9LphCw6PMDZKsWp8GIOwoNC6e/+Lxq52i8cTxl5DjJqJFrsgMDkNzqP/knLlj6KsY2aUlwzx/cF2TOPJ9DUK4smifQimMDoaPC+HQJnHYE5uHCuMNfKtLsfaUZiXgOmomhgrAYCdkDp5hkw+9kqnGCVGGZfheZfMJkKiYySp1c/+wTtn/eH/BGf+P1HhGg9ZoGt+C+/TqOvvv6RcnJyzaddjvUBkctJUwJIxbJH7nXxfTFlMw6H/TrDcIrGwB4DfHeihxh2RxpAOkA+IIjMtOD2G+S+7jS/f85MWv38UzK9w70PUdNLHWZMeIZXTnhMputmfIgUB+doCNbEwdo4ENzz5EEX2g7g4DANx2kIzBahhbESXXNhZ0JkdZ1Kg8lO3/c+U4cEn6vNnzvIl5Ho5Y63/aPjhapAXtL27vaqVl0L5e7C3LQ06felaw9Ufl/2j04+MImw5L7bLH3AVN1WW/25hbkW/MOsZMy8FZKo4RwCYIAwQSLr1KMhEyfLffxxp/HQ8TNrT7BAKrRBEBCO3/p3s3xu9YADi+76r7hfZ02BrplEWUdWLKWVTz/mcdQyX/YP6tcFZmW3iWh0w4cPcvHtQ76kpGTq2/8Sw0RWv7Y0+zrJSLxnDWXNT3ApLlBE3qqzqmhQeLDzLGECleeSz5ygl10cgak1s79h3gRSAnJiJVXf6kQRgx2mZFnzEijx3jUym05gMPN/7AbH5BYidMGvBpK7KZmOXuXQNAY3rEy1ZvSX6dlLjtHx21fJ/aBa4VR73kC5jz8gCgXCbExKgGODvwEiQEDIedEOUzJxnHdQkK6LLEhX4SW+JDCnRTCCw33mFJZc8o23BKbu6qGGT9CJR/6izOmHSlx5tdAoWtlngnF983kPCcu4QpyNVNcdEJhT4+6jgshop5OYHNkzdzpt+e4zoaDNdzqnDpjAKCR46w6Bs47AlGQdmIpCYMwmIe46HloVmHJ4K7t+/1VGdLJycp31x3x6973Paf9+zz+WCM86fNJMoxkw01EDRsz4R9apK8LzDhH+L9cLs65QmQ8z4VOG9LbUGBkFFe5AY6Ds/hEy2J22QNeewPQFvgY5KcnmIuXxoK9+pJjGDhMJ3bxIn91HJCisVQPp9+EXwpehndxXJBAHuvZEj0qnh5XGoDZtj/0gvXKtWgbBdBdRS3fOxqAfg39vRB8UlnRW3FyfN/2Da3XcU3fvlKZj5jLdHcOxXddCucvrbp0hX/aP3i+qPdD67Rc+HQgSURxBg+YIxETJwttvpBObN6lDp60RaVGkIiQ0QkND4D8DLSEEZpNTR4hIhjaim4jpzzKy6z4nCN8ODZ1ZzGaWIDlW2l+9HpQBQoTgHntn/C5NH80aMb0eX/aPXq55v13bVnTXnTdSjx6dnU7pQUqcTpTiQCcZR4YvcDGVUkXrWomjly1xMjNTecxbveziCIw+OE68WxCpBa5ECuXr5l2ntqVJZ36k6wRGJyRO6cJfBKZekKAaIlLYgkFyP2ediNo1brnch+9KtXedcZcnivlTcEqYp3WYYZvLlwRGvz/bCj044RWBEdov+QwUlntk0DzKO5zlQS3WWYIDgmjbwFeMk50WPUUpp+wnkVVGSWCuvZcKomJUkrFNP7iP/nzxcUravsVI03eYwOho8L4dAkxgNGTOahMyMeDWQz9rt2W5qw8cLTPYJO6a/Autf+sVsiIw0s9lwVL6QDh6e0pi4CQNZ2kliBalO32rdETSgtZIiSfhkLHmAxyKIRj8TOrbRV1uudUjbMH5fqYIV2snugnMli8/IfyH6LPTWBwRPiIQ3ezp94t6G2uv6AMtRUDho4JySiLwkYGvjJXoJMouapPVdSrNTuukznu79bZ/UL6uaUBUPETH80bg+I8AAEpgApV5LEH6LtUfPJRq9ehlmDYhj66lUNf4un9A1If8MNnF8V3VB0Kx6f23xbo601SS0xb+M/CjgcAcFM+XlcCHZuTUucYpnThgbSCs0wJx92xIM0IR8lyJOQAC1seKqt9AnoZWd/NnH6qsxlafKEDwhd/FZISVyGiMjz5l+MHoeSSZ2Sh84US0PN3PB3l83T96vfo+gpTcKchLt64dKVgQY13KmsAcvGCmS0hgVb9OME6IMMZwhC9OvCEwet6jYwVB2lrkh6PXg9XjqzzTXiZhrZFDvWbLfZ2o6JoZOK1DuwPJXiY0LbcWalqqVKLaSx3kWg87HH17c4q56zyZ35s/5Ulg0r8RvievOCYJvGmjOa83BAZrA9Wc1s8oojhCamR0s7N94KsUFBAocwxa/grtyTzuJrfjlO4DEyGCd9TvM4ja3XyP4XeL38ZJo/vIterMhTGBMSPCx1YIMIHRUDmbCQzMjGAn7qnoZluI7Ia1MjwRLKiH2VKESH7owTto6JABtmZkk36bLpxbf6Jsi8UMVV36zC/W7Ph9sMPWWZ3Xt3p0L0Wk9PPmfUQf63CPw/E6O+kETb/4InMWp2OsZ1L9AgfJwQKeC0VQAju5ZP4KQyOkoijps/v6wEz3HTHfo/JJ0PtPt/9H/VY+OHbtQmSzhJWOGUpzHt0B3y5qk/ka/VgnbRveflWuJ6Kf93bf2/7R8UVdWHwS5gjeSLs77iU49kPsSK2+9osVkS2r/jnvmutEcIHLjHVnzPe18d03xdpDP5iT5ZoryoTQne8KnN0R4hiiP284Hi0c5pWZqB6UAud0cQp5bjFpopuo2UUt1M0s7aIJqjpBqqChqi4WsVQaWHUOW5j5TRs10MlMraz6B/XFxcVK87ERwwdSTIyzaQzOJ6ek0q/CfBbrxvhadOLgKYFJvG8tZc09UmxT9LKLG/Dqed1peHTne0QZO9xrjmyHzwiMiC4Wc08LWSYI0tErlhR7n8iQL6KK5ac4JpasLvClBibljS2U/sUuq2q8SvOGwOgmd6jkQBsx8VG8xZfb9qzq8zRVDXUE57l67Ye0Orn4e9IJjCo8rmkLuujjieqQNn72Dm2d+KVxrHaYwCgkeOsOgQpBYPQfTITrxIDTLE6mTBY/zOb8OgGYNmqQramR+bqLvv/NWMBw3Wsv0J5pk81ZpO8DzHUg7iJ/6evTmAckLoWaEvQVxhGyFetClFQG9O8lHflbnNfUxZG/QGD5z+Zt9MUXE2nuPFetgo5HcSZBOua7p0yiv954yW2T9fUojv21RvgW3O42vx5MAH4+MI+xEkR0u/CVt41Tyhle9zHBSvTzbrpa5sGCmP3e/1zu6yF99cGgHj1Pj/SUIyI8WYXNNSr3cEcnUbgEJkKY2fdGFNnCNeaZd2/KUXm97Z/qHTtT77cLZ/Q9eEdVPfoW/YD+gCBs+PQxQ/TTcr92r75yDSB1AnmQV0lZ9I8qG9ugsDBJZJpfda2TNgiRxaYMK5pZVdcgUh0ibkEQhXDxvbepU07bPu98IkMxI9FMzHTTMvPaPXohXZ54luoPHiaTQB6mjnDMmCMhNDpGahrlSdE/5nDoMl380c0svQlaAC1s29vulpMMeJ6VmH3/fN0/cOC/bOxI+s81Y6lRo/qqWmMLB/61azfS/979lDZuLP1su1GwaUcnDgkjF9Kp3SdNORyHuglZwpjFMnyuZUYtUS+7OAJTZ+UQQsQziJ0vDs6BXMgQxmLfzoSsNBqY8D41qNoHjgknRPoCqfOF+JTAiIUs078sfrBfXLu9ITAUIIIy/FNkPQB/H/j9lEY+6XAj9Y93fGNe3zGTPtq7oNjirAgMLhr+1WQxBmoor983f6YwJRsv9/U/TGB0NHjfDoEKQWAwC6/WAknetoXm3zLOBQ99hXH4PxRnjqUPppXpj0uhFgl69Crd9EjPqq/FUFYERo84dFg4fiPKUmkFi1XeIZzZR428SGpozOXBoX/R4hXSxEytaq3P2LpbLNPsZGxH/vQ64ZSM6yCeOJzrZl47fp1IG995Qy/O2NedrnU7f312Xx+YYXHRluNuktfrgQGwWCBmlyG6Hw1WDe/xoqNuu0GrvMiLPzqJguoe5m3eSGyz5sKEzzH7Dw0czI9KK972j04QPXlHrdqn9/FREXp36f13WmUjXcNmjuxWFv1j2QiRqC80a6cx0rUnCLG8/BHHM6WXCe0V3jU18NcH/ZLcamZhiISHiHhmQb4xc5cZmhAzLlivCD4wEDO50cvSzSx1PzE9j7t9OXHzkzANLQwyoge/wHW+6p+O57el28X3rHOn9i4mYqgnMTGJfvr5d/pCrOHjSbASXFMa0UmGVehilI3FC+usKCLlVgs/WrVBL7s4AqOvEo/FMrFoppXAP0WtsQItELRBEF9pYHTfGJTr6b0irzvRCQy0RtAeeSN6lLaUM0FgRGN1kpn0lIjONmm/N7fgkvfaehfShBZjZPrixG100/rPXPKYE+wITM9n36S6FzomYnghSzNqfOwNAhWCwMC8ApGaIHamRBgw4odPigcE5uI/lhiLGVqtCO8oyPWvbqZk5ySsm+qUFYHRtVJwyMZMqtmW3LX1nqfAR+YOsX6C3WKWsBGnsIiiGVtR9Kpnx5M5gpyqUdeOYPAKczkrx1+VH1vdCdidY7O6RieXdqvR60QA1+lmMv0+EI76bRyO+voaK7rvCKKSIToZRF//A2QJpAkCsxn4JEgR94rFKUvbNzBPanvr3bJI8+y7oyL3f1tccz21EdHoICW53qp0b/vH7NvgbQQyOVAXQR3UwBf+GXr0Pb2NurbCvDZLWfSPXre+D20HtB4QKy2rmXzYEQc9UAAI7ORBPZ3MrvQJGf0Z1duC5wfPkWyLILG/C381/R3sJPxVsLAkBEEE8M6ZxWwGqPuDmfO6O3anQfZF/3TvdgF9+smbLk3AIparVv1FbwsTsS1btrucL8sEnWTozux6ndF3CL+QO8+TSfpaKnoeq3297OIIDLQe0H5ATh/LpsP9ivyqVNlYX6TuX0JTJxzKIWkf/SsX3cS+rwgMyqq7YbgRqhmmWjDZKq3UWSoWxqwSKos5eqVYa+fvFK+K9AcCg2huiOoG0f2PvLoRLXOTytVpdg/HGCo9L5vOX2htnaBdQnYEptujz1PDQcNlViYwOmK87y0CFYLAOJmeCIQW3HY9JW0pWgwLs8sDPv3OmJ30ZHZXX20ai0Mi7Kgnoi84h4HE70P6Go7euF73C8BxWREYmKmMnrFQzKY6TAGAx+J7bnFZ6wJtQF6sjRJVtz5hxtQbga/MbULjNWbMMCebcRCYmn0HGYMzlDllKAbqzmYRIAxdnnxOrqiu6rVaYE+dU1snh2VBAuzMWVR+bHVCIftGOEPrAzSskdFPBCjAIAyim33hWJ/dV2ZlSNcJqW66NeznaRRRsxay0KwrR8tVz+WB+KOb9GDhTvSNlcBsB6GFEWlt/ZsvW2WRaXqAAqsBrO2FhSf09VoQ0nb5o/9X3CVuz5ekf1CgPtBGRDlEljMLfCXOv/8RQh26ZrFKqzbU/6OvjOx2mgZkaDz6UgLJl2JBmH3RPzBVw/o9/3zyniVBxX0MFZqG8Grxshl6uG5Hw0j4hmhmdYWJZo2wvgYRslhpOnVCYGXK2WzsVYRnSIlVGXqEuH9/+k4GHlD51VbXotmF8oYWBz55atFdda3aNho5hi54qMjsxMoXqrT9Yw5SgtDw34v1er797hfKE+TtTIhOMlA/VpTXV4QPqlqJas3qb4TPxQKJyS8W/c65a7NednEEJrStWJflx15GcclPb6KTv+wzjrGDhSfhAyNFLGR5SGgylN+JLwkMTNSUHwzWvZGYmBaMdDRCEKcW0ZLcpb673a1ZXY1fxRoqLR2RszKmHqSkx9arIjza+gOBQftxH0oypoj7GC/uo0ClOLYBIYGyrxBJziost557Uc/HqW54FZl02ep3aX2qc5/rebHPBMaMCB/7GoEKQWAwS3nxnGXG+gfQOOwSPhTpIpRsFRHatv6gIUXkBQiLAUtxJmQ6EcElWLQwZfs2w+H6dG6OpQmSeX0DLAqJRdwwcEcEJAxIdCkrAoM6dBMmHMPBfP+cWXJdk9M5ORTXshVVbdVWYNRW4uOuLbi+OOnS5XwRcvQmate2JXXqchF1ENHH1IwtrgUhUBIcESGiCUUaZEGlY9XvmWNHOJE+OO3W7OZsEoVZWF2jtu37r1QRcpu6c4fL6vHxHToSZt6VwEdk69efi3WHTsoQs+gbFZIZ5jwgwjBJhOiz++aBmfIdQdjXyQOL2qkG43geQbB06fXGe3LFeZUGzeGu334mDC7DqlSVCzFC2xPTqInUKLgzh0IZul8AjoF10tZ/xIrtDsKYl5lBf3/0rtOsPPIp0ddrgb8U/KY8FV/1D+rTzStxnHnsKO2a9BOl7d9LsU3EQmkt21DNLt0EMQ8ls2mk0xoyxbzjIO1jZi81tDXmiGe+6J8LX35LvvOOiFrr6fiGdTKsMZ6xGiKYRMMRoyk4LBy3Kb9Ji+7GeikbHMeFf9vefg+dd5WzSSwikW354hPxGcunOr37UbW2HYz7QHAJ+PQgjy76OkVIT/l3G+0UuIIE1u030PCxwTl8s0CSzNEC9SAbduvI6Jogq1Deekho+H+hDxHq+eSBfSK6WUO5+K7y95Ht3LFd+Jpdg10nKW3/gMC89+5LtGz5anrr7Y9Jmbw6VVLOBzrJkFULYpD+1W7K/SeFguqEU/QtzQzfFLFQBx3qMZuw0r0uAZVEaPorGupJcj/2kdZGmjlqVkFuvoOgCIKgRF8oEWmZMw5R1pKjUhsSMbIuhXWtprJSxu8HxOC56Ln1JYGBv0ftJYMpSEQqU5K1MIEQvvjUnpMULNaKCRGDeZiyBdeNkFkQnjlbhGm2k5h7he+OwFLJqX/TKOevJMpPzpVJ0GylfbpDnXbZlpbAAL+gOIcGSBWOBUqVVihjygHpU6TOYQv8T5/I0ZNIX4cHJxBKOWPSPrHGTgoFivJBRCtfXE8+Mykv/UPp3+1xut588B9hRvZ0oRnZr4fX0KObfzJncTq2IzBdH3qaGg0ZLfOe2PI3zb3b+fuFE+wD4wQlH9ggUCEIDO5d94OxwgImD2qdDk8IDAZIo2cskNoJq/LclaGbKlldq7fFHWkojRO/qrfrBLH+w4DB6tDt1l1b3F5oc1KfsbXJUpQsBpzH1q2RZmbmtVkwq47ZdW/EzgxKd/K2Kw8DztXPP+lk7oZnB2GKIWn79tCcay+T+3r45/QD+2n2NZfI9IgaNQnRriAYhM8cO1zuqz9YKwNr9WBA54m4M4fC9SCDI8QK6RiYW0oxA3o97La3plu+7B8QxVFCcwhzsuJk43siatfPPxjZdPNNT4IjYH0iBPeAmLVgvugfPdqZ0UibHQSsQOAKs+jPKyYgDMJjziiOYYIG/z+rtZCA6+iZiwyzWIvLZRKIz9zrr3SabMAJT9d2KS6UtzlAhl07kI73ZvbVYyy1xr7oH3d1n4lzOoEBMVGO9FZtSX7+bzo5ca/LKQz0VUhil5NuEo4ME+vO7MswcoQ0iqTqwkzJXRuQOe9QJh29dIkTkfIpgRF1oLz4L7s7kRijoRY7xREYmL/VXjbY/t4EOTzQ1vHttiieSktgdP8Vq/Kt0lLe3Erpn+90OoVFTat93JUqdXBoTZxOmg48ITARQZVofb/nZDjlnPw8ar9gPOUVnDaVVHRoR2DajLuV2lx3m8yIqInTxznMTouuZAKjY8H79gj4PYHBbBui7CjRTXNUmqfbTo8IG+3hppdFDNySxCz6QuGsiZlyKcUM5lR9IDEwrWoyZiyFYqX6QqdSnLdzuMU5/Ljih1wthIg0iNIMpWzfSlh8E+KONOgExjy7Ly/28A9WlO/+3CsyipDVJWgXwp3+++N3LloLq/yepunOx+ZrgB9meBFCGJG7Nrz9mtRymfPhWDd/sTpvlWbn44KBXOfxzwit3FCryyQ5+VOsPQEyoouuzdonFiBEmGKIbhJ4YMEcWvX04zJd921IWCki4z18j0zX/8A8rNvTLxHWLrETaKRg0oW1X4qLKoYZ7PZ33U/xIiStmRgBZywSayVY8BRkCuLuuba6Fmm+7B+Uh/cHZka1xfonVoLn9bhYI2TVhMcMjSjy6SZ7npgh6t8LPSy2qrO0/QNtEtZEgbbRTrBC/dqXnrUNF62bLWIh1BpC+1S33yCX4qC5W/rAXU7R1MyZwuKqyIVVY5oUzT6rPOj3o2tWShNSs+YFeXRTNvhr4TttJSDRYVUds/NWobwxEdBJ4IIFbPEuWgn6YstXnxarBSxt/1jVfSbTdAJzuP9caSKkax7QNmgHsOJ99tJjlk31FYFB4QERwRQv/GEqda5qWVfGb/spSZiXwbRLF53AYI0arFUDCRLaktrzHN8gmDRhkUwISBIG9RBoTtQClzJB/RG+NnGPtqbIKxuKCxx+N+qU2kIDgfrShfYk/6R7M0CQmMirGlLUjU0oqJrQ7uhlivs50M4zAmNHJFWbrLa6D47Veas0KwKj8kHLEveksKIIC1JJRVtBxrIWHZWmhqePZBWl2+w93nwk3djA8W4/s20yfXtguU1OexOyemI9mAufetVxnRhrzbzxEqlB1wtiDYyOBu/bIeD3BMau4SVNx4xqzS7dKbx6DTETuVMM/sTs0BmyaYY5GaKfwQ/l+F9rbVfPLum9ensdZufj23ek2KbNKTgyUjprY+AD23sMYCqSYNCOgX6k8PsJEVicPHhARgoza3/KA5PQqGipYarSsrU0YcMAMV2Y1KBfzkR7yuOePakDWpgqMHEUpo6YTIA5HJ5XhBIuz3e6tP2DiYhq7TvIZw2TILmpqWLCYJuIBLbNxdRLxwUDfGjG1MTJ9NGDCYQW73FdseYLnl049R9evtjJv0ovw2ofC4xiPaQI8Y3Ee5++by8dWrKgXDHFvaENMAXF+4dvJMw+ER3N27V/Sts/Vhj5SxoicYX3qymd5bOXH6O8vUVakvJqI/woQtvEUmiHOLm4Zu6GZMoVZldm4lJe7QERqiQc2ANBPE7lS81R7vY0wwenvNrhb/UgQl1o2ziHKZ0gfDCNy92cSgWZ7smcfh/Qwqzp+wxVCgwmOPN3WTxBQGythbHTwMAa4JLJiwxzbJSfnXxCfL/TKXHzRlr12tNsQqaDzvu2CFQ4AmOLBJ9gBBgBRuAsQkAPSmAVoewsuhVuKiPACJwlCOi+MM9vn0Jf7Re+ghZiR2CQVTcj0y/NOHqEpl09jAmMDgrv2yLABMYWGj7BCDACjID/IqAHJYBWAtG4WBgBRoARKEsEAoWW+Io6IlCK2B7ITKIlJ7ZZVueOwOACrNHW5tpbqXKt2hQWW0VoWqMoWWieFz96JxMYS0Q50YwAExgzInzMCDACjMBZgEDvtz80ohYeXDSfVj71yFnQam4iI8AIVAQEiiMw7jBgHxh36PA5hQATGIUEbxkBRoAROIsQGPH7bBlSG01e/9artGvyz2dR67mpjAAjcC4jwATmXO5d/7g3JjD+0Q/cCkaAEWAEvEJgzLwVRjS5WZePso3S51WhnJkRYAQYAR8gwATGByByEW4RYALjFh4+yQgwAowAI8AIMAKMACPgDQJMYLxBi/OWBAEmMCVBja9hBBgBRoARYAQYAUaAEbBEgAmMJSyc6EMEmMD4EEwuihFgBBgBRoARYAQYgYqOABOYiv4ElP39M4Epe4y5BkaAEWAEGAFGgBFgBCoMAkxgKkxXn7EbZQJzxqDnihkBRoARYAQYAUaAETj3EFAEpjR39sOPU0tzOV97jiPABOYc72C+PUaAEWAEGAFGgBFgBMoTASYw5Yl2xawr4MLeowtw6wlH9lJsTLREISsri3JyT8n9M/WnVcvzZNVHEo5ScnLKmWoG18sIMAKMACPACDACjAAjwAgwAn6EABMYP+oMbgojwAgwAowAI8AIMAKMACPACLhHwKcEpkktokt7BlDzOkT14gMoPoboeCrRocQC2rKf6JelBbTvmPsGqbOsgVFI8JYRYAQYAUaAEWAEGAFGgBFgBBQCPiEwbRsSPXxZAHVvGaDKtdwWCGO15VsK6PmJBbTzsGUWI5EJjAEF7zACjAAjwAgwAowAI8AIMAKMQCECpSYw1/QPoCeuDKCQYM8xzcohevLbAvp9hXS/sbyQCYwlLJzICDACjAAjwAgwAowAI8AIVGgESkVg7h4VQPde7F7r4g7dZ38ooG/mWZMYJjDukONzjAAjwAgwAowAI8AIMAKMQMVEoMQEpmNToomPBlJQYMmBO5VHdMVL+bRpj2sZTGBcMeEURoARYAQYAUaAEWAEGAFGoKIjUCICA9Iy76VA4ahfevjg1D/osXzKNylimMCUHlsugRFgBBgBRoARYAQYAUaAETjXECgRgRndLYDeuKXkpmNmEG9+u4AWbXJmMExgzCiVz3FAYCBVadmGAgRLzU1Pp7Q9u8qn4nO0lha1IqhaZKi8u38TMulYeu45eqd8W4wAI8AIMALuEAgNDaXg4CCZJSsrmwoQ2YiFEWAESoRAiQjM1KcDqVX9EtVnedGCDQV0yzvOL7I/E5iQypHU/KprKbZpc4qsW5+CxEcpJyWZMo8dpSPLl9D+ebMp/9TZOVCt1b0nXfjK27KfcpKTaNrowZZ95s+JQQGB1D++FbWMrE1NKlen+EpRtD8riXZnHKPfj6yjYzlp5db8VU90oqqRIbK+xybtol/WeBhHvNxayBVVZAQwmIqMrGxAkJqaXuygynzNyZMZlJd32iiDd5wRCBKTQVGRkUQezPmdEnbVGRmZzgXw0TmDQNMmDSlQTBJCdu3eR6dP83tzznRuOd5IVFQk4bsCycjIolOnrBeeDwkJocqVw2W+U2Jx+ozMLLl/rvzxmsBUjSZa9bYDOF+BkJFN1P6OfKfi/JXAtLnlTjrvqnFCQ+GYRXFqtDoQsyoHF82nlRMeVSmW2zp9+lPzK/4jzx1cMJd2/DrRMl95Jp7NBCY8KJRuqN+b/tuwL0UFh1nCdrogn97bPZfeFf/LWoICA2j7i92Maga8tp72nRAPOwsj4CcIVKoUSg3q1zVak5ScQomJScax1U7durUoItzxo4gZZAzE8vOdv99W11XUNBDE2rVqeHT7uWIgsnfvAY/ycqazDwEmMGdfn/lji/Xn6NjxREpJsZ6UrVkjnqKjo+Qt5OTk0r79B/3xdkrcJq8JzPlNxIKU431LYND6TnfnU0pG0X34I4Hp8uRzVH/Q0KJGutk7eXA//XH1JW5yCNJ21/3U7PKrZZ4Tf2+khXfe5DZ/eZw8mwlMl7gm9EOn2z2CafyWX+inQ6s8ylvSTO3rRdKkO9vKy08LJ6/zHl9Z0qL4OkagzBCoVau6Q0MgaigQ/3bLmWFrQhIWVonq1xMrFRfKcUF2kgXpYbFHgAmMPTYV7Yw+8GQNTEXrfd/dr/4cMYERuCYc2UuxMUK9IiQrK4tyhLrJSkYJ/5c3fej/ouoY+XQ+bd2vjoj8jcDoA3u0Mjctlf755H06tGQhncrIoKpt2lF8h47U+OKxFBZXhc5WAlO5dh2Clgly4p9NtPPXH+X+2fBHJzATD/5JfxzdRBvTDlCdsDgaUbMD3digD1UKdCxYBE1Mi3mPyAFbWd3bLX1q08NDG8jioXmBBoaFEfA3BGDS0qRJA2Hh5LBxSk8/SUcSrE0dGzasR6HCLAGSdzpPkB3to+1vN+Yn7dEJDEyGUlKtZ0vR3Fzxuwv8Wc5NBPSBJxOYc7OPy+Ou9OeICYxA3FMCM+SCAHrvTg+Meb3sxSFP5NPOw0UX+RuBGfj59xTb7DzZQPiGzLh0GOXniTjQFlKv/2DhG1OXtn7zhcXZoiR/1MAUte7s22sfU59ua9ifnt8+hQ5lJ7vcgE5wcHLwileEX8xxl3y+SvjkuhbUv2WcLG7GphN07w//+qpoLocR8CkCVeJiqVq1KkaZe4QZk9muOkqYQtXSTKEOHjpCmeeYTbUBgA93dAKTk5MjzDgO+bB0LupsQkAfeDKBOZt6zr/aqj9HTGBE33hKYNo3Jpr0hO9NyC4QJmSpfmxCNnrmQgqJdNgSrn/rVdo1+Wevn+hKMbEUXLnIYbbldTdTw6EjZTmpu3fSiscfcCkzNzVVaHisZ+QQMSyiZi15TYGY2cs8miD3w+OrU4PBwyiqYWM6nZNNqTv/pb0zp9LpXOvAAkFhYRQgHN/NUiBmWO2uUXmhbQoqtIfPTjwu86NdtXr0oto9+1BOcjIdXbeKjv+1lgo8sJNHW2r36E01unanLBEU4cD8OZS2d7esDsESAoKCyZN2qfbpW8ww7xj0mpF041+f0ZIT24xjX+8s4mUVkwAAJ0pJREFUf/wCqhHtiED27NQ99M0KR//o9cRGBFOlYAf2ecLM7MRJa82nugbl9WwWQ+3qRdGh5GzacOAk/bUvXcyGOwfBUPmriQAC8MWBIAKau6A3yIf8EJi8JRbTFpmR/5wzCDRp3EA4hjp8+7Kys+nAAW1GSdyl03kRQenAQefzZiACAgIIJmfh4WHScTk7O0do97OLdVzGdYGFz2y+eA7tIjVBcySyymfan31w/JXAoK/DRf8gMlaQCOYA7VCemJRDHyGYgKfi0s/iejw/p09bmyG6KxdOx3hmwoRvFvo+R/xmefLMoEyXdnj4vOE5Uo71eI7UswRcIiMjZLloA/7bPYvme6pUqRJVjginAPEcIygDnn2IPvAsjsD4qn/MbfP2ODg4WD4nwaJvEMADExu4H/hUeIoH6lQO5SgPEx86nug7iCflhYQEi2ckTD4neE6zxbOm8JWFVIA/+nNUGgKDQABq7If3X+GPb3blyhHym4B+8hZf9GdoaIh4bsIoRGzxXckVz0umh+8Q2oU+xvX5wloG9evPi+pir31gKonxzer/BVLlMFVE6bcHxCR4v0ecP3b+poEZu3gNvpDyZte/+TLt+v1Xr2+8/8dfixDFrb26bt/smbTmhacsr6lcszYN/XmqPJcvPiq/DehO3Z55mer2HWC0VV0IgrP2ledo3x/TVZLcIpBA9+dedUpTB55EIUP9aAdknSg//oLOVH/ARS71ZyYcofm3jJPR2lT55q2ukdLP5aan0dIH7qIBn3wjk0+LD9bkwT31LB7tt46uQ1O6/p+Rt8vipykp15ocGplKuINHZfuL3alwHEbD395I20UYZV3u7F+X/m9wPSNpb2I2XfTmBkkejMTCnS6No+nDa8+jmHCHCZx+PjUrj277Zjut2eNqmrL2qc4EkgS59P2/aaMgPHZy76B6dPcAh0M3CEz7Casp+5Tze2l3Laef/QhEiAFX3TqOCRHcDQgKfjQgcXExFF+tqtyHn8yePQfkj5JMsPhTo3o1iik0STafhqP6QVG2XeQyaIKgEYKkpaVTwlHxA2EhzZo1kmZvaM+OHXsscvhHkr8RGAzW0T+RUZUNs0EzUhjMHD58VBIR8zl1jEFK7do1xEA9QiU5bTFIPXQ4wRgUOZ00HcTFxlC1+Cq27ckUZu1Hjya6aAVVMb583hBVD5pGNahWdYDY4J3AwN1OMPDDO2S+FgNDaCzr1K5pkCU7AuOr/rFro6fp8fFVKVpGu3JMalhdB3J2+MhRt30M0gO/ORAXsxxPPCEnOCILJ3aPHRMO6TYmlgg4ggAiQYGu7cE3IPG48MdLSTVXUebHIJowqwXZVuS3rCv1FYFBABfgCkE/4vmNjY12eQ9xb5jQKu7+8NwjcACipFkJ+ik97SQdFf2syJKeD8Sljnh/wsQEgJWki3czQZg3q2u9JjAo9K1bA2hkV8dg3qoSb9O+nFNAL/zoPIPsbwTmkvl/UqB4SCGpu3bQ3Buu8vY2qUQERhCONS8+bVmXmcBs/fozan2zvRP7num/07pXn3cqq/7AIdTlKec0lcFbApO2bw9FN2ikLnfZZiQcplmXj3JJR8KFL78ltTaWJ0UiNEHQwEBKQmAigirRnB4PU82wGFnGQRFWue+yF+V+WfzB+i/T720vixZcQDjw/yleOkdNIUEB9On1LaUmRdU9Z3MS3f39vy7kBUToyZGNaFyPmiqr7faqjze7kJiJt7amzo0cvm2vztpHnyy2njWPFsRozZOdDG3NR4sO0et/7Leti0+cmwjUq1dbznrh7jDTClMy/CjhB1MNylLEIOHY8ROWACBPgwZ1DT8Zy0wiUQ3oFEHS83lKYJo3aywvO9sIDAb1mI3GYAA+L+rHWMegLPcbon8Kv6Xu6jku+thuQAgtCQbqSnNhV87p/NO0b98hW7KLAUvdurWpkgftsZpp9vXzhoEaZo6VP5j5vtBXO3fttewzRHvC4M1O8Jzq5doRGF/0j10bvElv1lRMEOAHqBiBLxwGt1ZaO2BZv34dMZEXaFsKMFX1YGCbakFgYgS21WtUc8LPqsCMzEw6dMjV0sEqb2nT8A6AkCqtNcrD84P6oXEoSykLAgOtKTQedlJcFDNPvwkof/ee/S4YgUjh98fds4JrgS3McDHJUiIC00iMpaZOCKRwa5KEOjyWNDEpPfypfDpiitzpbwRm2C/TKaJG0SBy76xptOHt1ygvy3lW3d2NV2t3PkU3cvzoIl+9/oMo/vxO8pKMI4dp+w9fu1x+eNliyj6R6JKOBJ3AyAwYIYsPDtqUuHEDJf+7jcKrVqNq7TvI9WqsCExodAw1ufhScbnjQ1WlVRuDSHhLYGQbxJ/DSxeJ4AYLKDgiklqOu5HCRBuULLz9RjqxeZM6lNvqHTtT77c/NNJyUlNo+/dfE8zqYIbWZLRon/Yh9ZbAhAeF0MROd1KbaId2ARWNXf0ubUjdZ9Tp653rLqwliEdDWeyR1Fzq9dI6uV8nrhL9cnsbql5oWobEV2buo0+XWBOL8SMa0g09i2bFYS725bIjtCcxi9rWjaTHhzekqDDHjFRSxinq/sI6JxL04EXCL6ifI2rUgq3JdMvX22Q7zH/evqoZjWjv6Kf07NPU6dk1TuWY8/PxuYkAzDPgqK8GWpjtChMf+tgYB/HHoBsDL7tBd7zQnsQVak+AEGbhMaOK66DhgSZHlY0fIvyQmeVcJjDme8UxsEkVmiYQhrIWXRuEuqDhQv9AGxYiZsgxiIDmDFt3BAZBH9RMOAbmCOMKzYXYpQix7kSVKrFGPyMo0IGDRyxvDQNAmKoowQAwVZSVLXyFgoSmKKxwRhh1WREYXz9vqh3Q+GBNJPQNBs/ATUniiSRKSnKOvIcBuE7ycR3ywfQFAzs80+aBmRWB8VX/qLaWZqsIDPoEgSVgAgTtKQbsaKc+U2/XxyAv+mw6CDGeE5RRVTwjMLXTxYrAmLHFt0dhi+8VtLU6IT8iNAmYqS9LATHDRI36lul1oe/dfSP1vCXdLwsCo9oCAnlSaNZgxlu1ahWnySiEYbbTQOrfBJSFfsZ/OSkgJmyg3Ykp1O5YERjgqU9kYKIM7UD/Y3IAPphK0sTziN+mEhEYFHJZrwB66Ybi2bmq0G57z4cFNHNN4dS0lsnfCEx94VPS5YlntRaKXfEiZQjTqOPr19LBhfMoYdUK5/PFHOkmUyUJo+xCYER9aMvSB+9xWUgTUdTyBWM9uvpPt63So62VhMDAjGzPjClGHfCHGf3HYgoOC5dp++fOotXPPWmcx87gb38xNDcgL9DS6MTQbObmDYHBopY/d76L4OCv5O5N39KsoxvVYZls37m6OQ1r5zC5mb8lmW79Zhv1bh5LHwvHfmhgIKeE38qNX2ylP3dZq72bVA+n2fd3MNr36K+76Ne1x4xj7EBzgsUyVZlmLUzPZrH01U0t5TXH0nKpx4sOIqUX0qhaGM198HwjCcEGEHSApWIioJvjSKIiHlf1Qw1zLgx6rcQ80EhLF+ZfCc7mX2YzNavBRkUjMApLzChioJ8rBoxlJTCNUgMBDC5gNmIlGKBhPswcyAF5q1aNE4PPOHkZyMu+fQelJkkvxzzAswr4gNlezLgqweDWisThuaouzJlAKtLTiwamZfG8oS1WZos60UL/7BX3rAsIWzUx2IPgndm7D0Ewimbh5cRAAzExIO5FiRWB8UX/qPJLu8U94RmBltBKzO/yrt17nfyeQIL1NaaOJAhiofUfyjQPWq1MyHSS6sD2oNNzCUzxHCmiZDcxYnUPJU1Dfe60FXbPcknrM19XVgQG3wP0uS46MbG7Lzz7eF4g+CYcEeanIB9mgTlhrZrVxXfnmNSgqPMgN/WEJlZJcb8LqAMRMEtMYFDRe3cE0JBORS+kqtzT7W/LC+jhz13JC673NwKDNsFXBINpO8HA+vDyJfTX6y/I0Mp2+VS6rwkMfEWmDrdvn6rX3bY0BAaaouljhrgUDxM1mKpBEjdtoEV33WzkgQZo1PT5xvG6116gPdMmG8dqZ/ikmYTgBBBvCMz45qPohga9VTF039/f0fSEDcZxWe0sfPh8qlfFoY6FhiU8NIjuGVikAQKZGPvBP3Q4Jce2CfMfOp8aVHWU8fHiQ/TaLNfZalz85pXNaFQHh/bkxRl76YulRbOdEaLeTc92MerAWjTwb9EFa9VgzRrIzmNZNET44bBUXAQwIMCPlnnGuLhFFhGGv7rwrYDgB2bXLusFLvVZWauoXOcygQEhwAAL5ACD2mDxX5FD4FbWoalh9oWBJ8QdgZEZbP4o3yOcPnrsuNRUWGUF6YgVvi2Q9JMiNLcYtOiiPwenBCZ7LLRxen7zflk8b3bPrT7AAtEE+dBFD3ABbdpRC7+tGsIEKibaYc6La60IjC/6R29XWe/r920mqfr6Unb9q+OKtloRGH2wboetmSztP3DIa8dzb7DS22R1ndV3zSpfSdP0+q00k6rc4hay1H1g7L7v8IWCjxrE7puhfxOsJgBUe+y2+gSBMl025zVPWEALWioCEyM0OrOeC6TqDuJlrs/t8UFhFQXTsYxs62z+SGDQ0gZDRlDbW+9yMosy3wEG2EsfvEsO1s3n9GNfE5gN77xe6nVbSkNg7AIOwIys9c13yFs3r49To3M36vXGe/IcAg1M6tdVh8jYb3fHvdT8ymvlsacEpmNsQ6l9UYU8tXUS/SDWhykP2f5iN8OfBGRFNxlbKTQuN325jXLy7B3krxcmaE8UmqBlCUf6dk+tkoMeq7brwQB+WXOMHpu0yynb+qe7GGZmZkf+C5vG0Nc3tzLyWwUbME7yToVBICYmSjh6xzvdrzvzAWTUB6xWUcxUYdHRkcJXoHAywmIweK4RGPi7wBkas5cwL9EFJKa20IropjT4YYaJTFmIk3ZNkMyDQuNj5YdkVzccsRs3KtJmY1YdZMwsmNbEoLJKoabGalCiD8Kw7pC369+UxfMGcxdolMwCkycM1iEgOeagEfoAzu49gZkT/FuUWBGY0vaPKtvXWwwe8aziWdb9nqAdUc755j5sIMzH1HN9IimZTpxItmxW06YNjckSKwKjfN1wMTRbdhohnUy50xRbNsLLRL3NVpfakQGrvCVJ098dXxEYLEiMhYnNov8WwLRz//5DTlnM3wSr59rpAosDfX0xKxNNdYlZQ1kqAoNC+7cPoE/u9U4Lgwngq1/Op7U7VLNct/5KYFRLoxs1ocajLhE+LBdQVH3xApoibMDpfMrQvi6mXOp6bH1NYLA2TdZx51kuvT5P9ktDYDZ/9oHl2jcIFd3psQmyerMjP0gJyAnk1Ml0mjKsn9w3/9HL8JTA3NvkIrq78SBZ1ILjW+iWDV+Yiy2T44bCJGueZpJlrmTUO5toy2FnNa05z5wHOlDjeMdMKYgOfF/spGn1CIqPCpGnvxWhmp8RIZt1+Vn43HRsECWTzI78eqjnmcJs7B5eq0aHrkLv6wMC+LJghtWd1Kkj/BkKI1K5m4XDoAaDG4jVYPBcIzDuMMM5DA5BCpQzMBzfob0qC4E/BiJC6YL6srNypL8SnKDtBoi4JlL4q9QWfiveCkx/dux0/i7pA9M9e/c7mVx5Un5ZPG+IqoUgC1ai2mt+ZjGgx4BSCe5Tml6qhMIt+hl+JUqsBnql7R9Vtq+2iCaF9xH+UcUJtE7QkCjRvx9mcqPyYNtIPPuqfDOBgclR40YNjOz/7tht7Jt3dI1ekhiMJ1oMxs3XlPS4uEAL7hYDLmmd+nVlQWDstKn6O2/lyA8fNmhQIJigQZALb0W/n8Pi/bMyP0OZuvkqtFylJjAo9LWbA2hMD89JzCezCujVXwpwqa34O4ExN7x2r77U8YHHKKyKw+8B562c5vXrfEpgxA/Er30668WXaL80BMbs/6IaoJMPECwQLSUXPPIkNRo+Wh4i1PLMy0eqU07bml17UM/X3pFpnhKYz8+/mfpUayGvGb/lF/rp0CqnMsvq4IouNeiFSxrbFr9VkJeRgsTYSXhIIP39nLUmyu4alf6yMFf7zBQQ4LHhDeimXg77Ut2R/5puNeiZix3thFlZ5+fWUpoIyczCCAAB/UfaHSFRaOn53c246rPZuBY/eLpmoqIRGGBgjmDlbqCG/KURHV+rcmAiBWdqsy088sL3BYMIb8VMYOAj01D4hCgpyf36y/NWHCFX94itrqmxIjDIU5r+wfW+kvrCzwNrcXgq5gGwfq+IUgatrJXofjBmAqP72ZiJo7kshPRW4ZjhxA8/irISfVBvrgPt3LvX2U/HnKe0x/qA31caGCv/F7RTv9fi/L9KqnnSnxU7DSbaomuDShyFDAXp0lJ8h6Y9E6gnud3vdE8+pZx0m8UvfWDct9hxduSUOVRJLO4IST+wn2Zfc4njhMVfXxIYtQ6MRTVeJZU3gelwz4PUdOyVso1ZYiHMGZcMtWxvSQjMpC73GM770L5AC1Me8vrlTenijkXmN0eFCRlIBSKKKbn20y22zvutalemqfe0U1nFgpX2fjJGpsKd+3/cQetM2pp+LeJE2GYHkVOO/JXE4plrJ3QmkCXIm3P20wcLnFXDhUXypoIioA8QmcCU7UMA05xGIvqbEjiJY7BQVoKZfkRvwgBRNwnS67Myw9Gd1TGAgK+BJ4JFKZFfyblFYIqc1YsbZOsDNTsCA4xK2j8K39JudadslAXTupTkVKmdgz+LkrpC66oigLkQGC0Ms9k/Rl2PrTsCo/vIFIet7kdh5XOl1+mLfSsyD6IObZMV+fdFnaqMkhAYK/Mv3QemxARGfEdAuiFWpqKqze62+nuBEMnQrlhJmRAYEcqdNn0YSFjkMlt8c/dYEN8WwvRTaFBpj9DODnrc2Q7YqqFnmwZG3UOrG24h/IfkCXX870N6q1MuWyYwQn08cgxd8NB4iU1edhb9PriXC05IaHrJ5dThvoflOU81MGeKwMwW5l9NCs2/QCb+88lmGXFMd+w/KEhJ31f+srzXga2q0EfjzpPn3OWzvNgiEWGW4QcDgflmy/Er6dFhDYzwzAi/3PX5tZa27BbFcVIFQcBbAqMPINwRHt1MxmpQopsJ2JWja3GsyjjbushsR64vIlrW9wIsseI8wierSE6o08ocxMlcRKyQvXPn3hI3T5lkoYASmZBpIZjtnhOUXdzzpms83JWj2mt+3symYaUxIUN7zeJN/5ivLemxbv5l5ziPsvV8ZgKjm4aZzcv0djVuXJ+CgxwmamYNTIlNyMrQj0xvO/yCYDaL1eZzRMhsmD7p2mQ9ry/3ddzdhTuvWTNe+N85zMfh64bvii6+IDCVxSQIFp+E5Jfwm6ATMjsihfKrCe2v8qvzmQkZCp70RCC1F9Yom/YQXfKcK0H5+yOxbkwo0eQVBfTQZ+7Nx1De2Upgml12NbW/+37cgvR/+W1AD7lv9UcnMElb/qEFt11vlc02TQ+jfLZqYOJatKIBn3zjuEcxezF15EDKTUt1ueeuT78o1s0ZLNM9JTA9qzanWmGOCBPzjm2m5FPu/U5cKi1hwtYXuhlhja8R5GXV7jRZUvcmMfTtf4sc5u+buIOmbxTRLEzSpXE0/XBLa5l6PB1ru6w15fD+EJHIEJEM8t+vtslwziLMu5SbRUCBRdutHSwdOZz/jrv2ciebb/zov/5m0To+zrn56GxFwFsCoztVZwtzkf3CbMRKsK5GjcIF/zArj5loXfRZfruF6fQQvOYBpV6W2kfggNAQ8QNUKPD7SBYzyv4iOjFAm+wGwWXdXrMpmzk0rplolaad+qDF3QDX7p599byVlsCgffoMsl0ELHOkLHcaGLt7Lq5/7K7zNl2RNVxnNvFUZYG4wZldRdEzExg91LAdMTSXYSYwqEvH1p15kT6ot9IeqnafC1udHHrq9G7l3+ULAqNPJgHb3Xv2yXWlvMFZ/61BsAeYIFuJ2UzQJz4wqOjNWwJoVLeAYgnMG78V0IfTzz4CE9vsPErZsd0KU6e0nq++QzW7OUiLXVhhdUGzywXZuctBdrCQ5awrRqlTHm3PBQITKAYVY+YuI6wXA9k1+Rda/9YrLvc/Zs4yCiq0x/WUwLgUUg4JtWMr0ZJHOxo1tX5ilVO0sen3tqcWtSLk+ZTMPOF3ssZF81FXLHa56BFHGdCYtBcRyBCJrDSih0pGmYq8bDxwkhCZzBtZMG+SES5XXXdB50G2C1ypPLw9uxDQf1TsBiD6HenqfaSbB78qr/6jaWXWECUch7FWAMTOptocrckcFUrVpbb6vai00gy+VRm+2uoOyFaaD1/V40k5xQ0Y1QKHKKs0ztK6j4UVkS2urb563nxBYPQBpdX6R7gXfTYcxyUhMLiuuP5BntKIWaNk55+kTzSgPjOB0XE1+0Cp9umhsJFmRWD0dUjUAobqerXVtWxIc2eGpK45m7f16tYSC0OGy1uwC22Mk/p3z2oNF/1bbKf5KM4HBvXo34SS+B/p2nu7dXzMZBckx2cE5o3/BtDo7sUTmNd/LaCPZp59BGbYrzMoNDKKtn79GW2fWKgxQM9pUrffQOr2zMtGyv55f9DqZ58wjs07TivQC+3DjLHDvYoidi4QGGDS7dlXqG7fARIehFJe+tDddGztagMu/TwSPSUwv3S5m1pFOSLuPLb5J5qasN4os6x2Rp8fT29c0VQWnyoc4i94Zo1TVW3rRtLku9oaac9N20tfL3eN7vTvS90NkvHHPyforu/+Na7RdyIrBdG4C2tSsGAk78xzDf+p8iIkM0Izm2XAa+tp3wlr50pzXnXMBEYhcW5v9R8/TwiM/IFpImZkYSss5GSGWChRLGimi/5jiHSriDPmwYjZHwT+Ig0bFq2C7YkGRr8X1Z7yIDBoKzQFCI1s58Qcr62zgLaVZQQj+L3At8Yuyo/uc4C2WM2+6wNXYO8uFDO0DjAJxKyqeQVvs0bC7hnD8wTCijbrvgW+et70gbZdG4CF0kpYPW9Ylb56fNEaSObFPeEn0qBBHUNbgfKsCIwv+gdll1agWVHrQCGgA1Zn1wV9h2h26l3HOTOBgW8VyIfS0Ji/B3g3gImqB2VYERjdpBTY798PHwnhq1AoaAOiGipfHLs1Z1T+c2Gr+98Ak0OHEmQUQf3ezOQQ0fWghdHFVwRG/yagfDsNGDS4WB8Ivwu6T5z5m29+llCmedKq1AtZolAlFYHARFSvIW8XA+i0vbspdddOStu3hyrXqk3VO3WlqHr1FRxUIMLJzb3+SpnPSDTtQKNw8azFFCBskCEYvCduWk/QxuQXOsodWrKQjq62XruktAQmpkkzqjfAYZalmhZVr4GxWCfuc8evE9UpuT156ADtnTHVSBv681RCOyAliUKG6yrFxhGCH0gnKSQIMpe6Z5fEIa55C2MBS5yCeEpglvV6kmqGxchrHhdRyH4uhyhkiD6GKGQQmI7BhMwsE29tTZ0bRctkaFbOf3q1WMDOmdSDBIEMKQHJQCCAXcezqEpEiNTidBWmZhc0jJZEZ+qGRIIDv50Mal2FPrzW4Vej8vy27jg9/MtOdejxlgmMx1Cd1Rn1Qb+7gZ1+k7qNMtKhYUlNSRO20QUUIVZbhp+FEncDDd28CLO3mG07JVYExw9dbFyMMShCWVYDSlWH2ur3otLKg8DoEarwg50t7OShVco/nS8GXCEUUTlcrBfl+P6jXdC+YGCLey4LUWtzoB4QJdkegSsGpJGRlSk8IszA1m5NFLRLN9fBMQanGRlZkhzBLwD3DbKKQSrEzolbX9cB+fBMYLCMdsE0Bf0Nk0MMhq2iLfniefMFgcEgWl/8Ff0H0gqyGCqwBTHRB/u4VysC46v+QfmlEX2GH+8X+iM1NV0OOuHzECMImyImqh7LQadp8U7MrmdmZclnHgEkzJhYERjkwfdA5UV7YP4Jn5MgMSCOE98DFYYZbbGaFFFtPFe2wALvoArAAUxATuDnAkKI9ziiUEODe7ZbWNNXBAZ1mL8J6GdMOCAsO74D4eJdjhKmvHhudotFa/Es6KJroZEObRvuCfeKdbTUArzynDBbB0liDYyOoJt9aGAUgXGTzTi14e1XaedvPxvHdjttxKKYLa653u402S0OiQtKS2BajrtJLDB5u23dVifMvja+IDCop07v/kIT87JhSmau+/DSRYRQ1RB/JjC6idiHCw/RG7P3yzbrfxqJdWLmauvEIPoXooDpEhYSSKue6ESVhYbFE3ly8m6auMp5tlu/LjYimNY+1dlIOiUIU6dn11BGTlFkIONkMTvLl05zGogie4eOA1w+SMUUw6f9HAF90O8pgcGPDWZmMSB2JxjgwaEUAyMrMc/omfNgwKxCpnpCYLDOCmb/dClvAqPXbbUPTDDQ92ZhSaty3KWpAbK7PDiHtkDzhahCVoLZbgxyQTI8ETsCgwEY1nOBT1NxYkVgfPG8+YLAoO0gbLVEKF/zwF7dFzBFe5W4IzAqj922uP6xu87TdDjPwyzO7l5QDgg5/ivNhxWBwf3CPEgffOptAJEGoVfBI6wIDPJHRVUWJnjV3bYH+UpivoTrzkYx+83Z3QO+j3v3HrBcZ8mXBMabb4IVgcGEDn47FCmzux98k2AiiGfHZwRm/JUBdMPgAEoRftK3vZNPqZqmqkZsAH15v3gVxLt770fCVGp18bNL/ubEX6NLdzrvqmupatsOFCQ+3naSunsnrXlhgkf+MqoMDN7b3XkfhVWtRkGYsdI+crun/kZ/vf6iyuq01QkMFs6cPLCH0/niDppf8R9Zb3H59PNmAnPR978ZmqdVz46nA/Nm69nlvrt1YPTMsc2aU9cJL0mNVmDhzF12chIdXDiPDi2aR33e+URmh5P/1BED9Est95f0eoJqFzrxP/DPRJpyZJ1lPl8mbnymi0E6rv98Ky3bkWJZ/CfXtaD+LR3rKWChSvjKmAXmYc8Jjc7I9g7TBPN5HB9IyhaBAE7Qx4sO0Uk3ZCRImJghuIDyfXlxxl76Yqmr6ZpVHXoaZmlXrpipJ9E//2yjK6++1SmND85+BHQCg1lxmJJ4KhgUYmbUagCE2cCDwuRBNyGwKtccyhV58GOcKWb6YQ7hzqRHLw+DKH0BQZyzCw6gX+eLfZAmDNDx42yFhaoD2hDgix/lspS42BiCuZPSjFjVhUVL0RY78qJfA/M4q9l4lQcaFdwbtBHu7g3O6dWrV3UyJ1JlqNnlY8dO2E6SlOZ5002U3D3nnjxv0BjVFRGZzIMw3DsIe726tY1zVuZ5vu4fhWFJtpiEqF2rhuWzAtKBtV3gVK3IZ4IIH4xZcysBxtCkqUkE4IHJCzxnMClSBMbODwNl4h0CtqoMvR48I8eOClM3MTNfkQSYwF8QGk8rgQYDmgq7b63uh3ZITJ5kiHffLLrZLzSKmNiwE3xr4+OryAlOq+8dopRBk4dFRkHCzYL3Bs+Urj3S86B/EfBDic8ITNcWAfT9w0WzC6oCfYsQyz3uz6c0jdzo5/V9fyMwetuiGzammKbNxMBd2HeKGahTJ08Kc7IdlLx9q2UELf1a3vcMgYgaNSk7KUlGcsMVTS4eS+ff/6i8GCQR5nkVRaCFOa9mBLUUzv8gItCa7E/Koe0JmR4vPHlbvzr04EUOE8fSRDa7/PLR9NQT9ztBP3rMdWLl8L1OaXzACAABzMrBrwI/TIhMhkGL1Q+XHVqY4cf1wWKLQRO0E95cj3KjBOmGqZIuJQnbq1/v7T5+2DG4BXHA7HYB1kURkdCyxY8iBgXlLWgPcIXpDQaEaAtMPeBbYDfYcddGlAETkSDcmxiXgPyUpKwgsSYDBrOSYInhBMrAf3fkR29XaZ83vazS7MOMzmEiFSjNYDwhg3p9vu4fvWxv94Epnl08t3h/S/IOqjpxX/gW6M+Yrh3dIzUF1lo/VQaux7MLggUzJLTn1ClncySVt6Js8Z0EHiAy+D5iksib96YscMI7gHcZ3wSsA4XvnJ3G3Vy/+l7iucP9oI9xP2bxGYFBwdDAPDQ2gEKdNfWyziRBjG8Vmpn1u8xNsD72ZwJj3WJOLUsEer3+LkELBjm8fAmteMx5EF2WdZ/tZVepHEJ/jr9Akh/ci7tFNIu7108/foO6d+9kZFu//m+69rq7jGPeYQT8DQGYnkRHRRrNMjsTGyd4hxFgBMoVAQy8sQ6Mmq23i3hWro3iys4aBHxKYHDXgnRRvPCbxuKWSvKEmf1xEXIfW0+FCYynSJ0b+c675jpK2rKZjq9f63JDMC0b+Nn3hmnd8kfuoyN/LnPJxwmuCMD35fe72xFCM0OW70yl6z7b4prRw5QVy6YTzD0gmBkZOvxqEYXosIdXczZGoPwR0Gd4YWqyZ88BW1Ok8m8d18gInLsIQDMHs2OY5llpTmGihvMQd0Ejzl2E+M5Kg4DPCUxpGqNfywRGR+Pc3x/28zSKqFlLmOOlCxKzTvoQFQizhiqt2lKt7j0N8oLob3PGXX7uA1KKO0QUtC6Noqh1nUhqWj3cKAmO+1gUE+vPlERgO79syTTj0pWr1tHN/2VNmAEI7/gdAjA3QQQjJWUZoljVwVtGgBFwIKAWnMXEQVZmtgwljmiCMBFERKrQQl9X5Ha3SCXjyQhYIcAExgoVTit3BBSBcVfxKRF5aMGt11H6/r3uslX4c0sfu4BqxTgHmsjMPU2XffCP9JspKUBwhP70kzfl5XDGu+rq25wc6kpaLl/HCJQVAhgowYleitAYHjh4xMn+vqzq5XIZAUaApIN/vXq1i4UiSYRJTxRrBbEwAt4gwATGG7Q4b5khgHDODYeNonARiU2PwoYKETb58IolclFQrK/D4h6Bv5/rSuEiDDPkWFou/bUvnSZM2UMnTrp3jnRfKp9lBBgBRoARYAQ8RwCO/zVqxEsiA22oLtDKQBtzJOG4dDrXz/E+I+AJAkxgPEGJ85QrAuHx1UUo5TpyYc/k7VuMRT3LtRFcGSPACDACjAAjwAj4BAFEloJPDCLNIWqYHonMJxVwIRUOAScCU726Y+Xv9PR0GbbsTKLR88Jusvqdu/ZQQoL9An1nso1cNyPACDACjAAjwAgwAowAI8AIlC8CTGDKF2+ujRFgBBgBRoARYAQYAUaAEWAESoEAE5hSgMeXMgKMACPACDACjAAjwAgwAoxA+SLABKZ88ebaGAFGgBFgBBgBRoARYAQYAUagFAgwgSkFeHwpI8AIMAKMACPACDACjAAjwAiULwIBTZq1L1BVshO/QoK3jAAjwAgwAowAI8AIMAKMACPgjwgwgfHHXuE2MQKMACPACDACjAAjwAgwAoyAJQJMYCxh4URGgBFgBBgBRoARYAQYAUaAEfBHBJjA+GOvcJsYAUaAEWAEGAFGgBFgBBgBRsASASYwlrBwIiPACDACjAAjwAgwAowAI8AI+CMCTGD8sVe4TYwAI8AIMAKMACPACDACjAAjYIkAExhLWDiREWAEGAFGgBFgBBgBRoARYAT8EYH/BwAA//9SsUBdAABAAElEQVTtnQV4FUcXhg8ECSE4hEBwd3d3LVqKtdBCqUNpC1VcSymlxl+htBTaQou7uzsEDxA0SIAQIBCF8M83N7uZu9krEaLn9Gnu7szs7O67Afa7RyZdydJVn1GUeXjkk1tBQUEUEhKqNSfJZ6OG9eR5L/heolu3/JPkGvikTIAJMAEmwASYABNgAkyACSQvAulYwCSvB5LUV5MufXrKXb4SpXNJT+FCyD685JvUl8TnTwACrSvmphJ5s5jOdP1+GK3yvmvax41MgAkwASbABJgAE0huBFjAxOGJZMzqTmX69KOcpcqQe6Ei5JIpE4XdD6Tg2/50c/cOurppPUVGhMdh5qQ/pED9RtTwq+/khYQF3qOVXdok/UXF8gpc0qWnFvkqUHn3glQyqwfly5yNrobco4uPb9Oym4fpdtjDWM6Y8ocfHlObcmTJYHojBy89pD6/njLt40YmwASYABNgAkyACSQ3AixgYvlEKr35HpXt0194KFxsH/nsGflt20z7xnxme4zo8Wragsr0ekWO8duykc4vmm93fGJ0pmQBk8UlEw0o0oTeKNaMsmVwNcX19Fkkzbi4kX4U/6cVS5eOyGdyfUovPs3s563X6Zv1V826uI0JMAEmwASYABNgAsmOAAuYWDySOqMmUJHW7Z064pHfVVrXt7vdsVUHf0Sle/aVYwJOeNPW9163Oz4xOlOygKmTqyTNq/WOU5hGnF5I/13f79TY1Dho/8halMc9o7y1fr+dpr2+D1LjbfI9MQEmwASYABNgAqmQAAsYJx+q+mKPQ8IfPqCTM/9H13dspYjHjylPpSqUr1oNKtG1B7nmyk0pVcBkLehF8DLBAk4epwuL/pXbKeGHKmDm++2ldf7HyfvhNfJyzUUveFajgUWbUub0ljAqeGLKbfqUnon/0ppldElHZyZZimTg3iuO3E9hTyLTGga+XybABJgAE2ACTCCFEmAB4+SDa/X7P5SzdFk5Grkhq1/sQJFPnpgeXbhFG5EbU4jOzP3DtF9rTI4eGO3aUuJn1RxF6O1iLWiiz3K6HhoY4xZUgYPONnu+Enkxd2KMS+0NdUpkp3lvVpS3ee9xBNWZcCi13zLfHxNgAkyACTABJpCKCLCAcfJhdlmzlTK6Z5Ojj347lXyXLnDyyOhhmXPkpAxZs+oN5V8dRMXad5L7Dy5eoD1fDNP7tI3wBw+Eh+eRtmv1iYphbp4FZNuzp08p2P+W3M6Sz4OKtulA2YqVoKdhofTgwjm6vGYFPQ03Lyzg4upK6UTiu9GePX1i8xhtLLxNLlks1a1C796R43FdBRo0poKNmlJYYCD5H95Pd44comeRjr/lx7UUbNCE8tetTyGiKMK1zRvo4eWL8nQolpDOJQM5c13a9amf6SgdnW/9td408Mgs2hFwVt9PqI3sIlk+S0YLTwiEiKf2vTwe2cR9ifwUkTpFt4PMnxH6qxRyp9L53cgrV2Zyz+xC1+6Fks+tYNp/MXZFCT5oXZgGtywkb3fX+fv02u9nHN565gzpKaebxXv1IOQJhUaYP8u8IizNRSTbPIl8RgGPIhzOmz97JmpUOgdVKZyNrgeG0rFrj+jIlSB64oCZw4l5ABNgAkyACTABJpBqCbCAcfLR9th+kORbphh/dPoU8l22yMkjo4e1+HWOKFFs+eY7utX+1pX1a+jgpNGmg7J6FqT2C1bIvsiICFrSsj7VGzeFCjVrqV+rdiAEzqGvJtCVdau0JvmJQgL1J0y1atN2nKlChvPjOmCHxfz5atamIi3bxjh/8K2btPnN/rJamza/8VP1SKl94UEPaeewwdRy5lzZ/DQ0lJa2aaQOcWq7YnYvWl73Q31sne1j6V64uTjUB8VhY+ar5ahF+VzyyDHLL9E/ey3C0mwq1RuC/gaTRJU0RcTUKpaNPmlflKoWdpfCwGyO+8FPaOSSi7TuZIBZd4y2+W9VpNrFs8t2JO8jid+RDRWiZ0iU6NlyJpDenBNT+BmLBVQatd+m0MF9/9yvrGllNAikt+f6EKqjsTEBJsAEmAATYAJMwEiABYyRiI397pv3UvqMlqTnB77naeOAPjZG2m6Ok4ARguPg5LGmkxoFzJk5s6jiINtJ7JdWLaPDUydazVWkVTuqM9q6TRsQWwHz8Molyl60uHZ4jM/Ht27Q2p6dY7SjoeGUb6XXxrRTNMJ7BA8MLC4Cxs0lM21o8Al5uuaQc/iJssrNdk2W2wn946M2RejdFl5y2oUHb9Pni22vpbNpeHUqltdSMW3T6XvyxV29nt8HlKemZXOqTTa3e/18kg4L74UjOzq2DmVztVTRe/F/J8hbeD0c2ZxBFahhKQu7GZv96LuN12IcUq6AG60aWlW2hwgPTWUhYIwGkTOqU3Hq38DT2BVjH6WdWcTEwMINTIAJMAEmwATSPAEWME7+CnRYuIrc8ke/dF1eu5KOffc1PQkJdnIGorxVqlP24iX08YVbtKZ81WvJ/cc3b5DPvDl6n7ZxY9d2Cg0wX2RQFTByPGKQxBsirumu9zEKPHeWsuTJS3mrVpPr1ZgJmEzZc1DJri+Kw8WbpbDcFSrpQiK2AkZOIH7c2LlNFDfYQhnc3Kl8/4HkKq5Bs63vDKSAU8e1XfnpUaM2NfnuZ70t7MF98vlnDiGsDmFoJbuI68Obb5TFVsBkcclI82u9R5WyW8KmME2PAz/SsQdXtCkT9LNVhdz0S39LvhTEAUSCmbWskIt+7V9OdomIK+F9OUR3DWFXe76oSR4izOrmg3C52OSp64/J904IlfbIQi3FedqIBSqRlA87ezOYXvjeW27b+oHQs2Pj6shunLP8iH30FBsOTK1ahpAzhJ4Z7dWGBYQ4KSabT994TJ1/sH7O6BjxQjEa0MgS9oh9hIvN3nWTLt0NocoiRO6LjsV0cYXwu/rCI+XM9WEuNibABJgAE2ACTCBtEGAB4+RzLiJySuqMHG89WgiGxyI06s7RQ+S3dRPd2r/Hut/BnhoyFZcyyjEEjDgfrmXn8PdjLKSJKmqRIozM/8Beu1elVluLi4BBGNml1cv1cyAfpsu67ZTB1ZInc3XjWjowYZTej402fy3UPTcQL/DSqMLQGOYWGwGDRS0X1B5MSPDXbMjxv2itv/0XfW1sXD6R17FbCA8YwqFqjhPhhyamiRN0zd1zi8avuBRjFDwVO8/dFy/4oTH60FC/ZA76640Ksg+VxFBRzJ4htA0hbjD/h+HUcPJhe8NlH3JafCbX08fBswIPi9F+6FuGOlTJI5v/2edPY5ZdtBpSUoiu9R9V09s+W+RLiw7d1vexgfwhiCVNlLEXxgoP7zABJsAEmAATYAKCAAuYWPwaIFcEL9O2DC/WN3bvoCPTJsnSyrbGae0JLWCQK7Kio+3r085r7zM+AgaeolXd2sWYHiFqCFWD3T1+jLYNHqSPgQeo86rN+v7hryfRpZVL9X1to+PiNYTiBLDYCJgRZTrTgKJNtGnogxN/06pbx/T957Vx7svohSNLf75XJuir5+paIx9N61lKNkF4QOTYSoxXjzPbvjClvmyGI6WMOJc9Gyk8JK8JTwlsw6l79O5fPvaGyz7k3yx+r7LcDgp9StXHHjA9Zusn1alwblfZ98H889JjpA7c/HF1KprH0v/r9uv09dqrare+Pb13aepczeK1m7z6Mv2x86bexxtMgAkwASbABJgAE2ABE8vfgaLtXqDKbw22CosyToEX7J3DB8uXdWOfup/QAubYD9PivW5LfASMrYIDCCOrOOhdeevG9XHy165Hjb+ZIftQaGBx87oqIn27yrtDqUzvfnLfWQFTI2cx6X3RJhl9ZjHNE+vDJIap3pX233rTef/oUENEwx0aXVtPYP9qzRX6bccNh5eVVYR/lRJejEKiChm8IrBswmMxrktxuR0c/pSqjDYXF3KA+LFsSBWq5JVV7k5ceZn+3O1YHAxqUpA+61BUHoOQr54i18bM4KXRrstYjACiCeIJBu9NldH7Y4g62Sl+vNeiEH3YprDcdZRDpB3Dn0yACTABJsAEmEDaIcACJo7POnvxklSic3eRw1KTshUpRukzZLCaCUnny9s3ixHKpQ5KaAGDtWlC7liH5Kjnc2Y7PgLm1KyfTNe+QanoWp+Pkac3JvJDlECcwCIeBdHyDs3ltvGHOoezAmZoybY0pERrOdWWO6fpzWN/GKd9bvt/i7CueiK8C/bJwgu05PAd/VxqrghCzGqNP2jzZb64SPAfIwQKQsU0caBPZNhAbkzbb+x7l05MqKuXeDYKK8N0+u5PoloYcm1g8IbAK2I0FCJAQQIYykYjt0a1DcOqUYl8ljBCeJwghGxZKQ83ypfNUjDjLxFaN84ktM7WsdzOBJgAE2ACTIAJpH4CLGAS6BkXbNyMagz7nFxzW3IAMK1Z0rx6ugQVMCIfZ1HT2ur0cdqOj4Ax5r9oF6CKDwgsCC3Nan46iop37CJ3UWp5Tc9OWpfVp2fdBtTo6x9km7MC5vfqg6hp3nLymBGnF9J/1+3nh1idMJ47arL6HOHlmCC8HTCIkKNja5NbJksVsCH/nKO1JwJkn/HHjJfLULvK0b9Pxn7j/irvu4TQLVuG9Wb2jKgpu50JN9Pm2f5pDbn2DPbfmnuWNp8O1Lr0z1518tOk7iXk/oXbIdRuerSQwpo4EE5xsSnCOzXLCe9UXObmY5gAE2ACTIAJMIGUSYAFTAI/t07LN1BmsbgjLOjaVVr/cnebZ0hIAaOtA2PzZE52JLaAqfb+cCrVo7e8uhCxEObq7u1NrzQuAmZxnff15H14X+CFSSzrUj0ffdPLkuOCUsBIRodhLRWsqQK7EhBKLb8+KreNP9SEePRhjoUi4R3VvR6JPBRtccxFIjelQA5LeWlHa850qZ5XXFNpeSp75zZei5rPU0Pk6jwUXiOjIZ8HeT2wxcLb9KnwOmlWoWBWWvF+FW1XLFgZpm872vjo3/NOlYZ2NA/3MwEmwASYABNgAqmHAAuYBH6WFQa8Sfgf9iQ4mJa1i04gN56KBQxR8U7dqObHIyy8QkNoWZvGRkxyv1T3nlTtg0/ktrMemKQUMCVFuNR6ETYFuxOEcsCHyFV4IrAGi1ZhC7kkZqFUCBvbGBWOheNtJbKjYteRMdFeN0chYV++WJJeqm0phLDi2F2COHBk6rXYy7FRyywbq4upZaX9hHhp9tURR6flfibABJgAE2ACTIAJ2CTAAsYmmrh1lH6pL1Ud8pE8ODIinJa0bGBzIlXA3Dt9kra8/ZrNsWYdahnllOqByVWuArWcOddyeyIMbkWnVhT+8EGM2607djIVbtFGtjsrYBrlKUMFXHPKYzbdPkWBEY9jzPu8GpCof15UIoNp4VpY42RgY0sFMNUrY7wGVWjAW9HUxgs/FsvEopnqOYxzqfsrhRekvPCGwEYuuUj/HvBXu023UQ0MVcFgttaZQVGBbSLMTLNmU4+Q371oL0udEtlp3psVZbcm5rSx8fksVKggvTnoFaspVq3ZSAcOmHu1rAbyDhNgAkyACTABJpBiCbCAcfLR5Sxdlu6f93E4utHUH8iznkW02CorrE1SuqcQO4MtYgcLWa7tZb5KvTbe+JkaBEz6jJmo28ZdhPViYL5LF9LRb78y3ip127CLXFwtJXidFTAxJknkBlQay+lmKe6ABSaXiwpgWiJ+CxE6dlWEkJnZf+9UoppFs8muNccD6P1552IMg2hAWWJtPmc8GwdG1aLcWS3J8e+I8skbRRllR/Z2cy8a3tYikmyJrn+EOKkrRAoMi06W/cI6gV8VOBBzVUUFMrN1ZBxdi7G/Vasm9N30CVbN+/YfpkFvWP5MWXXwDhNgAkyACTABJpBqCLCAcfJRdli0mjK5Z6Mzc2aRz/woj4Hh2ELNW1G9cVP01qub1tGB8SP1feOG1Qr0wvuwukfHWFURSw0CBkzqjf+KCjVrKfGglPLOj4fQ7UPR5YDVfgxyVsAsrDOEKmTzkvN+fuo/WnErcb+Zx9opWEMFBk+KlxAdsNVClAw1ESWyU/z48/Xy1Ki0xXNktu4K5lkoRI6HWDBTs3UnA2jw3zGFjtaPT1VQ7b7wgF6d5Tgn6P1Whej9VpacHYiTimIRyyeiyphmbzX1oo/bWwQO2mzl1qh5NPau1V2Uiu7f0JMyiGIHP2zy005j+skCxhQLNzIBJsAEmAATSPUEWMA4+YghYNw88svReIF+ePkiPfC9QA+vXKKsBQqSR626lK1w9Ivcs8hI2vhabznO1ingUei6djulc7FUpMLL+93jRwnemMgnlkTp6zu2kv8B87VL4itgcpQsTYVbWsKytGvMVriovlgn7vP8ovlal/x8dP0aXV69Qm9rv2AF4TpgcalChuMy58xFKH5AiLuCCTH34JKv5JCrTDl9AUtLp/MCZlfjUeTpmkMe9oWoQrYgEauQ4aSoyoXqXKpBBNSdeIjuB1uer9qnbUMwQDhodvL6Y/p77y0KDI6gRqVy0sv1PSlqGRhtCE1adZlm77K/pssCIXpqRHl2cCByWo5efUQPoq4F+TjGdWFai/LJP4syyppduxcqS0Jj0c1OIrwMCfqq2aqEhoIGKGygGYQOqouh9HNut4xUroCb9OLULJZd3pszOTosYDSa/MkEmAATYAJMIG0RYAHj5PNWBYwzhxz7bipdWLLA4dBKYlHMci+/ZnOcrcUhcUB8BUz5/q+LBSbfsXlusw5jrk1CCBicx6tJC+GJmaKHkhnPfWPnNkKpapizHpikFjB96uanCd0spYXlhYsfWLASC1faMyxYuVeUO9ZKLZuNRalirGqvFQTo/MNxWaHMbKzWBm8QvEK2bKUow/yhoQwzrmG/CD1DKWQzexz2VAihSH3dFluV0FDAAIn+uDdnbNTSizR/v/0cnZ49u9DokdbhYtu376H3hnzuzCl4DBNgAkyACTABJpBCCbCAcfLB5a9Tn8r26Ud5Klcjl0zRoTvGwx9cvEAHJ41xKl9GOxYv71Xe+4Bc8+Qll4wiR0HzRIgBF1csoSPTJmtDrT5VAYOFM5e2amDV72inTK9X5HkdjVP7jQKm7T9LdM/T/vEj6Nqm9epwuW1vHRh1cM7SZajumC+lRys9OAgLDbxHfls30fVtm6jpDzNlG5L8V7xgCTmTDTZ+7Gg8kgpGJfEPOzmflt88bGPk82muXMidlg6OFgzI+6gx9oBeAtneWZFs/4vwfGhhZ9pYeHCwbsynC33p1ETL2irIKyn7xV6bi2Fqx+IT8w4ShQTgWTEKJFuiAUn4v71aLob4OO8fTP1+Oy2rreUQFdFg9iqhITxsgvBKdaqaV441+wEPzyrvAPp123V6JMSRPfvl56+pUcM6VkO69xhI5875WrXxDhNgAkyACTABJpC6CLCAicPzzF6sBOUoVVq8uBeV4V8Rj0QYju95CvQ5Y1pBKw6nSPOHuOX3pNB79wiV3GAlu/ag6h99JrchEhGelxYMXpNKXlmleNhx7r6sBJYU9w1PT90SOaiMZxa6dCeUdp2/75QQM7tWeGHKerpReRE2hiIE8OJcFVXLfG4Fm64xYzYH2nbvXEk5cliKB2D/+InT1Pfl2HkUcRwbE2ACTIAJMAEmkLIIsIBJWc8rzV5t42k/ErxgsBu7d9Cez61Dh9IsmDR64+7uWWnfnjVWd/9Cp1fo8pVrVm28wwSYABNgAkyACaQ+AixgUt8zTZF3VPblV+ne6VN05+ihGNeP0LJWs/7RQ+t2f/oB3dy7K8Y4bkg7BPr07kYjvvhAv+GDB4/RgNeH6vu8wQSYABNgAkyACaReAixgUu+zTVF31mHBSnLzLEARj4KEiDksc4ieRT6l3BUqU4H6jXTxgupvG/r3TFH3xheb8ARm/Tad6tWtKSd+JqrWtWvfm67fuJXwJ+IZmQATYAJMgAkwgWRHgAVMsnskafOCNAFj7+4jHj+mLW+9SkFXL9sbxn1pgMC308dT9WqWAgk7d+6jUWNiLn6aBjDwLTIBJsAEmAATSJMEWMCkycee/G4a5ZyLdehMWUQlNrUKG64UZZNv7NkhFwXF+jpsTIAJMAEmwASYABNgAmmXAAuYtPvsk+2dZ8nnIUopexEW9gz0Oa0v6plsL5gvjAkwASbABJgAE2ACTCDRCLCASTTUfCImwASYABNgAkyACTABJsAE4kuABUx8CfLxTIAJMAEmwASYABNgAkyACSQaARYwiYaaT8QEmAATYAJMgAkwASbABJhAfAmwgIkvQT6eCTABJsAEmAATYAJMgAkwgUQjwAIm0VDziZgAE2ACTIAJMAEmwASYABOILwEWMPElyMczASbABJgAE2ACTIAJMAEmkGgEWMAkGmo+ERNgAkyACTABJsAEmAATYALxJcACJr4E+XgmwASYABNgAkyACTABJsAEEo0AC5hEQ80nYgJMgAkwASbABJgAE2ACTCC+BFjAxJcgH88EmAATYAJMgAkwASbABJhAohFgAZNoqPlETIAJMAEmwASYABNgAkyACcSXAAuY+BLk45kAE2ACTIAJMAEmwASYABNINAIsYBINNZ+ICTABJsAEmAATYAJMgAkwgfgSYAHjJMFM2XNQ/lp15ejQe3fpzrEjTh6ZfIe5exUmrybNTS8Q93hl/RrTvrTS2Kh0TnmrTyOf0V7fB2nltvk+mQATYAJMgAkwASaQrAmwgHHy8Xg1aUH1J06Vo0PvBdCqrm2dPDL5DivT6xWq8t4HphcY8fgxLW/f1LTPVmPNnMWoZs7iVNwtHxV1y0N3wx/RhUf+tPnuKTr18Lqtw5Jle7G8rrRpeHV5bWFPIqniyP3J8jodXZRHtkzUplJufVjE02f03wF/fV/dcM/sQl1r5FObaNGh2xQaEWnVxjvJk4BbJhfqXtP6+Tm60uuBYbT1bKCjYdzPBJgAE2ACTCBZEWAB4+TjSI0CpkTn7lRj+BemBGIjYLoUqEHvl2gjREte07nQuOH2SRp+cj4FPw2zOSY5dfSqk58mdS8hL8nnVjB1/M47OV2e09cyqElB+qxDUavx1cYcoEdhT63asDP1pVIxXoDLjdhHT4ToYUv+BFpVyE2/9C8bqwvdJzyLr/x2OlbH8ODUQcA9Sy7q1ehTeTP+gZdp1aFfUseN8V0wASaQJgiwgHHyMadGAYNbd80lvp1Pn15SyFOxiu5lio2AudB6mlMU190+ToO95zo1NqkHTetZSvdGLBReiM8X+Sb1JcXp/D/1K0ttKkZ7YDBJ719O0qHLQVbzeeXKTFs/qUHp00U333scQXUmHIpu4K1kTeCLjsVoYOMCsbrGn7Zcp+kbrsbqGB6cOgjky1GYvugxX97M47AHNPLvjqnjxvgumAATSBMEWMA4+ZhTq4BRbz9P5arU/H+/y6a4CJg9987TPL+9dPT+FXom/uuQvyq9VqQxFcoS/QLdbf/3dOLhNfW0yXJ7/bBqVDJfFnltnwnxglCqlGjbP61BECeqjV9xiebuuaU20ZxBFahhqRxWbcj76cffzlsxSc47C96pRDWKZpOX6CdCw5YcvuPwcpcdvUNXA0IdjuMBqY8AC5jU90z5jphAWiLAAsbJp80CxjaoOTXfohkXN9DBwEsxBuXM6Ea7m4ymzOkzyL5xZ5fSX9d2xxiX3BrOTKpHGV0s7ohmU4+Q372UEfpm5Hjuy/q6V0XUIpDbyIEZseSiPrRyIXdaOriyvq9tzNjsR99tTP5iU7vetP55dGwdyubqIjH8KJ7d9/zs0vqvhN37ZwFjFw93MgEmkMwJsIBx8gGZCZh0IvTKs34j8mrUjEIDA+jGzm1078wpJ2ckwvG5K1aW1c3cCxeh++d8yP/gPnrge97pOTAwW5Fi5FmnPuUqX4Ee37xJtw8foLveR+hZZOySr+PqgXF0scvqfkCVsheSw2Zf2UGTzq1wdEiC9ePlvITwpMCbkiVTerpxP4wu3w2lXefvExLazaxgzsy047MasgsVyMp+sU9uF8qdmdpXykM53DLQOZEXs/7kPUKCvzOGZPqm5XJS0Tyu9Eyc9vSNx+R97ZG8HuPxWTKmp+xZLIIvKPQpBYfHzFcxHqPt53XPSC4iDgzXjetc/1E12YV7xb3j/IevBFGvn09qh9A6MaaURxbCuWDaS/Crs07T7gvm1ddwDnzb30B4bZD8f/L6Izp4Kcj0fvQTmWzE5fkYpyki7ql8ATf5nHH/tx9G0HVxr3jG94OfGIfH2M8jjqleJBsVFs8Xzx4cfG8Hy/u5HRQeY7ytBni6mpfLJRkfEYyRHI8CCOmEDs6cwRKmiedi6/dOmzer4FmvZHaqVyIHhYRH0rFrQeJaHurPRxunfiKB//j4OnqTvWenD7Kzgd8BzAkDA/zOwuqXzEGVC2Ulj+yZ6JoQ9fsvPqCzN4MtnYafruL3OEfU7zGeg/ZnpXR+NzFPdsHblRCmeMLvsXxWhsOtdjFXy/K5qKT4Pc3mmoGQl4bfOVvntjpY7CTE/RjnTGn7GV0yk1vm7Ppl583uRYM7zpD7YREh9OWivnqfthEhchaDwx5quzE+kUfjki7q76qQAIp8Fin+/slIVYo1IU9R0CVTBlfyv3+ZToovrR6FWBeLyJLJXfzZsPy5sHWO9KLfVYyDhT8JFfl49v88ZnDJREXzVaDi+SuTa8asdFnkXl70P273HmLcFDcwASaQIgiwgHHyMRkFzNm5v1O1oR8LFaIkDYi5noaH046hb1PAqeN2Zy7Tux9VfnuIFDHGgZER4bR39Gd0c/cOY5fVft4q1anRtB8og6sl1MmqU7xxnJ03h07+avkHyqrPxs7zEDAZ07vQseaTdA/MByf+plW3jtm4goRpxiPpW8+TPmpTWH+BMs4Mb8TKY3do2H8XjF3UpXo++qZXKdl+RYTXfDD/PP35evkYc4WIl9PXZ5+hAxft/AMvXkZni2Pxgmxma44H0KcLLxDm0uwNkXj/aVTi/Z+7b9LElZe1LrufeJHf8rGlchoGTlp1mUa8UEwec+F2CPkFhlKzsrnEC344NZh8WLa3rJCLfu1fTm7DK6MVLkBD5VH7ra4LbfBKTetVmjpWyYPdGIawpRFLfO2+pMf3+Wgnxcv0mC7FpfjS2oyfF++EUPtvvaWgM/aNFcciPwgv47Zs8+lA+vDf83ZFZAbBZNZr5alRaesQPMz5lwjV2yNC8X4WuUgw/D61/Pqo3Db+yC+u44+B5amsp5uxS14/nqcx9E8biJLf+B3VrJJ4dvGpHrf6g6r6dXwk7h/Ca2L3krq41c6DTwj59/72UZvkNn6H8bsMWy1+z+HRQ5EBiGij+YvfyRZTj+oiR+2fKIpp9KydX/ckqn3n/YPprbk+DsPgEuJ+1POmxO2G5btRjwbDYnXpNwN9aeqSV20e82W/dbrAmLSwFxUR4qFvky+kiFEPeiaEzZbj86wKBUwfuEMXMB/+3kgdrm93qzeUmlR8Se7vOLWQlu77Xu9TNyCUBrScROUKWZY6UPuwfe7GIfp942dSBBn7eJ8JMIGUSYAFjJPPTRUwDg8R4mH/uBF0bcsG06GNp/1I+YXHxJGd+/cvOv6T+V/YZV9+lSq/OTiGgDLOGehzhja/0c/YbLr/PATMjKr9qZ1HFf18dbePpQBRXvl5Gl7ktDVc7J3HVnUxvMSjChkML1b5hPdETW5X54R3pOa4g6Yv7Phmf414EcSnPTt5/TF1/TFa8Papm58mdCshD/l77y0au/ySvcP1vq9EFbEXo8ro4hv7mw/CqXO1vLJ/6ZE7dPdRhHyhVL1K+0fWkteHnAkUKvjrjQpyPLwQ1cce0OfGRjnh5ZgrcmVyZ7V/P2eEd6nTD9H3YzWJ2Inv88F8AxoV0MWZcX51H0K1zOd71Sa5DY/YnhE1Y7SbNcBT9uL/Tph1Sc/KsiGVCV4FW4ZSxVoe0roTATT4n3MxhnapnldWgYNny579svU6TVt/NcaQYW2L0DvNvWS72bOLcYCDhlMT6+peI4gPW4IV00Act5se80uJ/0ROTs2onJxd5x9Ib52t2zN7TmDx+wBzYahePjw7tcSfQfVLALUf2wlxP8Y5U9r+8xYwEAgDW03WRYmRz7W7PjR9+et6szMCpnfjz6luGUtxAVsCpnDecvRehx8oswhXtmfBYUFCjPWnB8GOc8PszcN9TIAJJA8CLGCcfA5mAgaJ7j5/z6bAc2dFKFlDKtW9l+5ReRIcTMvaNYkxewERctbwq+/09vCHD8hn/lwRNnaB8lQS33r2eYXSZ4z6RlgIodU9OlLIndv6eGxkzJqVOq/aQulcLCEez54+pfML59Gdo4cJoWhY3yVLPg/9mKPTp5DvskX6vq2NhBYwI8p2oQFFGuunm3JuFc26sk3ffx4brzUsQCM7FdOn3nImUH5rffluCOUSL94VCmal3nU8RBiMOy04eJu+WOyrj9U2Vg2tKl/WtX18rvS+S+tP3CPPHJnolfqehHViNOspwrEQMqQaXlgxjxaOhbChJYdv04ZT92RZ4o/EC2fVwpbQCBz3tvgWedPpe3IKiI7pvUvLbWO+imw0+YGXvZMT6up5O6g0NqVHKf06Pxf3Gf7kme5ZqjX+oBQ3ozsXl7P1nXlKhiy938oS6mcMM0NIG8SOlheE+/l5qx/tOPdAhImko5eFx0t9ybVV+CAhng++wd+seJrwAv3TFj8RivRICM10VF4843Zi7Zs2ItwPYXPNvoq56Cyu9fu+ZaRnYacINdsl7gOCFoK0mQgDa185j5Vnp8dPJ+nYVetnjLCwFUOr6MUe8BK+XCTFLz96lzKI5zGua3FduGiPDN40eNVUgydJE45ovxMUIfNXvMX9FBC/bxAnmlcG52jxdcycrH/erEh1S1jCg4zPTj2XM9sQ3HjWRgObbWfv03FxXQgbrC/CByFQlglxPHxBTE/m4TG1Y3gtcf0I7QPLsIhnVLlwVuEFyyPuOZwaRnkFcV54tRa9W5kqeWXVLwN/PlZ5B9CtB2Gi3LeH8MpE/x1nr1JgQt2PfiGx2JhZbSC1EF6JuNgfV7bT5HMr43Ko6TE5xPpcxfNX0vtyZPWgrnWHyH2EZ83fMUnv0zZuBF6k26Ioiy1TPTCRkU9FQUsX8Wcqgk5d3UNX75wW+xlkSFeFwvXJL+B8ggsYhJhNeHm1CI2zeLjh6dl+agGdvLJLhLM9pbJedahNtVd1UeUrvP8zVg+2dTvczgSYQAoiwALGyYdlFDBPQoJpbc/OFPbgvj6DR43a1OS7n/X9I998SReXL9b3sdFhwUpy87SUOg0LvEdre3clzKVZVs+C1PafRbqI8T+0n3Z+9J7WLT9rjxhPRdt2kNsQL5vf7Ef3z0d/q5s+QwZq89dCcvcqLMeEBz2kFR1bWM1htpOQAmZYqfb0TvGW+mlQnWz0GWsWemcCbmwTVbcKRVXdspeEjpyYp0IgIh/GaOq3tXjh6vfbKRHrHx0mBlGChGnNRorQq38Ni0POf6si1S5ueaGEx6Oz8EjgBVk1tUIYQpXemntWdiOP4rfXLGFdi0VIFkLMHBk8L/DAwOB5afzlYfKZXE/mw6Ct1bSj8ht1hNLAEPo245WyhHwbzcOgViL7fecN+nJ19IuL6jWBtwb38zDkiZxL+zFKCMdXhYCE2fpWPiGez5cvlqSXol5eIVq6zTD3jkB0lcmfhYwlo3F9EAR4OV5+7K7NdW42iEp0yJ+CfSO8Hj8L74dqEHvvt7L8GUP7m3POEgSzZnjJPzYu+vcE7fBMwUOlGV7UIRa0XBF4Oz6Yf07POdHGqVXxZu+6KcMDtT58Hhpdm3KKnCcYPBIIE7RnEAK4JzODePvx5TJWXQh1/ET8HhrD0iC+wsX5IJpUQ84KBLVqCOcb+McZEcoYpjbLP691hPhSq6a92bQgfdK+qD4OAnyh+MJBtS97iN+DWh6y6YH4XYQn1MwS4n7M5nWmba4ocNIgt+XLCGfGq2Oed75gQiTxqwIG1373oR/9uPo9ehgcoN4K5XLPT8U8KtPRi5v09oTwwLSvMYjaVH9NzgkBNWXJK3TnwTX9HNjwyFmUPuv+ly5iflo7lM7fOGw1hneYABNIeQRYwDj5zIwC5qzwvJyc+b8YR7eZu4CyF7OE/zzyu0rr+nbXx2QtUJDa/7dC3z84eSxdWbdK39c2sLgkFpmEIRF/cTPrl6BuG3aRi6vFA4A8md2ff6Qdqn8iP6bZjN/0/R0fvEO3j5j/A68NSigB0yxveZpVPTpUYL4QL6MSQbzgPtSXduPLonaf9j6N39bipdXsRW/rJ9VlEjLmQo7ACvEirJkxFwXhRxAJRnu3hZfI0ykim33Fy13bbyxhOLWKZaN/37Z8U4p5MT8M3g/kbcDLcE7E/uNFVjMtER/7EFQ7zt2PUYgAL8tnRXU1GL7lz5cto9xuK8J/fIUX48CoWnp4mPoyrgoqhOk0nXJEJl/Lg5Uf6ksrxiGHxmjxfT6YDxXT4EGDPc9qW+O6lhCeJUsooVHQIY/HW4gTLdEd+Snq85AXJ35sGl5d94JBDJf9Yq+VOEF+R++ocEV7oXfqS7hx8Un8XqBqXmzs1+3X6eu15gJGFaKYc91JEfb2d/QXJM6cx8yr1EiIaoh5Rwa2x8QXBChmALP1RQTC9tZ+aBHkmNYsVBDHJ8T9YJ642PBSHah+bssXC7E9/nfhgVnj7x3bw5wen9ACBt6PMfO7UlCIxZPs6EISQsB8M2C79PrgXAt2TaW9PtH/vqrn717/A2pcoYdsOnZpC83ZMlrt5m0mwARSIAEWME4+NKOAWda2iZXnRJum9Et9qeoQi6AwhpEVat6K6o2bIodGPnlCS1qYv3RkzpGTOq2M/qZqZadWVp6eHjsOaacT3pf+FHj2tL6vbnRdt4MyuLnJphM//yBD1dR+43ZCCJgsogrMoWbj9aT9jaIKzDvefxpP9dz2T4hvfeFVgMEL8IoIjULuh7PWToQdzXjF8u0zXrYqjNxv+tKllqyFNwJVxTRDojJWRYehStIL35u/hKjFAtRvkJFrgvAzGL75fn+e5eUROQ4IJ4IFiHuqO9Hye6AKJnz7XmX0AeokwtCwGCfs2r1Qai4SpGGoVKW9dGMfYTkIX1PFDdqR/4JcCuPL5FdrrtBvO25giKmp5adLfRYz9yS+zwcnVcOlcL8I71K9GqYXZqcR94iQP3jlNE8IhoO3lttiFCjIkdIKHmjMzV7OVRGEfCo1TArng2dFMwhYCFkzU1/W4cFQw+Lg6YPHLzamClTjcYvfq6yHN+L3sp74PXNUOc04BzxTWjgixEXH77wJCffOGLxr8LLBwBQFCczOrwpmjMWiq6hqZrSEuB/jnKlhP6EFzNGLm2nu1jFOo4mvgIFXZ3SvaK8+zv000uIVTkfiD3WUpRN/wAsKEdlahJLBAoJu0MQFPaN6+YMJMIGUSoAFjJNPThUw9sRHvmo1qOkPM+WsRu9JhQFvEv6HIfQMwsSWvbjtgJ5Ps3PYYFleGWONXhx4Z2yVS243f6keRnZ5zQo6NGW8rdPJ9oQQMDVzFqP/ag+W892PCKaGO8ZTWNQ/KnZPnkCdauiWNiW8H/P3+8v8E2PYkzZG+1S/rTV+062NMb44ocyy9vKKl2GfydFrr7zzlw9tFHkvZqZWG1NFBkLgEGoF0yo8GYWE6uFQk/e1qmVqIQI1cVwNi8KLZYNJh6TAqyaqpC16t5I8J3IdIIJgxm/SkeuDF3ZbhvGamQmY+D4fzG0ML0IbEuXn7fOn1SfuOrVmD3KG+olcJnjBHBUlwPwvCyGshhGqHq9/xHnHLLuIYTHsB5Fn0yGqYhvCyyAcNEP+Uf8GntouYeFQW4Zr1PJgEPaIkEDN3mtRiD4UFfdg6rPT+mP7qYpcrCUDL1dsTQ1H1EIUnZ1DDZdDWBlC18zMmAul/jlUxyfE/ajzpZbthBYwC3d/TXvOLncaT3wFTKWijen1Vl86fT5tIHJ0hs9uru3yJxNgAimUAAsYJx+cKmDsrVKP5PmOi9fosy5t04iehobK/bpjJ1PhFm3ktjG8TD8gaqPrhp16eeTj//uOzv33t+xRr8MokIxzNP/5D8pTsYpsvnPsCG1/3yKejOO0/YQQMP0LN6LR5brKKdfdPk6Dvedq0yfKpzF53nhS5EygLK5Z7gvGqt/WTlh5meYYEq4xRn2pxze++OZXM/VbdQgEW2EtGK+GD233uS/zUtCOXAbkNMC0l171W2m0a3OryftoqzPhoFz7ZOX7VWQyO8aqieMzXy1HLcR6GjCU+B234pLcfqupF33c3uLdUfNKpoq8mu5Rlc3kQCd/qAJLPSS+zwdzQcwtH1JFFmRQ59a2kQM0dvlFQl6RmVUUuS8QUqonymyc2gZBB3GgmfpSbJbgr41bJq5TS0RHyBZCtzTb+XlNmaSv7Tv7CSEFQaUZSi83KZNT7hor2mljnP005u00mHRYrgPj7PHaOK26HfbNcsS0cWafag6aWYEM7ZimZXPKKmXYt1V5LaHuRztnavpMaAGD5HgkyTtr8RUwbasPoHY1okOVnT0vCxhnSfE4JpC8CbCAcfL5qMLBnoBxy+9JHRau0mdd0rIBYV0XWN0xQsC0jBIw16/Ruj7d9HHGDVXAeP84XVYZw5iCjZuJb82nyeGOBEyLn2fLhTIx+M7RQ7RdrE9jzxJCwAwt2ZaGlGgtT/OXWLxs3Nml9k75XPrwYopv6VGlyGyND3hLsBaHMZkYF6O+mCL0y2yhPDU8Bgs9YtFAzV6ompe+62NJ2lXDwrR+9VP9lhphWQjPgkGUIFcEpgmbPV/UlPeC8shacQDkmODbfS15H3kvSJKGqaFaaogbxAvCyyIFA7xYQmjAVGGDtUbGRwkbNd8EL4mOPFhyMvHjzM3HMjRN21c/4/N81Hkg6gaKcspamJfah22s8YOqYKqhfPJmkb+khRnCm4TclZ2CHUK8UKkNvx9YSPIbsd4NzPhyrD4f9KOim60FM5Eno+VyGIWOmg+EpHuzMCnMb7R/9t2imdtv6M17R9TS85liU3Zbn0DZwDpBswZYCkggT6q+8NDF1ox8qo45QI/DosWfvfnwXPC7q5k9tmopbVsl0RPifrRricsn8l8KZbGEk8b2+NNB1+nUw2jBG9vjHY1PaAEzaWFvmcTv6Lxaf3wFDELCOtR8Q073KPS+qHA2SJva7me4WLTzcZhtb6fdg7mTCTCBZEOABYyTj0IVMPZCyNRKZKgQtrh59D/GaggZyieveKGlzbOrIWQ7PnqXbh+yhPSgSln7BSv045wOIVstQsi+ev4hZMlBwOhwxAa8GaiMhRdd7UUS/aj2NDQqt0Qbr35bC2+GMeFaG/fn6xX0RQuNSeTwYsCbAbNViQt9KMELsYSXPRiSpJEsrdmFKZZ1giCQ/hQv2FpVshZCeGmLVSKM6BexCGUpsTo5TBMqqgfH3n1o58LnbiGQsJAibIhYp2StWK8EpnoJ7OVNyMFx+BGb52NrerB8oWoeGtyykF5YAWPNXsAXiLVJakStTQLB0u3HE6YeBpRY1spCI2wOngDN1HwU8LXlZVM9dTi23Ih9esUz40u+rfAn7Zy2Po3zYNHVVd53bQ132D68XRF6u5nl93ebTyANmh0d8ubw4KgBKA8OTybMKP6ihtj8UEMZ7bHFBEjg18SrrVLOCXE/Ni/WiY60VIUMC1nejYXgmjZgq77gpa2FLAe1nkoVizSQpI3rwFQo3IDeaDNV9qEM9KdzbIdkO/GoeAgTYAIpjAALGCcfmCpgcAjKEqM8sdHK9O5HVd4dKpsjHgXR8g7RsbZeTVtQ/QmWv3Ahbpa0rG+av2IMQ4PQgeDRrMd2UU0McTTCtr73OgWc8Na6rD67rhdJ/FncZJsahmY1SNnJUbI0tZ49X7Y8DQ+npa0s/3AoQxxulnUvQFVyWOLxvR9cpXOPbjk8JrEGqC/jZhWf1G9rjQnX6jWq4TH9fjttlbvwtUic71Yjnxxubz2OQWKF8s/ESuUwhCZVH3tQz6NB27kvLXk08Lhg/RqIFC10SPOujBAeFC2RXM2LaCvWQPmfKJEMwzf7DZT1NWSj4YcxbwfFAVAkAKYyM1ZbM0wT7131XGbPx5kToHBB1yj+8KRAGKimhiehbLVZmBkKGqBIg+al+WPnTZq8+rI+jbrqvdk5tIFqaJcx1NAoPOBN07xh2vHOfKpiAePjGvKlnUvNUTIrHa2Ns/ep5igZxZ+949Cn/u7CO1ZRFNEws+JiHaaNosKbZq2FmL9kUhI9Ie5HO0dcPlOKgAkNf0Sf/9Uu1reollGOrYD5+rUtoniI5UuTMfO7xCi9jIv5pPscKpDLUtDBKGCwrs3YPtEe/o//bCG+ILBEO8T6RpQD+vfrSaVKFtNbHj4MomnTf9b3eYMJMIHkQYAFjJPPwShgzi+YR94zpsc4uu0/SyibWEwS9vCSL214tZc+xhheZmuByVqfj6Fi7TvJ48zCxNTwMrN1YnBg/jr1qfG0H/VzI/8FeTD2LF369ATPjzSxRsqydk1NK63ZmyM596mJ7RAGfX6NziPAdaveEy33xHg/xhdPVEhS18ZQK4WpifnqPPAE7fishl7x6tsN1+h/YiFG1bQXbbz4aknmWkibFk4GkYGyz7Bh/52XCyhie8QLxeRK9dh25lt0LPyInBmY8aURCyxqifkohDBqqXmyujw4nj8cPR9npldFqDEPx1gi25Zo+FaEAHYSoYCaGT1PyOPBGj6amYkGeHlQCjvKwUbGUEMcq4YrIvQPIYCxNbUQBELQygsvT3xMXXyyl/A6Gdd3cWbuX4VXsGWFXHKosfy0o+NLCqG+/qNq+jBbnqm/xe9lvaiCEUfFopgviUp0ZpYQ92M2r7NtdcTLt5erhYWzx2jjDt6/SH5OliTWjonNZ+aMWWhK/43yEKyhMmx209gcLsfGR8CM77uCskWF1/2y7iPyuR71b0/UVbhmcqfJr6zR128xChgMU704W07Mo5UHfoo6Ou4fWzYtJg+P6D//mKlm7dYUFhZ/cRT3q+IjmQATMBJgAWMkYmPfKGDgoVjXpyuF3LmtH6Hmp6Bx76hP6Pr2LXo/NtTKYPDgIA9G9a5gDZlWf8wjLEYJu7l3F+3+9AO5rf0wrhMDcXL3eHTyJNaIaSeEFDw5MEcVz7R58dlt0x5yyWT5VuzqhjV0YOJotdvhNhawHFjU8g/hspuHacTphQ6PSYgBqOaEnBOsmyK0VwxDZS9UN0K4EcwssVj9tnbq2itWeQbahOo33mbhMcgxQT6JZu2/tS4fiwpmCH0pnNtVDsFLZzWRI2Cs7KXmTmCgmpytJuijD/kF1UTZY+2+F4pqYtVFVTGYM9+ivyZC7EZ2KibHG3MJVDGEkB6ErV0NsBSlkAcoP7B+zRtNvGjEEt8YpasT4vlgpfk6omTwLJEvZOatgOdkjVioU1t80ihCIQSx1o1mY5Zfon/23tJ25efbonTy8KhS1VqHVlJa28en5iHDtlGcFMqdmTYOqy7X7UE/7IdNfuL/a5adqJ9qJTOEuzWZctg0DwaiGblV+N0yhj2qJbvthSxandjGDv5sQDhrpoa8aW3OfKqeNFteLlvzGL8gMCvbrXo5MY+tdZYS6n5sXWtqaFfXUflz80jyvrwtVrcVHwEzvOsf5JWnjDzfxVvecgFM9eT9m4+j6iWiw6zNBIyaBwMRNmPNYLrkb76wrVee0tSu+kBae2QW3bjnq57KapsFjBUO3mECyZYACxgnH41RwOAwVBfzXb6IHvldE9W+KlPRth310C5bosGjVh1qMj36WyKsFXNxxWI5R87SZalYxy66eMEb6aru7Sk0wDqmHQKly5pt+jh4abAg5r0zp4RoyU8lunQnrCWjGXJfLoscGGes5qejqLi4Bs2Cb/vTo2tXxKVYVMG5+X/pJZ21MernlxV60ktedWTTOn9Rhex44lQh01a1x8v80iN36LioNnbeP4RyiRyYlmJNlt51PPR8E4ypKRKvnwjxoJr6ba0x4Vobp4bHmIWI4aXp0JjaevgRhMm0dVfltaBSVNcaeXWPCub8bJEvLToULYK186iLSqJN/TYcSdbwNGhmXGxTFT+9fzlJZivRa8fiUy31u0Csdv6FWPVcM+TF4IVU8yRAxMwTSeR4aUdCP3IQKgoPTuuKufWV4M08GwnxfLSV1xG2hdLU+0Q1LoSapRcXB/GEsDxtHRdcZ5cfrVe9xz2p69Tg2aBML9baKZ0/C/Wt56nnE2n3b6ssMUL0EO6kGbxthy8HUbkCWamMp5vOS+s3hhqiXV2cEvs4F57lCT9xTyJCtLyYq3LhrNSyfG4phszCAVWxgHu+HmguLjG/Zh8vuGD6O1FHCMR5b1aUw4whb9qxjj6N4Yg1xh10uvCDNreap4Q2FJWAGK1Q0I06V8snGLtpQ+0uspkQ96OfKJVuqCICt+hz/SDdCrwovMrB8o7971+hoxej1yQzYoiPgMHCklhgUjNUMNvns5IyZ3SjumVeoMJ5LWGwWr+ZgMF6L/DkuGeJ/vvw5NVddObaXsK1Y62YQkIkoeRynmwF5VQ/rR1K528c1qaN8ckCJgYSbmACyZIACxgnH4sqYCAYsDiWlodinAJJ/ruGD7G58j0Ws8Silo7s9OyZhP/NrGS3nlT9g49tXoN2jDPlk7Wx+IT3peOSdZQpe3a1Wd8+M2cWnfr9F33fuJFUAkb9Rtx4Teo+vrnHonpGL4K9tV3U49VqXWrlMHWMseSx2qdu21phHGPUF1MsbohFDjVTyy/jpbWG8L48EqIMhgpfCE3SDCFFjqpbbRVVuTSP0HDxcouEaNVU0aa2m22beaUwLr7PB3OoSdvYt2dqIQJ1nLpmitqubYPnMRGSpCX6qyWltTH4zCtC97aLMEDNo6f2YRvHVS7krjcbQw21DtXrp7XZ+jSGAxrFgq3jjO2qGFb7hogiCENbW/LXsCYNRFdsDWvVrBZeMJgt8edoTizMuknkt2ii2dZ45NcgDBSC1swS4n7M5k1NbcgvQZ6JLbsZ6EtTl7xqq5viI2DSp3cRx6+nTBks3mjjSeBRuXr3DBXzqCS7zAQMOjxzFaf32v9gJWKMc6n7jgTM7p0rKUcO63//qtVoSU/Ev+tsTIAJJB8CLGCcfBZqTknovQA6/tP3VFvkqqRzcbGaIfzhQ9r67kAKunrZqt24U7xTN6r+4ae6F0XtfxISTLs/+0iWPlbbjdvw2DT59mdTsQGRdeq3n+jsP38aD3O4j/C1euO/onzVa1FGN/FtJ96UouzkrzPszjmxfA/qXaieHL385hEadnKeduhz+8woQodQjQvfuGqJ18aT4SUe8fgQDWrOijZODQ1TV7nX+rVPvFgVEwnEsDf+PEtbzwZqXVafnUWpYpQ3xrUZDeWbPxeeF3sLF6oLTr4++4wsp6zNo+bZoHIZKphphhdvfIMNQ2lflKF1ZKpXosmUI3TjfliMQ+DxmdarlO5lMQ6ANwP38+euW7Tr/H2r7oR4PpjwU1H04EWxJo2WE2R1kqgdLPw5YeUluiXWgrFlCItDZTrjCzI8HBA+Pevkl+fB8WpJaeN8yKmBoMU6Lwh90jwgm8T6Myh//efr5eUhWJem8Zfm3/jij9ZbourXh0I4YA4zQ2jkBuFxmrntulWiurrgqdlxttpshYapXiV74trWvGjH89HKeqthj/aOMeuDl+WPAeVNy6DDg/q9CMdDcQV7lhD3Y2/+1NKXJ1sB6tFgOBXOV078/ekuPJrR/6Zdu3vWbnliVcCMnd+NHgRbf/nhiFHe7EI0d/qF3F2jIwZwDIoK/LF5BNUs2UZ4YzrKaWwJGHSmT5eeutYbSo3Kd9NzZuRByo9AUVDmiO8m2uT9l/g34LHSE73p7p6V9u1ZE90gtk6ePEu9+75l1cY7TIAJJD0BFjDxfAZYKNKrWQsKgWqfLQAAFqdJREFUuX2b/LZtssqJcWZqd6/C5Fm3PrkXKUb3fc7QrQN7Y4SMOZoH4WL5a9eTa748vnmd/A/so4eXn1+ytaPrScp+LCSJsKYCOTPJb2ZRTezcrWC6ei/M5je1z+t68eJeQYRX4X98Ux8YHCGTov3EtaREw8s2PDXlxcslkq1DwiPpmriXKyIn5ry/JeTE0X0lxPPBWi5YjLKwyDWBJxRC7cLtYPK9HWIqTs2uCSIIYq+MZxa6dCdUJtDjxTiuhlC7u6KoguYNmN67tAh3siQCY52ZSasu250a+TuoNIcQNITBPXkqwkIDwuii8L6ZCUq7k6WSTvy+IZ8JXy5kc80gPTpYlwneLbbUQwDioyDWy4nKhzntt9e0Ipmzd4ywsaL5KogCAXnEn8cIuvPQj24EXHBq7ZeePbvQ6JEfWZ2qS7dXydf3slUb7zABJpD0BFjAJP0z4CtgAkwgFRHA2jZYXFLzvrWdfkyKq1R0i3wrTCBVEvjt12+ofv3oQh9Hj56gfq8OTpX3yjfFBFI6ARYwKf0J8vUzASaQqATguSmQI5NcDNV4YogWlE+G1wAGD0obJX/JOJ73mQATSD4E9uxaRdmzWyo4onBN+459yc/vRvK5QL4SJsAEdAIsYHQUvMEEmAATcExAWycGBQuQg+QjwpqCQp9QWc+s1EtUu8M6PzCEkzWfejTNhoA5JskjmEDyIZAzZ3batWOlfkH79h+mQW9Yh5PpnbzBBJhAkhNgAZPkj4AvgAkwgZREYPPH1amoqJRlz1A04sP556XAsTeO+5gAE0geBEqXKk6/zZwuLybyWST16fs2+fvHrihB8rgTvgomkDYIsIBJG8+Z75IJMIEEIoAqZh2r5LFZIWudqIQ2fsUlucBoAp2Sp2ECTIAJMAEmwAQUAixgFBi8yQSYABNwlgDKHqP6WL5sGWUltKtiMcuo9V6dnYLHMQEmwASYABNgAnEgwAImDtD4ECbABJgAE2ACTIAJMAEmwASShgALmKThzmdlAkyACTABJsAEmAATYAJMIA4EWMDEARofwgSYABNgAkyACTABJsAEmEDSEGABkzTc+axMgAkwASbABJgAE2ACTIAJxIEAC5g4QONDmAATYAJMgAkwASbABJgAE0gaAslSwPTt3TnBaMz7d0WCzcUTMQEmwASYABNgAkyACTABJpC0BFjAJC1/PjsTYAJMgAkwASbABJgAE2ACsSCQrAXM3MVLY3Er1kP7v9hNNrAHxpoL7zEBJsAEmAATYAJMgAkwgZRMgAVMSn56fO1MgAkwASbABJgAE2ACTCCNEWABk8YeON8uE2ACTIAJMAEmwASYABNIyQRYwKTkp8fXzgSYABNgAkyACTABJsAE0hgBFjBp7IHz7TIBJsAEmAATYAJMgAkwgZRMINkLmBLtu1LtYaPo2ZMnFBEcTOFBD+jmwb3kPfNbehoebpO9WRK/l2su+qhUe3nMav9jtOXOaZvHcwcTUAmkT5eOWuerRD286pBn5hzkkTk7uWdwpcnnVtA/1/aoQ3mbCTABJsAEmAATYAJM4DkSSPYCpvKAd6niK2/EQBAR/JiWdG5Cz55FxuhDg5mAyZDOhQ42G0fZxItn8NMwqrt9LIU8jTA9nhuZgEpgYZ0hVD1HUbVJbk89v5pmXt4ao50bmAATYAJMgAkwASbABJ4PgWQvYPJVrkGlu/SkzDlyUY5iJck1dx6dxJn5s8l71g/6vrphJmDQ36dQfZpQ/kU59JdLW2jahTXqYbzNBGIQaJa3PM2q/rre7vPoJu0P9KW7YY9oe8AZOvXwut7HG0yACTABJsAEmAATYALPl0CyFzDG22/z09+Uu2xF2Rxw5gRtHNzfOETu2xIwLunS0/6mYylnRjc5rsGO8XQ77KHpHNzIBEBgeKkO9HbxFhLG7nvn6dXDvzIYJsAEmAATYAJMgAkwgSQikOIETLme/anaWx9KXMG3b9GKPpacFiM/WwIG4/AyipdS2K8i/OdrEQbExgRsEZhZbSC1yFdBdo8+s5jm+e21NZTbmQATYAJMgAkwASbABJ4zgRQnYAo3bU0NR0+VWMIfBdGSLk1MEdkTMEjA3tNktDwOuTDVt46ipzZyaUwn58Y0RWBuzbeoQe7S8p7f855D62+fSFP3zzfLBJgAE2ACTIAJMIHkRCDFCRiv+k2p8cTvJMO4ChgcvLjO+1Q1RxE5z+Djc2md/3G5zT+YgJGAKmDeOPo7bb17xjiE95kAE2ACTIAJMAEmwAQSiUCaFTCvFWlMI8t2kZjX3T5Og73nJhJyy2mQi1MhmxcVypKbCrjmpGfiv7NBN8T/Nykw4nGsrqWsewEq5paXCmexFDi4HfaA/EIDyfvBVVPPEs6t5QBFPnvm8HzqeFRtg9dKM5QSzpw+g9x9EBFCT549JZQcrpitENXOVYLui3s5+dCPzj/yl/eoHefoE+fEPZXLVpCKiPu6I/KULgXfEfd0TZ7D0fEJ2c8CJiFp8lxMgAkwASbABJgAE4gfgTQrYCpm96LldS25NEFPQkUY2cj4kXTyaIiND0q2lTkVeEk3s4DwR/TmsT+kADHr19rq5S5F48p1p5JZPbQmq0+ExSFfY9zZpVbt+cU6JrubjNLbGu6YQP5C9NiyAULsjYgSe6eDrlPnfd/qQ+eI8KqGUeFV/Q7/Ir1aH5ZsR8Z72yOS39/x/pMeP4kWP/okykbG9C70SamONKCoeWhgWOQTmnt1F033XUsRkU+VI5/fJguY58eWZ2YCTIAJMAEmwASYQGwJpDgB41mrPjX76id5n5ER4bSgXV3Te7aXA4MD8ILt08qSS4P9Jjsn0o3Q+9h8rvZK4YY0tlw3p84B4fHXtd2mY+HdmF/rXdM+tRFiCOvdGE1d1+THixvpe9/1xiH6/uaGn1FR4Q2BGa9JFTAbbp+kNh6V9OOMG44qeJVx96Q/qr9Bnq45jIfG2K+3fRzdDQ+K0f48GlbW+4jKC08QjEPIngdhnpMJMAEmwASYABNgAs4TSHECJkteD+ryX/TL9pKuTSk8KGYZZEcCBojUF/O3j82mTXdOOU8ujiM1AQOvz3zhHTn+8BpdenyHQiMjZMjU28VaitCr4vrszXZNJr+Qe/q+trG6/jCCNwd2JfguTTm/SoZqpRP7EBu1c5aQXoxw4bEwEzAd8lelH6r0k8fbEjnoLC1Exdr6w+U4/Ki6dYSVF0UVMNqgGUIQQaxkSZ+JhpRsbbUAZMvdU+T1amO1T4SdbWs0ggqKcDrNsML99oCzko9XllxUTSwk+U7xljJkLbEEDITu8RaT9TC5Tvum0xkR6sfGBJgAE2ACTIAJMAEmkDQEUpyAAaZeGw5ROhcXSezmQfGS+9l7Meg5I2BUL8SI0wvpv+v7Y8yT0A0QBKWz5peVrGxVPlOva/bVnTTJZ7nVZbi5ZBYv1ZP0tlrbRotck2B9X9vAy3c1Uajg8P3LWpP+mSGdC3mLObT8lT6H/kcHAy/p/drG6HJdqX/hRnIXhQ5Q8EA1o4BBGNneexf0IekoHW1vHC1Mpp1fQ79c3qL3axtqmBq49BdrrWCxSKPlypiVxpXvTihnbHbPxvHx3VevC3OV3/xpooWuxffa+XgmwASYABNgAkyACaRGAilSwFR5fQhV6DtQfx6h9wLo7pnj9OiGH1FkJB3/Ywa90qWT7J/37wp9nHHj12oDqGU+y6KY3/quo/9d3GQckiT7bT0q0/+qvirPDfHR6+AMq+tQy0Cjw5aAsTrIZEcVJ6tvHaOhJ/62GgUBdLT5BIJggvU59JMQORetxqgC5uiDK/TSgR+t+rGjrruDnByID6OdajlFF1O/Xd5GXwmPUlIY1nvJk8mdPEWeEML0tPLJuJZpF4T4uhRTfCXFdfI5mQATYAJMgAkwASaQVgmkSAGDh+VRtSZVevVt8qhSk0iEH6m2uFMj6tO+jWyyJ2C+qdSXuhSoIcfNurKNppxL/Jfm7BmyyLApD/HCjDAqGKpuQVzAfB/fprZ7onN10IZx51p9jU1pC68foPE+SwkVwmJjJbLmow0NPpWHwOtRTRQyCHkark/RPG95+q3663LfVpiZKmCmigVBZ4qFQY3WXoSr/RgVroYSxMgjUQ2CYX/TsXpTDbEuz8MnIfp+Ym4gLwrCTTXwXSC8cxBobEyACTABJsAEmAATYAJJSyBFCpgMWdzkYpaetesL7WL9sgmczgqY36sPoqZ5y8knYCu06Xk8Hrywv1WsOb0sEvq1EC5b50H+C/JgjKZeO/ogQA7fvyRzT44Ir80hse1MlS41Qf3z0wsIL+uaqeew5aFSBcyQ43/RWn9v7XD9s26ukvRPrXfkvlkiv1qQwJZQ0id7zhtmAgZs54hQvu98N1iVkH7Ol8LTMwEmwASYABNgAkyACZgQSJECptX3sylvpWr67VzbsZnO/vcn3fM5Tc/EyybMmRyYJXWHUpXsheX4z079R4tuHJTbz/NHZXG+RXWGxPiW39Y5URkNFdKMhjAyVCHTqoMZ+/HSveTGIYeemR4Fa9OUir3k4WqJZHiGjojwMc1sJc2rAsaY/6IdqwoY5Nkg30a13oXq0cTyPWQT1q558cAPaneSbKOYAEL5tPLRuIikWC8oSW6eT8oEmAATYAJMgAkwgWRMIMUJGHhcem06rCO9tGEl7f9qtL6vbTgjYHY1HqWX7B14ZBbtEBWvnqchcf5I8/F6TgkWhPz9yg7aHXCObol1WLTwLYR2za9lKUxgS8DgOhHq9KIQIC94ViOIBGPoE8YgBK393q8JC1aaGTxAqLKlHdti15d0NSRAJu5rYWxYwwVJ9WaWEAKmp1ddmlzhJTk9qrJ13/+92amSpA0hhgg11KzmtlGEBTvZmAATYAJMgAkwASbABJKGQIoTMLnLVqA2P/2j01rYvi49DY/O29A6HAmYLC6Z6IR4cdcsronw2vHOfLYSBQN+EYUDYBAvrXZ/RbfFCvNGQyL5zGqWIgX2BIx6HKp9lctWQBYleL1oU8qWwVXvHnZyPi2/GS369I6ojS8r9KSXvOrIPS2Bfn2DT/QFMu2VmE4IAVMzZzH6r/ZgeX5UFsOzSC4Grt4tJuqis8v+b+nUw+vJ5fL4OpgAE2ACTIAJMAEmkOYIpDgB41W/KTWe+J18UE/DQmlhh/qmD82RgMEq9n/XfFseeyv0ATXaGR0uZTphAjR+WvoFeqNYMznT3Gu7aPzZZaazqlW7nBUw6kTwqiyq876++OK/fvto5JlF6hCrbSzSiFwYGNan6SEqia1v8LHch9CqLpLqEZJmZgkhYHJmdKNDzcbr09feNoYCIx7r+0m9oYYa8kKWSf00+PxMgAkwASbABJhAWieQogVM+KMgWtKliekzdCRghpZsS0NKtJbHInEdCezP20aU6SwXl8R5frq0iaZfWBfjlAgz29d0DOGlHhYXAYPjsHaLFgK2WSzQ+ZZYqNOebWz4KRV3yyeHXAq+o2/PFiFuk86tsHloQggYTI51bbRyzX9f201jzy61ec7E7phb8y29nDILmMSmz+djAkyACTABJsAEmIA1gTQrYHY0Hqmv+m5rEUdrVPHfUxPmUV0Mq9Krng2EK40q10VfOBJnNBMwSODvXqAW/Xt9n83FHNWXbkciBOd5RVREG1uuGzatTMuJsWpUdhJKwKiJ/Jj+He8/aePtk8qZLJuo4IaFLL84tTDRSi2rLFnAxHgk3MAEmAATYAJMgAkwgUQlkOIETNEW7aj+iC8lpLh6YMq4e9Ka+sPlHIkVPoaTYX2XLY0+l+fFD4gTrC+yM8BH9vUv0oiq5yiq92tjjFXIyroXoNX1h8lx8K5su3uWLjz2pyeRT6lhnjLUxqMSVcjmpc/Tad90OhN0Q98324D3A4tWasn8GINjcKw9SygBA/G2oeEnuucH58TimlvunqbLwXfJyzUXoYLbwKJN5DXaqopm71rj2vdnjTepkeAKs1UqOq5z83FMgAkwASbABJgAE2ACsSOQ4gRMhZcHUZWBlgpdofcCaNlLrUzv2F4ImboC/SSf5TRbrPGRWDasVHt6p3hLu6dDIr2WK2PmgVEFjN2JROcfV7bT5HMrHQ2T/d9XfoU6iopmmiFvBvkz9iyhBAzOAYH3e41BViLG1rkTU8CgzDS8Z7CJ4vflz0T8fbF1/9zOBJgAE2ACTIAJMIG0SiBFCZj0GTJQx7krKGv+AvJ53T15jDYNtVT1Mj5AWwLGXVTnOiwSxuFpQIJ6ve3jE3VxwvTp0tGAIk3ok9IdrbwduH4k0E8W+SZ7712gbY2+kLeEfJTWolqZarkyZqUxItwLi3Cq1cbUMfAsfX1htag+dkRttrutVklDaBuS98HInqFaGqqmwXodnCEW07wst9UfjtaBUcfiubwrBN5gkZ+keoO0MahS9rsQZRB5T5491Zqf6yeu5QORMwXzeXSTuokyz+GRT57rOXlyJsAEmAATYAJMgAkwAXMCyV7AFKzbiKq99SFlzOpOmXPmJogYzY7N/E4sYDlH27X6tCVghpfqQKjyBXPGw2A1aQLuIGQLZY9LZvWQwuWIePE3K6ns6JSFsuSWngtP1xzkmj4j+YUE0jWxjgvCrp6J/2Jjk8RaLL3EmiwwhG8NPfF3bA5P8LHI9UG4X24h2EIiI+iKuKfzj/xjfV/xvTCE462o96E+TZgQLycf+lFA+COa57eHdol1fNiYABNgAkyACTABJsAEEodAshcwlQe8SxVfeSMGjaBrl2n1azGTzrWBZgIGq8sfbDZOfrOP0KxmuybZXOBRmyetfBpzYHoKbwpEFZuFwLhy3enlwg1i4Jh6fjXNvLw1Rjs3MAEmwASYABNgAkyACTwfAslewJTs2J2qvD5ELFYZSmEPHlBoYACdXzqfbuzfZZeImYDJmiEzdS1QUx53MPAinXt0y+4caaUTYW2TxWKWWp6HWd5NWmFh7z7LieIJbfNXIc/MOahgllyUS5S6/uXSFlrj723vMO5jAkyACTABJsAEmAATSEACyV7AxPVezQRMXOdKjcdlcckk8zrgleroWVVfgwX3OuzkfJE7czg13jbfExNgAkyACTABJsAEmEAKJ8ACJoU/wLhefm6xnsqBpmNjHD7n6i6a4LMsRjs3MAEmwASYABNgAkyACTCB5ECABUxyeApJcA2qgEHFseMPr9HKm0dp7jX7oXlJcKl8SibABJgAE2ACTIAJMAEmoBNgAaOj4A0mwASYABNgAkyACTABJsAEkjsBFjDJ/Qnx9TEBJsAEmAATYAJMgAkwASagE2ABo6PgDSbABJgAE2ACTIAJMAEmwASSOwEWMMn9CfH1MQEmwASYABNgAkyACTABJqATYAGjo+ANJsAEmAATYAJMgAkwASbABJI7gWQtYBIC3rx/VyTENDwHE2ACTIAJMAEmwASYABNgAsmAAAuYZPAQ+BKYABNgAkyACTABJsAEmAATcI5AshQwuHQPj3zyDoKCgigkJNS5u+FRTIAJMAEmwASYABNgAkyACaRqAixgUvXj5ZtjAkyACTABJsAEmAATYAKpiwALmNT1PPlumAATYAJMgAkwASbABJhAqibAAiZVP16+OSbABJgAE2ACTIAJMAEmkLoIsIBJXc+T74YJMAEmwASYABNgAkyACaRqAixgUvXj5ZtjAkyACTABJsAEmAATYAKpiwALmNT1PPlumAATYAJMgAkwASbABJhAqibAAiZVP16+OSbABJgAE2ACTIAJMAEmkLoI/B+tHDMHaqB8BQAAAABJRU5ErkJggg==;" vertex="1" parent="uFCmPriLI4l2OT3lbVlF-73">
          <mxGeometry x="18" y="143" width="298.99" height="96" as="geometry" />
        </mxCell>
        <mxCell id="uFCmPriLI4l2OT3lbVlF-79" value="sim" style="edgeStyle=orthogonalEdgeStyle;rounded=0;orthogonalLoop=1;jettySize=auto;html=1;" parent="1" source="uFCmPriLI4l2OT3lbVlF-76" target="uFCmPriLI4l2OT3lbVlF-14" edge="1">
          <mxGeometry relative="1" as="geometry" />
        </mxCell>
        <mxCell id="uFCmPriLI4l2OT3lbVlF-81" value="não" style="edgeStyle=orthogonalEdgeStyle;rounded=0;orthogonalLoop=1;jettySize=auto;html=1;" parent="1" source="uFCmPriLI4l2OT3lbVlF-76" target="uFCmPriLI4l2OT3lbVlF-80" edge="1">
          <mxGeometry relative="1" as="geometry" />
        </mxCell>
        <mxCell id="uFCmPriLI4l2OT3lbVlF-76" value="persistiu?" style="rhombus;whiteSpace=wrap;html=1;rounded=1;fillColor=#fff2cc;strokeColor=#d6b656;" parent="1" vertex="1">
          <mxGeometry x="830" y="470" width="80" height="80" as="geometry" />
        </mxCell>
        <mxCell id="2GjJaxAQOo0FLlAYTIdS-2" style="edgeStyle=orthogonalEdgeStyle;rounded=0;orthogonalLoop=1;jettySize=auto;html=1;exitX=1;exitY=0.5;exitDx=0;exitDy=0;" edge="1" parent="1" source="uFCmPriLI4l2OT3lbVlF-80" target="uFCmPriLI4l2OT3lbVlF-14">
          <mxGeometry relative="1" as="geometry" />
        </mxCell>
        <mxCell id="uFCmPriLI4l2OT3lbVlF-80" value="envia erro ao insights &lt;b&gt;biometric_failed_keychain&lt;/b&gt;&lt;div&gt;com &lt;b&gt;stackTrace&lt;/b&gt;&lt;/div&gt;" style="whiteSpace=wrap;html=1;rounded=1;fillColor=#fff2cc;strokeColor=#d6b656;" parent="1" vertex="1">
          <mxGeometry x="787" y="600" width="166" height="60" as="geometry" />
        </mxCell>
        <mxCell id="uFCmPriLI4l2OT3lbVlF-85" value="sim" style="edgeStyle=orthogonalEdgeStyle;rounded=0;orthogonalLoop=1;jettySize=auto;html=1;" parent="1" source="uFCmPriLI4l2OT3lbVlF-82" target="uFCmPriLI4l2OT3lbVlF-84" edge="1">
          <mxGeometry relative="1" as="geometry" />
        </mxCell>
        <mxCell id="uFCmPriLI4l2OT3lbVlF-94" value="não" style="edgeStyle=orthogonalEdgeStyle;rounded=0;orthogonalLoop=1;jettySize=auto;html=1;entryX=0.5;entryY=1;entryDx=0;entryDy=0;" parent="1" source="uFCmPriLI4l2OT3lbVlF-82" target="uFCmPriLI4l2OT3lbVlF-90" edge="1">
          <mxGeometry x="-0.813" relative="1" as="geometry">
            <Array as="points">
              <mxPoint x="653" y="1099" />
              <mxPoint x="1209" y="1099" />
            </Array>
            <mxPoint as="offset" />
          </mxGeometry>
        </mxCell>
        <mxCell id="uFCmPriLI4l2OT3lbVlF-82" value="confirmou no dialog?" style="rhombus;whiteSpace=wrap;html=1;rounded=1;fillColor=#fff2cc;strokeColor=#d6b656;" parent="1" vertex="1">
          <mxGeometry x="607" y="980" width="92" height="92" as="geometry" />
        </mxCell>
        <mxCell id="uFCmPriLI4l2OT3lbVlF-89" value="" style="edgeStyle=orthogonalEdgeStyle;rounded=0;orthogonalLoop=1;jettySize=auto;html=1;" parent="1" source="uFCmPriLI4l2OT3lbVlF-84" target="uFCmPriLI4l2OT3lbVlF-90" edge="1">
          <mxGeometry relative="1" as="geometry">
            <mxPoint x="1018" y="1026" as="targetPoint" />
          </mxGeometry>
        </mxCell>
        <mxCell id="uFCmPriLI4l2OT3lbVlF-84" value="navega para configurações de biometria do usuário" style="whiteSpace=wrap;html=1;rounded=1;fillColor=#fff2cc;strokeColor=#d6b656;" parent="1" vertex="1">
          <mxGeometry x="787" y="996" width="120" height="60" as="geometry" />
        </mxCell>
        <mxCell id="uFCmPriLI4l2OT3lbVlF-90" value="&lt;b&gt;fim&lt;/b&gt;" style="ellipse;whiteSpace=wrap;html=1;aspect=fixed;fillColor=#d80073;strokeColor=#A50040;fontColor=#ffffff;" parent="1" vertex="1">
          <mxGeometry x="1185" y="486" width="48" height="48" as="geometry" />
        </mxCell>
        <mxCell id="uFCmPriLI4l2OT3lbVlF-98" value="&lt;h1 style=&quot;caret-color: rgb(0, 0, 0); color: rgb(0, 0, 0); font-family: Helvetica; font-style: normal; font-variant-caps: normal; letter-spacing: normal; text-indent: 0px; text-transform: none; white-space: normal; word-spacing: 0px; -webkit-text-stroke-width: 0px; text-decoration: none; margin-top: 0px;&quot;&gt;MFE - UTILITIES&lt;/h1&gt;" style="text;whiteSpace=wrap;html=1;align=center;" parent="1" vertex="1">
          <mxGeometry x="705" y="-176" width="243" height="42" as="geometry" />
        </mxCell>
        <mxCell id="ctKLtYblNAu11bIY_psp-4" value="Biometria não reconhecida" style="edgeStyle=orthogonalEdgeStyle;rounded=0;orthogonalLoop=1;jettySize=auto;html=1;exitX=0.5;exitY=1;exitDx=0;exitDy=0;entryX=1;entryY=0.5;entryDx=0;entryDy=0;fillColor=#1ba1e2;strokeColor=#000000;strokeWidth=1;" parent="1" source="uFCmPriLI4l2OT3lbVlF-50" target="uFCmPriLI4l2OT3lbVlF-50" edge="1">
          <mxGeometry x="0.1765" y="-20" relative="1" as="geometry">
            <mxPoint x="-3" y="11" as="offset" />
          </mxGeometry>
        </mxCell>
        <UserObject label="&lt;h1 style=&quot;caret-color: rgb(0, 0, 0); color: rgb(0, 0, 0); font-family: Helvetica; font-style: normal; font-variant-caps: normal; letter-spacing: normal; orphans: auto; text-align: left; text-indent: 0px; text-transform: none; white-space: normal; widows: auto; word-spacing: 0px; -webkit-text-stroke-width: 0px; text-decoration: none; margin-top: 0px;&quot;&gt;Issue GIT 96646&lt;/h1&gt;&lt;p style=&quot;caret-color: rgb(0, 0, 0); color: rgb(0, 0, 0); font-family: Helvetica; font-size: 12px; font-style: normal; font-variant-caps: normal; font-weight: 400; letter-spacing: normal; orphans: auto; text-align: left; text-indent: 0px; text-transform: none; white-space: normal; widows: auto; word-spacing: 0px; -webkit-text-stroke-width: 0px; text-decoration: none;&quot;&gt;esse tratamento foi necessário por conta de um bug no local_auth&lt;/p&gt;&lt;p style=&quot;caret-color: rgb(0, 0, 0); color: rgb(0, 0, 0); font-family: Helvetica; font-size: 12px; font-style: normal; font-variant-caps: normal; letter-spacing: normal; text-align: left; text-indent: 0px; text-transform: none; white-space: normal; word-spacing: 0px; -webkit-text-stroke-width: 0px; text-decoration: none;&quot;&gt;&lt;b&gt;notAvaliable&lt;/b&gt;&amp;nbsp;da biblioteca trata como que o dispositivo não tivesse o&amp;nbsp;&lt;b&gt;Hardware,&amp;nbsp;&lt;/b&gt;sendo que o dispositivo de fato tem a funcionalidade.&lt;/p&gt;&lt;p style=&quot;caret-color: rgb(0, 0, 0); color: rgb(0, 0, 0); font-family: Helvetica; font-size: 12px; font-style: normal; font-variant-caps: normal; font-weight: 400; letter-spacing: normal; orphans: auto; text-align: left; text-indent: 0px; text-transform: none; white-space: normal; widows: auto; word-spacing: 0px; -webkit-text-stroke-width: 0px; text-decoration: none;&quot;&gt;issue: https://github.com/flutter/flutter/issues/96646&lt;/p&gt;" link="&lt;h1 style=&quot;caret-color: rgb(0, 0, 0); color: rgb(0, 0, 0); font-family: Helvetica; font-style: normal; font-variant-caps: normal; letter-spacing: normal; orphans: auto; text-align: left; text-indent: 0px; text-transform: none; white-space: normal; widows: auto; word-spacing: 0px; -webkit-text-stroke-width: 0px; text-decoration: none; margin-top: 0px;&quot;&gt;Issue GIT 96646&lt;/h1&gt;&lt;p style=&quot;caret-color: rgb(0, 0, 0); color: rgb(0, 0, 0); font-family: Helvetica; font-size: 12px; font-style: normal; font-variant-caps: normal; font-weight: 400; letter-spacing: normal; orphans: auto; text-align: left; text-indent: 0px; text-transform: none; white-space: normal; widows: auto; word-spacing: 0px; -webkit-text-stroke-width: 0px; text-decoration: none;&quot;&gt;esse tratamento foi necessário por conta de um bug no local_auth&lt;/p&gt;&lt;p style=&quot;caret-color: rgb(0, 0, 0); color: rgb(0, 0, 0); font-family: Helvetica; font-size: 12px; font-style: normal; font-variant-caps: normal; font-weight: 400; letter-spacing: normal; orphans: auto; text-align: left; text-indent: 0px; text-transform: none; white-space: normal; widows: auto; word-spacing: 0px; -webkit-text-stroke-width: 0px; text-decoration: none;&quot;&gt;issue: https://github.com/flutter/flutter/issues/96646&lt;/p&gt;" id="ctKLtYblNAu11bIY_psp-10">
          <mxCell style="text;whiteSpace=wrap;html=1;fontFamily=Helvetica;fontSize=11;labelBackgroundColor=none;fillColor=none;" parent="1" vertex="1">
            <mxGeometry x="731" y="725" width="248" height="195" as="geometry" />
          </mxCell>
        </UserObject>
        <mxCell id="ctKLtYblNAu11bIY_psp-20" value="" style="group" parent="1" vertex="1" connectable="0">
          <mxGeometry x="158" y="-134" width="330" height="190" as="geometry" />
        </mxCell>
        <mxCell id="ctKLtYblNAu11bIY_psp-15" value="" style="group" parent="ctKLtYblNAu11bIY_psp-20" vertex="1" connectable="0">
          <mxGeometry width="321.3600000000001" height="80" as="geometry" />
        </mxCell>
        <mxCell id="ctKLtYblNAu11bIY_psp-13" value="" style="ellipse;whiteSpace=wrap;html=1;aspect=fixed;fontFamily=Helvetica;fontSize=11;labelBackgroundColor=default;fillColor=#dae8fc;strokeColor=#6c8ebf;" parent="ctKLtYblNAu11bIY_psp-15" vertex="1">
          <mxGeometry x="6" y="10" width="60" height="60" as="geometry" />
        </mxCell>
        <mxCell id="ctKLtYblNAu11bIY_psp-14" value="package&lt;b&gt; local_auth&lt;/b&gt;" style="text;html=1;align=left;verticalAlign=middle;whiteSpace=wrap;rounded=0;fontFamily=Helvetica;fontSize=19;fontColor=default;labelBackgroundColor=default;" parent="ctKLtYblNAu11bIY_psp-15" vertex="1">
          <mxGeometry x="105" y="14.5" width="216.36" height="51" as="geometry" />
        </mxCell>
        <mxCell id="ctKLtYblNAu11bIY_psp-17" value="" style="group" parent="ctKLtYblNAu11bIY_psp-20" vertex="1" connectable="0">
          <mxGeometry x="2" y="110" width="328" height="80" as="geometry" />
        </mxCell>
        <mxCell id="ctKLtYblNAu11bIY_psp-18" value="" style="ellipse;whiteSpace=wrap;html=1;aspect=fixed;fontFamily=Helvetica;fontSize=11;labelBackgroundColor=default;fillColor=#fff2cc;strokeColor=#d6b656;" parent="ctKLtYblNAu11bIY_psp-17" vertex="1">
          <mxGeometry x="6" y="10" width="60" height="60" as="geometry" />
        </mxCell>
        <mxCell id="ctKLtYblNAu11bIY_psp-19" value="Desnvolvimento" style="text;html=1;align=left;verticalAlign=middle;whiteSpace=wrap;rounded=0;fontFamily=Helvetica;fontSize=19;fontColor=default;labelBackgroundColor=default;" parent="ctKLtYblNAu11bIY_psp-17" vertex="1">
          <mxGeometry x="105" y="14.5" width="223" height="51" as="geometry" />
        </mxCell>
        <mxCell id="6nUs9YAi-4OCBmOYSuKF-59" value="Exceções&#xa;&#xa;- **passcodeNotSet** (Código de Acesso Não Configurado): Isso significa que a pessoa ainda não escolheu um código de acesso no seu telefone (como um código numérico no iPhone ou um padrão de desenho no Android).&#xa;&#xa;- **notEnrolled** (Não Cadastrado): Isso quer dizer que o telefone não tem as digitais ou rosto da pessoa salvas para desbloquear.&#xa;&#xa;- **notAvailable** (Indisponível): O telefone não tem o equipamento necessário para usar as digitais ou o rosto para desbloquear.&#xa;&#xa;- **otherOperatingSystem** (Outro Sistema Operacional): Se o aplicativo não funciona no sistema operacional do telefone, ele mostra esta mensagem.&#xa;&#xa;- **lockedOut** (Bloqueado): A função de desbloqueio foi temporariamente desativada porque alguém tentou desbloquear o telefone muitas vezes sem sucesso.&#xa;&#xa;- **permanentlyLockedOut** (Bloqueio Permanente): Agora, só é possível desbloquear o telefone com o código numérico ou padrão, pois a função de desbloqueio com digitais ou rosto foi desativada permanentemente.&#xa;&#xa;- **biometricOnlyNotSupported** (Biometria Apenas Não Suportada): Isso significa que o telefone não pode ser desbloqueado só com a digital ou rosto, ele precisa de um código numérico ou padrão." style="text;whiteSpace=wrap;strokeWidth=1;fontSize=16;" parent="1" vertex="1">
          <mxGeometry x="170" y="-852" width="535" height="581" as="geometry" />
        </mxCell>
        <mxCell id="2GjJaxAQOo0FLlAYTIdS-3" value="&lt;h1 style=&quot;margin-top: 0px;&quot;&gt;Status&lt;/h1&gt;&lt;p&gt;&lt;/p&gt;&lt;ul&gt;&lt;li&gt;sucesso&lt;br&gt;&lt;/li&gt;&lt;li&gt;falha&lt;br&gt;&lt;/li&gt;&lt;/ul&gt;&lt;p&gt;&lt;/p&gt;" style="text;html=1;whiteSpace=wrap;overflow=hidden;rounded=0;" vertex="1" parent="1">
          <mxGeometry x="1251" y="422" width="180" height="109" as="geometry" />
        </mxCell>
      </root>
    </mxGraphModel>
  </diagram>
</mxfile>
